<svg width="23" height="16" viewBox="0 0 23 16" fill="none" xmlns="http://www.w3.org/2000/svg">
<path d="M14.8973 0.480302C14.7661 0.349442 14.5953 0.283845 14.4238 0.283845C14.2523 0.283845 14.0811 0.349442 13.9503 0.480302C13.6889 0.741689 13.6889 1.16557 13.9503 1.42696L19.8789 7.35594L1.63814 7.35594C1.2682 7.35594 0.968524 7.65561 0.968524 8.02522C0.968524 8.39482 1.26787 8.69483 1.63814 8.69483L19.8789 8.69484L13.9503 14.6241C13.6889 14.8855 13.6889 15.3094 13.9503 15.5708C14.2117 15.8322 14.6356 15.8325 14.8973 15.5708L21.9687 8.49871C22.2301 8.23699 22.2301 7.81345 21.9687 7.55206L14.8973 0.480302Z" fill="#25C0A4"/>
</svg>
