<svg width="24" height="24" viewBox="0 0 24 24" fill="none" xmlns="http://www.w3.org/2000/svg">
<g clip-path="url(#clip0_108_2671)">
<path d="M20.5226 15.6923C20.6699 15.5445 20.7438 15.3522 20.7438 15.159C20.7438 14.9659 20.6699 14.7732 20.5226 14.6258C20.2282 14.3314 19.7508 14.3314 19.4564 14.6258L12.7792 21.3027L12.7792 0.759798C12.7792 0.343172 12.4417 0.00567206 12.0254 0.00567207C11.6092 0.00567209 11.2713 0.342798 11.2713 0.759798L11.2713 21.3027L4.59369 14.6258C4.29931 14.3314 3.82194 14.3314 3.52756 14.6258C3.23319 14.9202 3.23281 15.3975 3.52756 15.6923L11.4922 23.6562C11.7869 23.9505 12.2639 23.9505 12.5583 23.6562L20.5226 15.6923Z" fill="#6987DF"/>
</g>
<defs>
<clipPath id="clip0_108_2671">
<rect width="24" height="24" fill="white" transform="translate(0 24) rotate(-90)"/>
</clipPath>
</defs>
</svg>
