<?xml version="1.0" encoding="utf-8"?><svg xmlns="http://www.w3.org/2000/svg" xmlns:xlink="http://www.w3.org/1999/xlink"><symbol viewBox="0 0 24 24" id="acc" xmlns="http://www.w3.org/2000/svg"><g clip-path="url(#aclip0_108_2671)"><path d="M20.523 15.692a.753.753 0 000-1.066.754.754 0 00-1.067 0l-6.677 6.677V.76a.754.754 0 10-1.508 0v20.543l-6.677-6.677a.754.754 0 10-1.066 1.066l7.964 7.964a.754.754 0 001.066 0l7.965-7.964z"/></g><defs><clipPath id="aclip0_108_2671"><path transform="rotate(-90 12 12)" d="M0 0h24v24H0z"/></clipPath></defs></symbol><symbol viewBox="0 0 15 15" id="close" xmlns="http://www.w3.org/2000/svg"><path d="M1.49 1.49l12.02 12.02m0-12.02L1.49 13.51"/></symbol><symbol viewBox="0 0 12 8" id="down" xmlns="http://www.w3.org/2000/svg"><path d="M1 1.5l5 5 5-5"/></symbol><symbol viewBox="0 0 22 16" id="left" xmlns="http://www.w3.org/2000/svg"><path d="M7.77 15.616a.668.668 0 00.946 0 .67.67 0 000-.947L2.788 8.74h18.24a.67.67 0 100-1.339H2.789l5.928-5.93A.67.67 0 107.77.526L.7 7.597a.67.67 0 000 .947l7.07 7.072z"/></symbol><symbol viewBox="0 0 23 16" id="right" xmlns="http://www.w3.org/2000/svg"><path d="M14.897.48a.668.668 0 00-.947 0 .67.67 0 000 .947l5.929 5.929H1.639a.67.67 0 100 1.339h18.24l-5.929 5.93a.67.67 0 10.947.946l7.072-7.072a.67.67 0 000-.947L14.897.48z"/></symbol><symbol viewBox="0 0 19 17" id="tg" xmlns="http://www.w3.org/2000/svg"><path d="M12.125 6.75l-3.5 3.5 5.25 5.25 3.5-14-15.75 6.125 3.5 1.75 1.75 5.25 2.625-3.5"/></symbol></svg>