<svg width="77" height="99" viewBox="0 0 77 99" fill="none" xmlns="http://www.w3.org/2000/svg">
<path d="M76.2431 38.6285C76.2431 17.6428 59.3431 0.742798 38.3574 0.742798C17.3717 0.742798 0.47168 17.6428 0.47168 38.6285C0.47168 59.6142 38.3574 98.7999 38.3574 98.7999C38.3574 98.7999 76.2431 59.6142 76.2431 38.6285ZM20.7145 37.8857C20.7145 28.2285 28.7003 20.2428 38.3574 20.2428C48.0145 20.2428 56.0002 28.0428 56.0002 37.8857C56.0002 47.5428 48.2002 55.5285 38.3574 55.5285C28.7003 55.5285 20.7145 47.5428 20.7145 37.8857Z" fill="url(#paint0_linear_207_7)"/>
<circle cx="37.5" cy="38.5" r="23.5" fill="white"/>
<path d="M30.326 34.2V44H28.058V36.02H26.098V34.2H30.326ZM41.0024 41.942H39.4064V44H37.1944V41.942H31.9164V40.416L36.5364 34.2H38.9164L34.6324 40.094H37.2644V38.26H39.4064V40.094H41.0024V41.942ZM46.3988 37.854C47.0241 37.854 47.5934 37.98 48.1068 38.232C48.6201 38.484 49.0261 38.8433 49.3248 39.31C49.6234 39.7673 49.7728 40.2993 49.7728 40.906C49.7728 41.5593 49.6094 42.1333 49.2828 42.628C48.9561 43.1227 48.5081 43.5053 47.9388 43.776C47.3788 44.0373 46.7534 44.168 46.0628 44.168C44.6908 44.168 43.6174 43.748 42.8428 42.908C42.0681 42.068 41.6808 40.8687 41.6808 39.31C41.6808 38.1993 41.8908 37.2473 42.3108 36.454C42.7308 35.6607 43.3141 35.0587 44.0608 34.648C44.8168 34.2373 45.6894 34.032 46.6788 34.032C47.2014 34.032 47.7008 34.0927 48.1768 34.214C48.6621 34.326 49.0728 34.4893 49.4088 34.704L48.5688 36.37C48.0834 36.0433 47.4721 35.88 46.7348 35.88C45.9041 35.88 45.2461 36.1227 44.7608 36.608C44.2754 37.0933 44.0141 37.798 43.9768 38.722C44.5554 38.1433 45.3628 37.854 46.3988 37.854ZM45.9368 42.474C46.4221 42.474 46.8141 42.3433 47.1128 42.082C47.4208 41.8207 47.5748 41.466 47.5748 41.018C47.5748 40.57 47.4208 40.2153 47.1128 39.954C46.8141 39.6833 46.4128 39.548 45.9088 39.548C45.4141 39.548 45.0081 39.688 44.6908 39.968C44.3734 40.2387 44.2148 40.5887 44.2148 41.018C44.2148 41.4473 44.3688 41.7973 44.6768 42.068C44.9848 42.3387 45.4048 42.474 45.9368 42.474Z" fill="black"/>
<defs>
<linearGradient id="paint0_linear_207_7" x1="38.3574" y1="0.742798" x2="38.3574" y2="98.7999" gradientUnits="userSpaceOnUse">
<stop stop-color="#5E93FE"/>
<stop offset="1" stop-color="#8E6CFD"/>
</linearGradient>
</defs>
</svg>
