<svg width="249" height="54" viewBox="0 0 249 54" fill="none" xmlns="http://www.w3.org/2000/svg">
<g opacity="0.3">
<path fill-rule="evenodd" clip-rule="evenodd" d="M96.4563 18.2232H94.7524L93.7345 13.0228L91.7356 18.3484H91.116L89.1024 13.0228L88.0329 18.2232H86.3438L88.3353 8.56641H89.2647L91.4185 15.0706L93.5059 8.56641H94.4353L96.4563 18.2232Z" fill="#2B2D41"/>
<path fill-rule="evenodd" clip-rule="evenodd" d="M105.492 18.2236H103.729V11.7268L98.5511 18.3709H97.8062V8.56679H99.5616V15.0636L104.747 8.41211H105.492V18.2236Z" fill="#2B2D41"/>
<path fill-rule="evenodd" clip-rule="evenodd" d="M113.237 18.2232V13.8773H109.291V18.2232H107.535V8.56641H109.291V12.3452H113.237V8.56641H114.97V18.2232H113.237Z" fill="#2B2D41"/>
<path fill-rule="evenodd" clip-rule="evenodd" d="M124.699 18.2236H122.944V11.7268L117.758 18.3709H117.013V8.56679H118.776V15.0636L123.954 8.41211H124.699V18.2236Z" fill="#2B2D41"/>
<path fill-rule="evenodd" clip-rule="evenodd" d="M133.514 9.08236L132.776 10.4966C132.248 10.0612 131.57 9.84964 130.888 9.90735C130.483 9.89616 130.081 9.98676 129.72 10.1708C129.36 10.3548 129.051 10.6264 128.822 10.9607C128.309 11.7037 128.051 12.5926 128.085 13.4946C128.052 14.362 128.312 15.2153 128.822 15.918C129.05 16.2236 129.349 16.4686 129.694 16.6317C130.039 16.7948 130.418 16.8709 130.799 16.8535C131.218 16.8787 131.637 16.8045 132.022 16.6367C132.406 16.469 132.746 16.2126 133.012 15.8885L133.845 17.2807C133.421 17.6703 132.922 17.9692 132.377 18.1592C131.833 18.3492 131.256 18.4262 130.681 18.3856C130.077 18.4217 129.472 18.3205 128.912 18.0895C128.353 17.8586 127.853 17.504 127.45 17.0524C126.64 16.0239 126.233 14.7351 126.307 13.4283C126.269 12.118 126.719 10.8401 127.568 9.84108C127.97 9.36498 128.473 8.98526 129.041 8.7302C129.609 8.47515 130.228 8.35133 130.851 8.36788C131.789 8.33967 132.715 8.58816 133.514 9.08236Z" fill="#2B2D41"/>
<path fill-rule="evenodd" clip-rule="evenodd" d="M139.51 10.0764V18.2232H137.755V10.0764H134.605V8.56641H142.815V10.0764H139.51Z" fill="#2B2D41"/>
<path fill-rule="evenodd" clip-rule="evenodd" d="M145.986 10.0764V12.3452H149.269V13.8036H145.986V16.6984H150.471V18.2232H144.231V8.56641H150.552V10.0764H145.986Z" fill="#2B2D41"/>
<path fill-rule="evenodd" clip-rule="evenodd" d="M153.967 10.0473V13.1411C154.267 13.1705 154.513 13.1852 154.705 13.1852C155.316 13.2309 155.927 13.095 156.46 12.7948C156.65 12.6442 156.8 12.4491 156.897 12.2269C156.993 12.0046 157.033 11.762 157.014 11.5205C157.014 10.5188 156.187 10.0473 154.535 10.0473C154.356 10.0367 154.176 10.0367 153.997 10.0473H153.967ZM153.967 14.6658V18.2236H152.212V8.56676L154.277 8.49312C155.459 8.42369 156.637 8.67841 157.685 9.22972C158.051 9.46429 158.347 9.79372 158.54 10.1829C158.734 10.572 158.818 11.0063 158.784 11.4395C158.784 13.6542 157.446 14.7616 154.771 14.7616C154.565 14.7468 154.299 14.6953 153.967 14.6658Z" fill="#2B2D41"/>
<path fill-rule="evenodd" clip-rule="evenodd" d="M167.156 9.08228L166.418 10.4965C165.89 10.0604 165.212 9.84875 164.53 9.90726C164.125 9.89742 163.724 9.98859 163.363 10.1725C163.003 10.3564 162.694 10.6273 162.464 10.9606C161.951 11.7037 161.693 12.5925 161.727 13.4945C161.698 14.3615 161.957 15.2137 162.464 15.9179C162.693 16.2241 162.994 16.4694 163.34 16.6325C163.686 16.7956 164.066 16.8714 164.449 16.8534C164.868 16.8792 165.287 16.8052 165.672 16.6374C166.056 16.4697 166.396 16.2129 166.661 15.8884L167.495 17.2806C167.071 17.6702 166.571 17.9692 166.027 18.1591C165.483 18.3491 164.906 18.4262 164.331 18.3855C163.726 18.4216 163.121 18.3204 162.562 18.0895C162.002 17.8585 161.502 17.5039 161.1 17.0523C160.289 16.0238 159.883 14.735 159.957 13.4282C159.919 12.1179 160.368 10.84 161.218 9.841C161.619 9.36531 162.123 8.9859 162.691 8.73088C163.259 8.47587 163.877 8.35179 164.5 8.3678C165.436 8.34017 166.36 8.58867 167.156 9.08228V9.08228Z" fill="#2B2D41"/>
<path fill-rule="evenodd" clip-rule="evenodd" d="M173.145 10.0764V18.2232H171.382V10.0764H168.24V8.56641H176.442V10.0764H173.145Z" fill="#2B2D41"/>
<path fill-rule="evenodd" clip-rule="evenodd" d="M179.614 13.5901V16.787C179.968 16.787 180.263 16.8312 180.484 16.8312C181.063 16.8676 181.641 16.7399 182.151 16.4629C182.349 16.3089 182.505 16.107 182.603 15.8762C182.701 15.6455 182.738 15.3936 182.712 15.1443C182.731 14.9219 182.697 14.6981 182.614 14.4908C182.531 14.2836 182.4 14.0987 182.232 13.9511C181.707 13.6487 181.102 13.515 180.499 13.5681C180.179 13.5681 179.884 13.5681 179.614 13.5681V13.5901ZM179.614 9.94397V12.2495C179.968 12.2495 180.255 12.2495 180.469 12.2495C181.62 12.2495 182.195 11.8297 182.195 10.99C182.195 10.2534 181.672 9.87033 180.624 9.87033C180.351 9.87033 180.012 9.87033 179.614 9.91452V9.94397ZM180.882 18.2233H177.851V8.56653C179.415 8.50024 180.344 8.4634 180.661 8.4634C181.514 8.41719 182.359 8.64431 183.073 9.11161C183.36 9.32296 183.59 9.60157 183.743 9.92275C183.896 10.2439 183.967 10.5978 183.951 10.9531C183.944 11.3449 183.821 11.726 183.598 12.0483C183.375 12.3707 183.061 12.6201 182.697 12.7652C183.259 12.9158 183.751 13.2569 184.088 13.7299C184.426 14.2029 184.589 14.7784 184.548 15.358C184.562 15.7639 184.476 16.1671 184.297 16.5319C184.119 16.8967 183.853 17.212 183.523 17.4499C182.753 17.9936 181.824 18.2658 180.882 18.2233V18.2233Z" fill="#2B2D41"/>
<path fill-rule="evenodd" clip-rule="evenodd" d="M187.484 13.3102C187.424 14.2331 187.631 15.1538 188.081 15.9619C188.261 16.2477 188.514 16.4808 188.813 16.6374C189.112 16.7939 189.448 16.8684 189.785 16.8532C190.168 16.8762 190.55 16.8073 190.901 16.6522C191.251 16.4971 191.559 16.2604 191.799 15.9619C192.312 15.1767 192.556 14.2458 192.492 13.3102C192.492 11.0414 191.637 9.90708 189.925 9.90708C189.569 9.88955 189.214 9.96531 188.896 10.1268C188.577 10.2883 188.307 10.5299 188.111 10.8278C187.655 11.5729 187.437 12.4384 187.484 13.3102V13.3102ZM185.655 13.3102C185.618 12.0454 186.031 10.8085 186.82 9.81869C187.188 9.35292 187.662 8.98066 188.201 8.73232C188.741 8.48398 189.332 8.36658 189.925 8.38969C190.529 8.35122 191.133 8.44613 191.695 8.66767C192.257 8.88921 192.764 9.23193 193.178 9.67137C193.995 10.7018 194.4 11.9986 194.314 13.3102C194.391 14.6527 193.971 15.9766 193.134 17.03C192.712 17.4903 192.192 17.8508 191.613 18.0852C191.034 18.3197 190.409 18.4222 189.785 18.3853C189.201 18.4173 188.617 18.3096 188.082 18.0714C187.547 17.8331 187.076 17.4711 186.709 17.0153C185.955 15.9316 185.584 14.6279 185.655 13.3102Z" fill="#2B2D41"/>
<path fill-rule="evenodd" clip-rule="evenodd" d="M86.661 22.8491C87.6118 22.321 88.6859 22.0541 89.7737 22.0757C90.3634 22.0445 90.9525 22.1484 91.4958 22.3795C92.0392 22.6106 92.5224 22.9627 92.9085 23.409C93.699 24.4522 94.0936 25.7415 94.0223 27.0478C94.0956 28.3872 93.6552 29.7042 92.7905 30.7308C92.3612 31.1884 91.8374 31.5473 91.2553 31.7826C90.6732 32.018 90.0469 32.124 89.4197 32.0934C88.3375 32.1164 87.2734 31.8135 86.366 31.2243L87.1036 29.7511C87.7392 30.2895 88.542 30.5914 89.3754 30.6055C89.7428 30.6292 90.111 30.5759 90.4565 30.449C90.802 30.3221 91.1172 30.1246 91.3817 29.8689C91.9097 29.2523 92.2046 28.4704 92.2152 27.6592H88.5198V26.2449H92.2078C92.1601 25.535 91.8773 24.8613 91.4038 24.3297C91.181 24.1022 90.913 23.9238 90.617 23.8058C90.321 23.6878 90.0036 23.633 89.6852 23.6447C88.87 23.6509 88.0767 23.9081 87.4134 24.3813L86.661 22.8491Z" fill="#2B2D41"/>
<path fill-rule="evenodd" clip-rule="evenodd" d="M102.822 31.9167C102.629 31.9444 102.434 31.9567 102.239 31.9535C101.734 31.9891 101.234 31.8341 100.838 31.519C100.473 31.1267 100.243 30.6288 100.181 30.0973C100.105 29.351 99.7863 28.6499 99.274 28.1012C98.7497 27.6682 98.0793 27.4521 97.4005 27.4971H97.3193V31.8725H95.5786V22.2157H97.3193V26.0387H97.4595C98.1087 26.0752 98.7517 25.8965 99.2888 25.5304C99.7587 25.1375 100.064 24.583 100.144 23.9762C100.203 23.4617 100.411 22.9753 100.742 22.5767C100.922 22.419 101.133 22.2998 101.362 22.2264C101.59 22.1529 101.831 22.1267 102.07 22.1494C102.278 22.1364 102.488 22.1364 102.696 22.1494V23.6742H102.401C102.324 23.6658 102.246 23.6739 102.172 23.6981C102.099 23.7222 102.031 23.7618 101.974 23.8141C101.849 24.0108 101.769 24.2319 101.738 24.4624C101.628 25.0197 101.356 25.5322 100.956 25.9356C100.541 26.3531 100.013 26.6399 99.4363 26.7605C100.032 26.9126 100.57 27.2352 100.985 27.6887C101.417 28.2189 101.7 28.8546 101.804 29.5302C101.836 29.7937 101.929 30.0461 102.077 30.2668C102.143 30.3222 102.219 30.3638 102.302 30.3891C102.384 30.4144 102.471 30.4229 102.556 30.4141C102.644 30.4257 102.734 30.4257 102.822 30.4141V31.9167Z" fill="#2B2D41"/>
<path fill-rule="evenodd" clip-rule="evenodd" d="M105.802 26.9594C105.742 27.8837 105.947 28.8058 106.392 29.6185C106.573 29.9044 106.827 30.1373 107.128 30.2938C107.428 30.4503 107.765 30.5248 108.103 30.5098C108.486 30.532 108.869 30.4619 109.22 30.3055C109.57 30.1491 109.878 29.911 110.117 29.6111C110.63 28.8259 110.874 27.8951 110.81 26.9594C110.81 24.6956 109.955 23.5637 108.243 23.5637C107.887 23.5461 107.532 23.6219 107.214 23.7834C106.895 23.9449 106.625 24.1865 106.429 24.4844C105.974 25.2272 105.756 26.0901 105.802 26.9594V26.9594ZM103.973 26.9594C103.934 25.6979 104.344 24.4635 105.131 23.4753C105.496 23.0022 105.969 22.6221 106.51 22.3661C107.051 22.1101 107.645 21.9853 108.243 22.0021C108.846 21.9646 109.45 22.06 110.012 22.2815C110.575 22.503 111.081 22.8452 111.496 23.2838C112.313 24.3143 112.718 25.611 112.632 26.9226C112.701 28.2528 112.281 29.5622 111.452 30.6056C111.03 31.0668 110.511 31.4284 109.931 31.6641C109.352 31.8998 108.728 32.0037 108.103 31.9683C107.518 32.0045 106.932 31.8988 106.397 31.6603C105.861 31.4217 105.391 31.0573 105.027 30.5982C104.302 29.5276 103.945 28.2505 104.009 26.9594H103.973Z" fill="#2B2D41"/>
<path fill-rule="evenodd" clip-rule="evenodd" d="M119.897 31.8726V27.5267H115.951V31.8726H114.196V22.2158H115.951V25.9946H119.897V22.2158H121.631V31.8726H119.897Z" fill="#2B2D41"/>
<path fill-rule="evenodd" clip-rule="evenodd" d="M125.024 26.9593C124.962 27.8847 125.17 28.808 125.621 29.6184C125.801 29.9037 126.054 30.1363 126.353 30.2928C126.652 30.4493 126.988 30.5242 127.325 30.5097C127.708 30.5319 128.091 30.4618 128.441 30.3054C128.792 30.149 129.1 29.9109 129.339 29.6111C129.852 28.8258 130.095 27.895 130.032 26.9593C130.032 24.6955 129.176 23.5636 127.465 23.5636C127.109 23.5461 126.754 23.6218 126.435 23.7833C126.117 23.9448 125.847 24.1864 125.651 24.4843C125.196 25.2271 124.978 26.09 125.024 26.9593V26.9593ZM123.194 26.9593C123.159 25.697 123.572 24.4627 124.36 23.4752C124.724 23.0018 125.195 22.6214 125.735 22.3653C126.275 22.1092 126.868 21.9847 127.465 22.002C128.068 21.9635 128.673 22.0585 129.235 22.28C129.797 22.5016 130.304 22.8443 130.718 23.2837C131.535 24.3142 131.94 25.6109 131.854 26.9225C131.922 28.2527 131.503 29.5621 130.674 30.6055C130.253 31.0675 129.733 31.4297 129.154 31.6655C128.574 31.9013 127.95 32.0047 127.325 31.9682C126.74 32.0001 126.156 31.8925 125.621 31.6542C125.086 31.416 124.616 31.054 124.249 30.5981C123.508 29.533 123.135 28.2554 123.187 26.9593H123.194Z" fill="#2B2D41"/>
<path fill-rule="evenodd" clip-rule="evenodd" d="M142.852 31.8726H141.14L140.122 26.6796L138.124 32.0052H137.504L135.49 26.6796L134.428 31.8726H132.732L134.731 22.2158H135.653L137.806 28.7273L139.901 22.2158H140.823L142.852 31.8726Z" fill="#2B2D41"/>
<path fill-rule="evenodd" clip-rule="evenodd" d="M151.88 31.8725H150.124V25.3757L144.939 32.0272H144.194V22.2157H145.957V28.7125L151.135 22.0684H151.88V31.8725Z" fill="#2B2D41"/>
<path fill-rule="evenodd" clip-rule="evenodd" d="M161.166 31.9167C160.973 31.9446 160.778 31.9569 160.584 31.9535C160.081 31.9895 159.583 31.8342 159.189 31.519C158.822 31.1288 158.592 30.6298 158.533 30.0973C158.451 29.3511 158.13 28.651 157.618 28.1012C157.097 27.668 156.429 27.4517 155.752 27.4971H155.642V31.8725H153.901V22.2157H155.642V26.0387H155.782C156.431 26.0752 157.074 25.8965 157.611 25.5304C158.084 25.1399 158.39 24.5841 158.467 23.9762C158.529 23.4625 158.736 22.9771 159.064 22.5767C159.245 22.419 159.456 22.2998 159.684 22.2264C159.912 22.1529 160.153 22.1267 160.392 22.1494C160.601 22.1364 160.81 22.1364 161.019 22.1494V23.6742C160.921 23.6672 160.822 23.6672 160.724 23.6742C160.647 23.6658 160.568 23.6739 160.495 23.6981C160.421 23.7222 160.353 23.7618 160.296 23.8141C160.172 24.0102 160.094 24.2318 160.067 24.4624C159.955 25.0202 159.68 25.5326 159.278 25.9356C158.877 26.3484 158.365 26.6351 157.803 26.7605C158.397 26.9162 158.935 27.2382 159.352 27.6887C159.778 28.2223 160.06 28.8564 160.171 29.5302C160.197 29.7937 160.288 30.0467 160.436 30.2668C160.503 30.3221 160.581 30.3635 160.665 30.3888C160.748 30.4141 160.836 30.4227 160.923 30.4141C161.009 30.4254 161.095 30.4254 161.181 30.4141L161.166 31.9167Z" fill="#2B2D41"/>
<path fill-rule="evenodd" clip-rule="evenodd" d="M170.482 31.8725H168.727V25.3757L163.541 32.0272H162.796V22.2157H164.552V28.7125L169.737 22.0684H170.482V31.8725Z" fill="#2B2D41"/>
<path fill-rule="evenodd" clip-rule="evenodd" d="M94.2731 45.566C94.0808 45.6006 93.8856 45.6154 93.6904 45.6102C93.1852 45.6458 92.685 45.4907 92.2889 45.1756C91.9213 44.7826 91.691 44.2812 91.6324 43.7466C91.5494 43.0027 91.2287 42.3054 90.7178 41.7578C90.1973 41.3226 89.5292 41.1038 88.8517 41.1464H88.7705V45.5291H87.0446V35.8723H88.7927V39.6953H88.9254C89.5771 39.7334 90.223 39.5547 90.7621 39.187C91.2303 38.7906 91.5329 38.2335 91.6103 37.6255C91.6772 37.1153 91.884 36.6335 92.2078 36.2333C92.3889 36.0737 92.6007 35.9529 92.8303 35.8781C93.0599 35.8034 93.3024 35.7764 93.5428 35.7987C93.7491 35.7852 93.9561 35.7852 94.1624 35.7987V37.3235C94.0668 37.3128 93.9704 37.3128 93.8748 37.3235C93.7965 37.315 93.7172 37.323 93.6422 37.3471C93.5673 37.3712 93.4982 37.4109 93.4396 37.4634C93.3143 37.6563 93.236 37.8758 93.2109 38.1043C93.0927 38.6678 92.8117 39.1844 92.4027 39.5902C91.9937 39.996 91.4746 40.2733 90.9096 40.3877C91.5058 40.543 92.0439 40.8681 92.4586 41.3232C92.8861 41.8533 93.1682 42.4854 93.2773 43.1573C93.3093 43.4196 93.4001 43.6714 93.5428 43.8939C93.6806 44.0023 93.8553 44.0525 94.0297 44.0339C94.118 44.0418 94.2069 44.0418 94.2952 44.0339L94.2731 45.566Z" fill="#2B2D41"/>
<path fill-rule="evenodd" clip-rule="evenodd" d="M97.6513 37.3602V40.4465C97.9561 40.476 98.202 40.4907 98.3889 40.4907C98.9987 40.5335 99.608 40.4005 100.144 40.1077C100.335 39.9564 100.486 39.7601 100.583 39.5365C100.679 39.3128 100.719 39.0687 100.698 38.826C100.698 37.8316 99.8714 37.3528 98.2192 37.3528C98.04 37.3374 97.8599 37.3374 97.6808 37.3528L97.6513 37.3602ZM97.6513 41.9713V45.529H95.8958V35.8723L97.9537 35.7986C99.1346 35.7173 100.315 35.9592 101.369 36.4984C101.734 36.7341 102.029 37.0637 102.222 37.4526C102.415 37.8415 102.5 38.2752 102.468 38.7082C102.468 40.918 101.133 42.0376 98.4479 42.0376C98.1818 42.0396 97.9159 42.0273 97.6513 42.0008V41.9713Z" fill="#2B2D41"/>
<path fill-rule="evenodd" clip-rule="evenodd" d="M107.432 38.6936L106.222 42.2587H108.605L107.417 38.6936H107.432ZM109.873 45.5292L109.136 43.5698H105.735L105.064 45.5292H103.095L107.056 35.7324H107.793L111.776 45.5292H109.873Z" fill="#2B2D41"/>
<path fill-rule="evenodd" clip-rule="evenodd" d="M119.669 36.3878L118.931 37.8021C118.402 37.3685 117.724 37.1596 117.043 37.2202C116.639 37.2088 116.238 37.2986 115.877 37.4813C115.516 37.6639 115.207 37.9337 114.977 38.2661C114.465 39.0096 114.207 39.8982 114.24 40.8C114.211 41.667 114.47 42.5192 114.977 43.2234C115.206 43.5304 115.506 43.7769 115.852 43.9412C116.198 44.1056 116.579 44.1828 116.962 44.1663C117.381 44.1906 117.801 44.1152 118.185 43.9462C118.57 43.7772 118.909 43.5193 119.174 43.194L120.008 44.5861C119.584 44.9757 119.084 45.2746 118.54 45.4646C117.996 45.6546 117.419 45.7317 116.844 45.691C116.239 45.7271 115.635 45.6259 115.075 45.395C114.515 45.1641 114.015 44.8094 113.613 44.3578C112.805 43.3277 112.399 42.0401 112.47 40.7337C112.432 39.4257 112.882 38.1502 113.731 37.1538C114.132 36.6773 114.635 36.2974 115.203 36.0423C115.772 35.7872 116.39 35.6636 117.013 35.6806C117.949 35.6508 118.872 35.8968 119.669 36.3878V36.3878Z" fill="#2B2D41"/>
<path fill-rule="evenodd" clip-rule="evenodd" d="M127.067 45.5294V41.1834H123.128V45.5294H121.365V35.8726H123.128V39.6513H127.067V35.8726H128.8V45.5294H127.067Z" fill="#2B2D41"/>
<path fill-rule="evenodd" clip-rule="evenodd" d="M132.193 40.6161C132.133 41.539 132.34 42.4597 132.791 43.2679C132.971 43.5534 133.223 43.7867 133.522 43.9444C133.821 44.1021 134.157 44.1787 134.494 44.1666C134.878 44.1887 135.261 44.1186 135.611 43.9622C135.961 43.8058 136.269 43.5677 136.508 43.2679C137.025 42.4842 137.269 41.5522 137.202 40.6161C137.202 38.3474 136.346 37.2204 134.635 37.2204C134.279 37.2036 133.925 37.2788 133.607 37.4388C133.289 37.5989 133.018 37.8383 132.82 38.1338C132.368 38.8803 132.15 39.7448 132.193 40.6161V40.6161ZM130.371 40.6161C130.334 39.3526 130.744 38.1164 131.529 37.1247C131.899 36.6607 132.373 36.2897 132.912 36.0415C133.451 35.7934 134.041 35.6749 134.635 35.6957C135.239 35.6576 135.844 35.7527 136.408 35.9742C136.971 36.1957 137.479 36.5381 137.895 36.9773C138.709 38.0095 139.113 39.305 139.031 40.6161C139.097 41.9473 138.675 43.2568 137.843 44.2991C137.421 44.7598 136.902 45.1206 136.322 45.3551C135.743 45.5896 135.119 45.6919 134.494 45.6545C133.911 45.691 133.327 45.5862 132.793 45.3489C132.259 45.1116 131.79 44.749 131.426 44.2918C130.675 43.2177 130.304 41.9244 130.371 40.6161Z" fill="#2B2D41"/>
<path fill-rule="evenodd" clip-rule="evenodd" d="M146.569 44.1151V37.2795H144.873C144.651 38.6102 144.306 39.9173 143.84 41.1834C143.481 42.2334 142.972 43.2259 142.328 44.1298L146.569 44.1151ZM149.365 48.299H147.816V45.5293H141.332V48.299H139.783V44.1151H140.454C141.115 43.2318 141.668 42.2722 142.099 41.2571C142.809 39.5228 143.331 37.7177 143.655 35.8726H148.266V44.1151H149.372L149.365 48.299Z" fill="#2B2D41"/>
<path fill-rule="evenodd" clip-rule="evenodd" d="M154.063 38.6936L152.876 42.2587H155.258L154.063 38.6936ZM156.505 45.5292L155.767 43.5698H152.374L151.695 45.5292H149.741L153.709 35.7324H154.447L158.437 45.5292H156.505Z" fill="#2B2D41"/>
<path fill-rule="evenodd" clip-rule="evenodd" d="M161.277 37.3603V40.4467C161.579 40.4467 161.815 40.4909 161.978 40.4909C162.59 40.5346 163.202 40.4016 163.741 40.1078C163.932 39.9565 164.082 39.7602 164.179 39.5366C164.275 39.3129 164.315 39.0688 164.294 38.8261C164.294 37.8317 163.468 37.3529 161.808 37.3529C161.631 37.3378 161.454 37.3378 161.277 37.3529V37.3603ZM161.277 41.9714V45.5292H159.514V35.8724L161.579 35.7987C162.76 35.7185 163.941 35.9604 164.994 36.4985C165.358 36.7354 165.652 37.0652 165.846 37.4538C166.039 37.8424 166.124 38.2755 166.093 38.7083C166.093 40.9181 164.758 42.0377 162.074 42.0377C161.808 42.0397 161.542 42.0274 161.277 42.0009V41.9714Z" fill="#2B2D41"/>
<path fill-rule="evenodd" clip-rule="evenodd" d="M174.465 36.3879L173.728 37.8021C173.198 37.3693 172.521 37.1605 171.839 37.2202C171.435 37.2076 171.034 37.2967 170.673 37.4795C170.312 37.6623 170.003 37.9328 169.774 38.2662C169.262 39.0097 169.003 39.8983 169.036 40.8001C169.004 41.6675 169.264 42.5208 169.774 43.2235C170.001 43.5304 170.3 43.7769 170.645 43.9413C170.989 44.1057 171.369 44.183 171.751 44.1664C172.17 44.1907 172.59 44.1153 172.974 43.9463C173.359 43.7773 173.698 43.5194 173.964 43.194L174.797 44.5862C174.373 44.9758 173.873 45.2747 173.329 45.4647C172.785 45.6547 172.208 45.7318 171.633 45.6911C171.028 45.7272 170.424 45.626 169.864 45.3951C169.305 45.1642 168.805 44.8095 168.402 44.3579C167.591 43.3294 167.185 42.0406 167.259 40.7338C167.221 39.4258 167.671 38.1503 168.52 37.1539C168.92 36.677 169.424 36.2967 169.992 36.0416C170.561 35.7865 171.179 35.6631 171.802 35.6807C172.74 35.6503 173.666 35.8963 174.465 36.3879V36.3879Z" fill="#2B2D41"/>
<path fill-rule="evenodd" clip-rule="evenodd" d="M183.405 45.566C183.213 45.6006 183.017 45.6154 182.822 45.6102C182.317 45.6458 181.817 45.4907 181.421 45.1756C181.053 44.7826 180.823 44.2812 180.764 43.7466C180.68 43.0046 180.362 42.3084 179.857 41.7578C179.333 41.3235 178.663 41.1049 177.984 41.1464H177.902V45.5291H176.154V35.8723H177.902V39.6953H178.035C178.687 39.7334 179.333 39.5547 179.872 39.187C180.342 38.7925 180.645 38.2344 180.72 37.6255C180.787 37.1153 180.994 36.6335 181.318 36.2333C181.499 36.0745 181.711 35.9541 181.94 35.8794C182.17 35.8047 182.412 35.7772 182.653 35.7987C182.859 35.7852 183.066 35.7852 183.272 35.7987V37.3235C183.177 37.3128 183.08 37.3128 182.985 37.3235C182.907 37.3141 182.829 37.3217 182.755 37.3459C182.681 37.3701 182.613 37.4102 182.557 37.4634C182.429 37.6556 182.348 37.8751 182.321 38.1043C182.202 38.6678 181.921 39.1844 181.512 39.5902C181.103 39.996 180.584 40.2733 180.019 40.3877C180.616 40.541 181.155 40.8664 181.568 41.3232C182.002 41.8498 182.284 42.4835 182.387 43.1573C182.423 43.4188 182.513 43.6698 182.653 43.8939C182.79 44.0023 182.965 44.0525 183.139 44.0339C183.228 44.0418 183.317 44.0418 183.405 44.0339V45.566Z" fill="#2B2D41"/>
<path fill-rule="evenodd" clip-rule="evenodd" d="M186.378 40.6161C186.317 41.539 186.525 42.4597 186.975 43.2679C187.155 43.5534 187.408 43.7867 187.707 43.9444C188.006 44.1021 188.341 44.1787 188.679 44.1666C189.062 44.1887 189.445 44.1186 189.795 43.9622C190.146 43.8058 190.453 43.5677 190.692 43.2679C191.209 42.4842 191.453 41.5522 191.386 40.6161C191.386 38.3474 190.53 37.2204 188.819 37.2204C188.463 37.2036 188.109 37.2788 187.791 37.4388C187.474 37.5989 187.202 37.8383 187.004 38.1338C186.552 38.8803 186.334 39.7448 186.378 40.6161V40.6161ZM184.556 40.6161C184.519 39.3526 184.929 38.1164 185.714 37.1247C186.083 36.6607 186.557 36.2897 187.096 36.0415C187.635 35.7934 188.226 35.6749 188.819 35.6957C189.423 35.6576 190.028 35.7527 190.592 35.9742C191.155 36.1957 191.663 36.5381 192.079 36.9773C192.893 38.0095 193.298 39.305 193.215 40.6161C193.281 41.9473 192.859 43.2568 192.028 44.2991C191.606 44.7598 191.086 45.1206 190.507 45.3551C189.927 45.5896 189.303 45.6919 188.679 45.6545C188.095 45.691 187.512 45.5862 186.977 45.3489C186.443 45.1116 185.974 44.749 185.61 44.2918C184.859 43.2177 184.488 41.9244 184.556 40.6161V40.6161Z" fill="#2B2D41"/>
<path fill-rule="evenodd" clip-rule="evenodd" d="M200.938 37.3826H196.549V45.5294H194.771V35.8726H200.938V37.3826Z" fill="#2B2D41"/>
<path fill-rule="evenodd" clip-rule="evenodd" d="M203.741 40.6161C203.68 41.539 203.888 42.4597 204.338 43.2679C204.519 43.5534 204.771 43.7867 205.07 43.9444C205.369 44.1021 205.704 44.1787 206.042 44.1666C206.425 44.1887 206.808 44.1186 207.158 43.9622C207.509 43.8058 207.817 43.5677 208.056 43.2679C208.573 42.4842 208.816 41.5522 208.749 40.6161C208.749 38.3474 207.893 37.2204 206.182 37.2204C205.826 37.2036 205.473 37.2788 205.155 37.4388C204.837 37.5989 204.566 37.8383 204.368 38.1338C203.915 38.8803 203.697 39.7448 203.741 40.6161V40.6161ZM201.919 40.6161C201.882 39.3526 202.292 38.1164 203.077 37.1247C203.447 36.6607 203.92 36.2897 204.459 36.0415C204.999 35.7934 205.589 35.6749 206.182 35.6957C206.786 35.6576 207.392 35.7527 207.955 35.9742C208.518 36.1957 209.026 36.5381 209.442 36.9773C210.256 38.0095 210.661 39.305 210.578 40.6161C210.645 41.9473 210.222 43.2568 209.391 44.2991C208.969 44.7598 208.449 45.1206 207.87 45.3551C207.291 45.5896 206.666 45.6919 206.042 45.6545C205.458 45.691 204.875 45.5862 204.34 45.3489C203.806 45.1116 203.337 44.749 202.974 44.2918C202.223 43.2177 201.851 41.9244 201.919 40.6161Z" fill="#2B2D41"/>
<path fill-rule="evenodd" clip-rule="evenodd" d="M223.553 45.566C223.361 45.6009 223.165 45.6157 222.97 45.6102C222.467 45.6461 221.969 45.4908 221.576 45.1756C221.209 44.7815 220.976 44.2811 220.912 43.7466C220.834 43.0028 220.516 42.3046 220.005 41.7577C219.482 41.3215 218.811 41.1026 218.131 41.1464H218.05V45.5291H216.309V35.8723H218.05V39.6953H218.19C218.84 39.7318 219.483 39.5531 220.02 39.187C220.492 38.7933 220.798 38.2353 220.875 37.6254C220.939 37.1143 221.146 36.6316 221.473 36.2333C221.653 36.0743 221.863 35.9538 222.092 35.879C222.32 35.8043 222.561 35.777 222.8 35.7987C223.009 35.7852 223.219 35.7852 223.427 35.7987V37.3235C223.329 37.3125 223.23 37.3125 223.132 37.3235C223.055 37.3151 222.977 37.3232 222.903 37.3473C222.829 37.3715 222.762 37.411 222.704 37.4634C222.579 37.6563 222.501 37.8757 222.476 38.1043C222.361 38.6611 222.086 39.1727 221.687 39.5774C221.275 39.9939 220.749 40.2785 220.174 40.3951C220.771 40.5504 221.309 40.8754 221.723 41.3306C222.151 41.8607 222.433 42.4928 222.542 43.1647C222.571 43.4279 222.662 43.6804 222.808 43.9013C222.943 44.0092 223.115 44.0595 223.287 44.0412C223.375 44.0492 223.464 44.0492 223.553 44.0412V45.566Z" fill="#2B2D41"/>
<path fill-rule="evenodd" clip-rule="evenodd" d="M226.938 37.3603V40.4467C227.241 40.4467 227.477 40.4909 227.639 40.4909C228.251 40.5346 228.863 40.4016 229.402 40.1078C229.593 39.9565 229.744 39.7602 229.84 39.5366C229.937 39.3129 229.976 39.0688 229.955 38.8261C229.955 37.8317 229.129 37.3529 227.469 37.3529C227.293 37.3378 227.115 37.3378 226.938 37.3529V37.3603ZM226.938 41.9714V45.5292H225.175V35.8724L227.241 35.7987C228.422 35.7185 229.602 35.9604 230.656 36.4985C231.02 36.7354 231.314 37.0652 231.507 37.4538C231.7 37.8424 231.786 38.2755 231.755 38.7083C231.755 40.923 230.415 42.0328 227.735 42.0377C227.469 42.0397 227.203 42.0274 226.938 42.0009V41.9714Z" fill="#2B2D41"/>
<path fill-rule="evenodd" clip-rule="evenodd" d="M236.712 38.6936L235.524 42.2587H237.906L236.712 38.6936ZM239.16 45.5292L238.423 43.5698H235.022L234.344 45.5292H232.352L236.321 35.7324H237.058L241.041 45.5292H239.16Z" fill="#2B2D41"/>
<path fill-rule="evenodd" clip-rule="evenodd" d="M247.267 40.1372V37.1908C246.836 37.1429 246.402 37.1208 245.968 37.1245C245.483 37.1023 245.002 37.2282 244.589 37.4854C244.415 37.5992 244.274 37.7561 244.18 37.9408C244.086 38.1255 244.041 38.3316 244.051 38.5388C244.051 39.5553 244.788 40.0783 246.263 40.1004L247.267 40.1372ZM248.993 45.5291H247.252V41.522H246.839C246.197 41.4792 245.562 41.6732 245.054 42.0671C244.576 42.5313 244.265 43.1396 244.169 43.7981C244.104 44.3172 243.88 44.8035 243.527 45.1903C243.178 45.4893 242.725 45.6399 242.266 45.6101C242.066 45.6169 241.865 45.6021 241.668 45.5659V44.0486C241.757 44.0565 241.845 44.0565 241.934 44.0486C242.023 44.0572 242.113 44.0435 242.195 44.0088C242.277 43.974 242.35 43.9194 242.406 43.8497C242.521 43.652 242.599 43.4347 242.634 43.2088C242.731 42.6934 242.961 42.2122 243.301 41.8129C243.641 41.4136 244.08 41.1101 244.574 40.9327C243.896 40.8332 243.27 40.515 242.789 40.0267C242.454 39.6105 242.281 39.0872 242.303 38.5535C242.299 38.1667 242.384 37.7841 242.55 37.4346C242.716 37.0851 242.959 36.7776 243.261 36.5352C244.089 35.9295 245.107 35.6394 246.131 35.7176C246.972 35.7176 247.93 35.7618 248.993 35.8428V45.5291Z" fill="#2B2D41"/>
</g>
<g opacity="0.3">
<path fill-rule="evenodd" clip-rule="evenodd" d="M40.7653 18.7907C40.7653 19.7047 40.5151 20.5983 40.0463 21.3583C39.5776 22.1183 38.9113 22.7107 38.1317 23.0605C37.3522 23.4103 36.4944 23.5019 35.6669 23.3235C34.8393 23.1452 34.0792 22.705 33.4826 22.0587C32.8859 21.4123 32.4796 20.5888 32.315 19.6923C32.1504 18.7958 32.2349 17.8665 32.5578 17.022C32.8807 16.1775 33.4275 15.4557 34.129 14.9479C34.8306 14.44 35.6554 14.1689 36.4992 14.1689C37.0596 14.1681 37.6147 14.2871 38.1326 14.5191C38.6506 14.7511 39.1212 15.0915 39.5174 15.5208C39.9137 15.9501 40.228 16.4599 40.4421 17.021C40.6562 17.5821 40.766 18.1835 40.7653 18.7907V18.7907Z" fill="#2B2D41"/>
<path fill-rule="evenodd" clip-rule="evenodd" d="M19.9086 32.1422C19.9086 33.0563 19.6584 33.9499 19.1896 34.7099C18.7209 35.4699 18.0546 36.0623 17.2751 36.4121C16.4955 36.7619 15.6377 36.8534 14.8102 36.6751C13.9826 36.4968 13.2225 36.0566 12.6259 35.4103C12.0292 34.7639 11.6229 33.9404 11.4583 33.0439C11.2937 32.1473 11.3782 31.2181 11.7011 30.3736C12.024 29.529 12.5708 28.8072 13.2723 28.2994C13.9739 27.7916 14.7987 27.5205 15.6425 27.5205C16.2029 27.5197 16.758 27.6387 17.2759 27.8706C17.7939 28.1026 18.2645 28.443 18.6608 28.8723C19.0571 29.3017 19.3713 29.8115 19.5854 30.3726C19.7995 30.9337 19.9094 31.535 19.9086 32.1422V32.1422Z" fill="#2B2D41"/>
<path fill-rule="evenodd" clip-rule="evenodd" d="M70.1541 10.562C70.1566 11.4766 69.8808 12.3713 69.3614 13.133C68.8421 13.8947 68.1027 14.489 67.2368 14.8407C66.3708 15.1924 65.4173 15.2857 64.497 15.1087C63.5767 14.9318 62.7309 14.4926 62.0667 13.8468C61.4025 13.2009 60.9498 12.3774 60.7658 11.4806C60.5819 10.5837 60.675 9.65378 61.0334 8.80855C61.3918 7.96332 61.9994 7.24079 62.7792 6.7324C63.5589 6.22401 64.4759 5.95264 65.414 5.95264C66.0356 5.95183 66.6513 6.0704 67.226 6.3016C67.8006 6.53281 68.323 6.87211 68.7631 7.30012C69.2033 7.72814 69.5527 8.23649 69.7913 8.79616C70.03 9.35583 70.1533 9.95586 70.1541 10.562Z" fill="#2B2D41"/>
<path fill-rule="evenodd" clip-rule="evenodd" d="M21.9532 52.169H26.9557C27.1526 52.1751 27.3476 52.1249 27.5213 52.0232C27.6949 51.9214 27.8413 51.7718 27.9458 51.5891L40.6589 26.9005C41.0025 26.2632 40.4725 25.4666 39.6631 25.4666H34.6663C34.4696 25.4623 34.275 25.5127 34.1009 25.613C33.9267 25.7133 33.7787 25.8602 33.6705 26.0401L20.9631 50.7096C20.6196 51.3979 21.1495 52.169 21.9532 52.169Z" fill="#2B2D41"/>
<path fill-rule="evenodd" clip-rule="evenodd" d="M65.2779 17.2507H60.3313C60.1371 17.2435 59.9445 17.2908 59.7727 17.3878C59.6009 17.4849 59.456 17.6283 59.3524 17.8037L46.776 41.6079C46.776 41.6079 46.776 41.6079 46.776 41.6509L44.6626 45.6511C44.3229 46.2655 44.8469 47.0336 45.6416 47.0336H50.5881C50.7823 47.0408 50.9749 46.9935 51.1467 46.8965C51.3185 46.7994 51.4634 46.656 51.567 46.4806L64.1434 22.6764C64.1427 22.6621 64.1427 22.6477 64.1434 22.6334L66.2568 18.6333C66.5965 17.9881 66.0725 17.2507 65.2779 17.2507Z" fill="#2B2D41"/>
<path fill-rule="evenodd" clip-rule="evenodd" d="M47.3058 37.4029L44.41 42.5397C44.3524 42.6484 44.2688 42.7406 44.1668 42.8078C44.0649 42.875 43.9479 42.915 43.8266 42.9242C43.7054 42.9335 43.5838 42.9116 43.4732 42.8605C43.3625 42.8095 43.2662 42.731 43.1933 42.6323L38.0709 36.0198C37.984 35.9044 37.9326 35.7656 37.9228 35.6207C37.9131 35.4758 37.9455 35.3312 38.0161 35.2049L40.9849 29.963C41.0419 29.8535 41.1256 29.7605 41.2279 29.6928C41.3302 29.6252 41.4478 29.5851 41.5696 29.5765C41.6914 29.5678 41.8134 29.5909 41.924 29.6434C42.0346 29.6959 42.1301 29.7762 42.2017 29.8766L47.2571 36.5941C47.3418 36.7095 47.3914 36.8475 47.4001 36.9911C47.4087 37.1347 47.376 37.2778 47.3058 37.4029V37.4029Z" fill="#2B2D41"/>
<path fill-rule="evenodd" clip-rule="evenodd" d="M22.7021 42.6597L20.3447 47.7562C20.299 47.8484 20.2313 47.9255 20.1487 47.9792C20.066 48.0329 19.9716 48.0613 19.8754 48.0613C19.7792 48.0613 19.6848 48.0329 19.6021 47.9792C19.5195 47.9255 19.4518 47.8484 19.4061 47.7562L15.2087 39.6204C15.1698 39.5175 15.1588 39.4046 15.177 39.2951C15.1953 39.1856 15.242 39.0841 15.3117 39.0027C15.3814 38.9213 15.471 38.8634 15.57 38.8359C15.669 38.8084 15.7731 38.8124 15.87 38.8476L22.4087 41.8694C22.4774 41.8978 22.54 41.9414 22.5925 41.9974C22.6449 42.0534 22.6862 42.1206 22.7138 42.1948C22.7413 42.269 22.7545 42.3486 22.7525 42.4286C22.7505 42.5086 22.7333 42.5873 22.7021 42.6597V42.6597Z" fill="#2B2D41"/>
</g>
</svg>
