<svg width="25" height="25" viewBox="0 0 25 25" fill="none" xmlns="http://www.w3.org/2000/svg">
<g clip-path="url(#clip0_108_2657)">
<path d="M8.65385 21.3776C8.80776 21.5311 9.00815 21.6081 9.20932 21.6081C9.41049 21.6081 9.61128 21.5311 9.76479 21.3776C10.0714 21.071 10.0714 20.5737 9.76479 20.267L2.80971 13.3116L24.2085 13.3116C24.6425 13.3116 24.9941 12.96 24.9941 12.5264C24.9941 12.0928 24.6429 11.7409 24.2085 11.7409L2.80972 11.7409L9.76479 4.78501C10.0714 4.47837 10.0714 3.98111 9.76479 3.67446C9.45815 3.36782 8.96089 3.36743 8.65386 3.67446L0.358153 11.9709C0.0515121 12.278 0.051512 12.7749 0.358153 13.0815L8.65385 21.3776Z" fill="white" stroke="white"/>
</g>
<defs>
<clipPath id="clip0_108_2657">
<rect width="25" height="25" fill="white"/>
</clipPath>
</defs>
</svg>
