<svg width="148" height="34" viewBox="0 0 148 34" fill="none" xmlns="http://www.w3.org/2000/svg">
<path fill-rule="evenodd" clip-rule="evenodd" d="M57.3315 11.825H56.3187L55.7137 8.73598L54.5256 11.8994H54.1573L52.9605 8.73598L52.3248 11.825H51.3208L52.5045 6.08887H53.0569L54.3371 9.95234L55.5778 6.08887H56.1302L57.3315 11.825Z" fill="white"/>
<path fill-rule="evenodd" clip-rule="evenodd" d="M62.7021 11.8251H61.6543V7.966L58.5766 11.9126H58.1338V6.08895H59.1772V9.94806L62.2593 5.99707H62.7021V11.8251Z" fill="white"/>
<path fill-rule="evenodd" clip-rule="evenodd" d="M67.3055 11.825V9.24353H64.9599V11.825H63.9165V6.08887H64.9599V8.33345H67.3055V6.08887H68.3357V11.825H67.3055Z" fill="white"/>
<path fill-rule="evenodd" clip-rule="evenodd" d="M74.1186 11.8251H73.0751V7.966L69.9931 11.9126H69.5503V6.08895H70.5981V9.94806L73.6758 5.99707H74.1186V11.8251Z" fill="white"/>
<path fill-rule="evenodd" clip-rule="evenodd" d="M79.3572 6.39443L78.9188 7.2345C78.605 6.97585 78.2021 6.8502 77.7965 6.88448C77.5557 6.87783 77.3172 6.93165 77.1027 7.04097C76.8882 7.15029 76.7047 7.31162 76.5689 7.51016C76.2639 7.95154 76.1101 8.47952 76.1305 9.01529C76.1113 9.53055 76.2656 10.0374 76.5689 10.4548C76.7043 10.6363 76.8822 10.7819 77.087 10.8787C77.2919 10.9756 77.5174 11.0209 77.7439 11.0105C77.9929 11.0255 78.2419 10.9814 78.4706 10.8817C78.6992 10.7821 78.9009 10.6298 79.0591 10.4373L79.5545 11.2643C79.3023 11.4957 79.0054 11.6732 78.682 11.7861C78.3586 11.899 78.0155 11.9447 77.6737 11.9206C77.3145 11.942 76.9551 11.8819 76.6225 11.7447C76.2899 11.6075 75.9928 11.3969 75.7535 11.1286C75.2716 10.5177 75.03 9.75217 75.0739 8.97593C75.0514 8.1976 75.3185 7.43851 75.8236 6.84511C76.062 6.56231 76.3612 6.33675 76.699 6.18525C77.0367 6.03375 77.4044 5.9602 77.7746 5.97003C78.3325 5.95328 78.8829 6.10088 79.3572 6.39443Z" fill="white"/>
<path fill-rule="evenodd" clip-rule="evenodd" d="M82.9218 6.98582V11.825H81.8784V6.98582H80.0063V6.08887H84.8859V6.98582H82.9218Z" fill="white"/>
<path fill-rule="evenodd" clip-rule="evenodd" d="M86.771 6.98582V8.33345H88.7219V9.19978H86.771V10.9193H89.4365V11.825H85.7275V6.08887H89.4848V6.98582H86.771Z" fill="white"/>
<path fill-rule="evenodd" clip-rule="evenodd" d="M91.5146 6.96793V8.80561C91.6929 8.82311 91.839 8.83186 91.953 8.83186C92.3161 8.85897 92.6792 8.77827 92.9965 8.59995C93.1094 8.51049 93.1985 8.39461 93.2558 8.26258C93.3132 8.13055 93.337 7.98644 93.3253 7.84301C93.3253 7.24796 92.8342 6.96793 91.8522 6.96793C91.7456 6.96163 91.6387 6.96163 91.5321 6.96793H91.5146ZM91.5146 9.71132V11.8246H90.4712V6.08847L91.6987 6.04473C92.4013 6.00349 93.1017 6.1548 93.7242 6.48227C93.9419 6.62161 94.1177 6.81729 94.2327 7.04845C94.3477 7.27961 94.3978 7.53759 94.3775 7.79489C94.3775 9.11043 93.5825 9.7682 91.9925 9.7682C91.8697 9.75945 91.7119 9.72882 91.5146 9.71132Z" fill="white"/>
<path fill-rule="evenodd" clip-rule="evenodd" d="M99.3533 6.39438L98.9149 7.23445C98.6013 6.97538 98.1982 6.84967 97.7926 6.88443C97.552 6.87858 97.3137 6.93274 97.0994 7.04199C96.885 7.15124 96.7014 7.31214 96.565 7.51011C96.26 7.95149 96.1062 8.47947 96.1266 9.01524C96.1094 9.53024 96.2636 10.0364 96.565 10.4548C96.7011 10.6366 96.8797 10.7823 97.0853 10.8792C97.2909 10.9761 97.5172 11.0212 97.7444 11.0104C97.9934 11.0258 98.2426 10.9818 98.4713 10.8822C98.6999 10.7825 98.9016 10.63 99.0596 10.4372L99.555 11.2642C99.3028 11.4956 99.0059 11.6732 98.6825 11.7861C98.3591 11.8989 98.016 11.9447 97.6742 11.9205C97.315 11.942 96.9556 11.8818 96.623 11.7447C96.2904 11.6075 95.9932 11.3968 95.754 11.1286C95.2721 10.5176 95.0305 9.75212 95.0744 8.97588C95.0519 8.19755 95.3189 7.43846 95.8241 6.84506C96.0627 6.56251 96.362 6.33714 96.6997 6.18566C97.0374 6.03418 97.4049 5.96047 97.7751 5.96998C98.3315 5.95357 98.8805 6.10118 99.3533 6.39438Z" fill="white"/>
<path fill-rule="evenodd" clip-rule="evenodd" d="M102.914 6.98582V11.825H101.866V6.98582H99.998V6.08887H104.873V6.98582H102.914Z" fill="white"/>
<path fill-rule="evenodd" clip-rule="evenodd" d="M106.758 9.07222V10.9712C106.969 10.9712 107.144 10.9974 107.276 10.9974C107.62 11.019 107.963 10.9432 108.266 10.7786C108.384 10.6872 108.477 10.5672 108.535 10.4302C108.593 10.2931 108.615 10.1435 108.6 9.99542C108.611 9.86327 108.591 9.73032 108.542 9.60723C108.492 9.48414 108.414 9.37432 108.315 9.28661C108.003 9.107 107.643 9.02759 107.284 9.0591C107.094 9.0591 106.919 9.0591 106.758 9.0591V9.07222ZM106.758 6.90639V8.27589C106.969 8.27589 107.14 8.27589 107.267 8.27589C107.951 8.27589 108.293 8.02651 108.293 7.52772C108.293 7.09018 107.981 6.86265 107.359 6.86265C107.197 6.86265 106.995 6.86265 106.758 6.8889V6.90639ZM107.512 11.8243H105.71V6.08819C106.64 6.04881 107.192 6.02693 107.381 6.02693C107.888 5.99948 108.39 6.13439 108.814 6.41197C108.985 6.53751 109.121 6.70301 109.212 6.89378C109.303 7.08456 109.346 7.29475 109.336 7.50582C109.332 7.73855 109.259 7.96489 109.126 8.15638C108.994 8.34788 108.807 8.496 108.591 8.58217C108.925 8.67167 109.217 8.87425 109.418 9.15522C109.619 9.43619 109.715 9.77807 109.691 10.1223C109.7 10.3634 109.648 10.6029 109.542 10.8196C109.436 11.0363 109.278 11.2236 109.082 11.3649C108.624 11.6879 108.072 11.8495 107.512 11.8243Z" fill="white"/>
<path fill-rule="evenodd" clip-rule="evenodd" d="M111.436 8.90623C111.4 9.45444 111.524 10.0013 111.791 10.4814C111.898 10.6511 112.048 10.7896 112.226 10.8826C112.404 10.9756 112.603 11.0198 112.804 11.0108C113.031 11.0245 113.259 10.9835 113.467 10.8914C113.675 10.7993 113.858 10.6587 114.001 10.4814C114.306 10.015 114.451 9.46202 114.413 8.90623C114.413 7.55861 113.904 6.8848 112.887 6.8848C112.675 6.87439 112.464 6.91939 112.275 7.01531C112.086 7.11124 111.925 7.25476 111.809 7.43173C111.538 7.87431 111.408 8.38843 111.436 8.90623ZM110.349 8.90623C110.327 8.15496 110.572 7.42023 111.041 6.8323C111.26 6.55563 111.542 6.33451 111.862 6.18699C112.183 6.03948 112.534 5.96974 112.887 5.98347C113.246 5.96062 113.605 6.01699 113.939 6.14859C114.273 6.28019 114.574 6.48376 114.821 6.74479C115.306 7.35688 115.547 8.12715 115.496 8.90623C115.542 9.70371 115.292 10.4901 114.794 11.1158C114.543 11.3892 114.234 11.6034 113.89 11.7426C113.546 11.8819 113.175 11.9428 112.804 11.9209C112.456 11.9399 112.109 11.8759 111.791 11.7344C111.473 11.5929 111.194 11.3778 110.976 11.1071C110.527 10.4634 110.307 9.68899 110.349 8.90623Z" fill="white"/>
<path fill-rule="evenodd" clip-rule="evenodd" d="M51.5094 14.573C52.0745 14.2593 52.7129 14.1007 53.3595 14.1136C53.71 14.095 54.0601 14.1568 54.3831 14.294C54.706 14.4313 54.9932 14.6405 55.2227 14.9055C55.6926 15.5252 55.9271 16.291 55.8847 17.067C55.9283 17.8626 55.6665 18.6449 55.1526 19.2547C54.8974 19.5265 54.5861 19.7397 54.2401 19.8795C53.8941 20.0193 53.5218 20.0822 53.149 20.0641C52.5058 20.0777 51.8734 19.8978 51.334 19.5478L51.7724 18.6727C52.1502 18.9925 52.6274 19.1719 53.1227 19.1803C53.3411 19.1943 53.5599 19.1626 53.7653 19.0873C53.9707 19.0119 54.158 18.8946 54.3152 18.7427C54.6291 18.3765 54.8044 17.912 54.8106 17.4301H52.6142V16.59H54.8062C54.7779 16.1684 54.6098 15.7682 54.3284 15.4524C54.1959 15.3173 54.0366 15.2113 53.8607 15.1412C53.6848 15.0712 53.4961 15.0386 53.3069 15.0455C52.8224 15.0492 52.3508 15.202 51.9565 15.4831L51.5094 14.573Z" fill="white"/>
<path fill-rule="evenodd" clip-rule="evenodd" d="M61.1148 19.959C61.0001 19.9754 60.8843 19.9827 60.7685 19.9808C60.4682 20.002 60.1709 19.9099 59.9355 19.7227C59.7188 19.4897 59.5822 19.1939 59.5453 18.8782C59.4999 18.4349 59.3105 18.0185 59.006 17.6925C58.6944 17.4353 58.2959 17.3069 57.8925 17.3337H57.8442V19.9327H56.8096V14.1966H57.8442V16.4674H57.9275C58.3134 16.4891 58.6956 16.3829 59.0148 16.1655C59.2941 15.9321 59.4756 15.6027 59.5234 15.2423C59.5583 14.9366 59.6817 14.6478 59.8785 14.411C59.9858 14.3173 60.1111 14.2465 60.2468 14.2029C60.3825 14.1592 60.5257 14.1437 60.6676 14.1572C60.7917 14.1494 60.9162 14.1494 61.0403 14.1572V15.0629H60.8649C60.819 15.0579 60.7726 15.0627 60.7288 15.0771C60.6849 15.0914 60.6446 15.1149 60.6106 15.146C60.5367 15.2628 60.4889 15.3942 60.4703 15.5311C60.4053 15.8621 60.2436 16.1666 60.0056 16.4061C59.7591 16.6542 59.4451 16.8245 59.1025 16.8962C59.4566 16.9865 59.7766 17.1781 60.0231 17.4475C60.2799 17.7624 60.4479 18.14 60.5098 18.5413C60.5286 18.6979 60.5842 18.8478 60.672 18.9789C60.7112 19.0118 60.7566 19.0365 60.8056 19.0516C60.8545 19.0666 60.906 19.0716 60.957 19.0664C61.0093 19.0733 61.0624 19.0733 61.1148 19.0664V19.959Z" fill="white"/>
<path fill-rule="evenodd" clip-rule="evenodd" d="M62.8861 17.0138C62.8508 17.5629 62.9724 18.1106 63.2368 18.5933C63.3447 18.7631 63.4955 18.9015 63.6741 18.9945C63.8527 19.0874 64.0527 19.1317 64.2539 19.1228C64.4817 19.1359 64.7093 19.0943 64.9175 19.0014C65.1258 18.9085 65.3087 18.7671 65.4508 18.589C65.756 18.1225 65.9007 17.5696 65.8629 17.0138C65.8629 15.6691 65.3544 14.9968 64.3372 14.9968C64.1253 14.9863 63.9144 15.0313 63.7252 15.1273C63.536 15.2232 63.3753 15.3667 63.2587 15.5437C62.9886 15.9849 62.8587 16.4975 62.8861 17.0138ZM61.7988 17.0138C61.776 16.2645 62.0199 15.5313 62.4871 14.9442C62.7046 14.6632 62.9856 14.4375 63.3071 14.2854C63.6286 14.1333 63.9816 14.0592 64.3372 14.0692C64.6957 14.0469 65.0547 14.1036 65.3888 14.2351C65.7229 14.3667 66.024 14.57 66.2707 14.8305C66.7563 15.4426 66.9969 16.2129 66.9458 16.992C66.9865 17.7821 66.7371 18.5599 66.2443 19.1797C65.9936 19.4536 65.6849 19.6684 65.3406 19.8084C64.9963 19.9484 64.6251 20.0101 64.2539 19.9891C63.906 20.0106 63.5581 19.9478 63.2398 19.8061C62.9214 19.6644 62.6422 19.448 62.4258 19.1753C61.9945 18.5394 61.7822 17.7807 61.8207 17.0138H61.7988Z" fill="white"/>
<path fill-rule="evenodd" clip-rule="evenodd" d="M71.2644 19.9324V17.351H68.9189V19.9324H67.8755V14.1963H68.9189V16.4409H71.2644V14.1963H72.2947V19.9324H71.2644Z" fill="white"/>
<path fill-rule="evenodd" clip-rule="evenodd" d="M74.3113 17.0141C74.2749 17.5637 74.3982 18.1122 74.6664 18.5936C74.7735 18.763 74.9236 18.9012 75.1015 18.9942C75.2793 19.0871 75.4786 19.1316 75.6791 19.123C75.9069 19.1362 76.1345 19.0945 76.3427 19.0016C76.551 18.9087 76.7339 18.7673 76.876 18.5892C77.1812 18.1228 77.3259 17.5699 77.2881 17.0141C77.2881 15.6694 76.7796 14.997 75.7624 14.997C75.5505 14.9866 75.3396 15.0316 75.1504 15.1275C74.9612 15.2234 74.8005 15.367 74.6839 15.5439C74.4138 15.9851 74.2839 16.4977 74.3113 17.0141ZM73.224 17.0141C73.2028 16.2642 73.4482 15.5311 73.9167 14.9445C74.133 14.6633 74.4131 14.4373 74.734 14.2852C75.0549 14.1331 75.4073 14.0591 75.7624 14.0694C76.121 14.0466 76.4802 14.103 76.8144 14.2346C77.1486 14.3662 77.4495 14.5697 77.6958 14.8308C78.1815 15.4428 78.4221 16.2131 78.371 16.9922C78.4117 17.7823 78.1623 18.5601 77.6695 19.1799C77.4192 19.4544 77.1106 19.6695 76.7662 19.8095C76.4218 19.9496 76.0504 20.011 75.6791 19.9893C75.3315 20.0083 74.9844 19.9444 74.6665 19.8029C74.3486 19.6613 74.069 19.4463 73.851 19.1755C73.4104 18.5428 73.1888 17.7839 73.2196 17.0141H73.224Z" fill="white"/>
<path fill-rule="evenodd" clip-rule="evenodd" d="M84.9076 19.9324H83.8905L83.2855 16.8478L82.0974 20.0112H81.7291L80.5323 16.8478L79.9009 19.9324H78.8926L80.0807 14.1963H80.6287L81.9089 18.0641L83.154 14.1963H83.702L84.9076 19.9324Z" fill="white"/>
<path fill-rule="evenodd" clip-rule="evenodd" d="M90.2738 19.9321H89.2304V16.073L86.1484 20.0239H85.7056V14.1959H86.7534V18.055L89.831 14.1084H90.2738V19.9321Z" fill="white"/>
<path fill-rule="evenodd" clip-rule="evenodd" d="M95.7935 19.959C95.6788 19.9755 95.563 19.9828 95.4471 19.9808C95.1482 20.0022 94.8522 19.91 94.6185 19.7227C94.4001 19.4909 94.2631 19.1945 94.2283 18.8782C94.1796 18.435 93.9889 18.0191 93.6847 17.6925C93.3748 17.4352 92.9777 17.3067 92.5755 17.3337H92.5097V19.9327H91.4751V14.1966H92.5097V16.4674H92.593C92.9789 16.4891 93.3611 16.3829 93.6803 16.1655C93.9613 15.9335 94.1432 15.6034 94.1889 15.2423C94.2258 14.9372 94.349 14.6488 94.544 14.411C94.6513 14.3173 94.7767 14.2465 94.9123 14.2029C95.048 14.1592 95.1912 14.1437 95.3331 14.1572C95.4572 14.1494 95.5817 14.1494 95.7058 14.1572V15.0629C95.6474 15.0587 95.5888 15.0587 95.5304 15.0629C95.4846 15.0579 95.4381 15.0627 95.3943 15.0771C95.3504 15.0914 95.3102 15.1149 95.2761 15.146C95.2023 15.2625 95.1559 15.3941 95.1402 15.5311C95.0734 15.8624 94.9103 16.1668 94.6711 16.4061C94.433 16.6514 94.1282 16.8217 93.7943 16.8962C94.1476 16.9886 94.467 17.1799 94.715 17.4475C94.9684 17.7645 95.136 18.1411 95.2016 18.5413C95.2174 18.6979 95.2716 18.8482 95.3594 18.9789C95.3995 19.0117 95.4457 19.0364 95.4954 19.0514C95.545 19.0664 95.5972 19.0715 95.6488 19.0664C95.6997 19.0731 95.7513 19.0731 95.8022 19.0664L95.7935 19.959Z" fill="white"/>
<path fill-rule="evenodd" clip-rule="evenodd" d="M101.331 19.9321H100.288V16.073L97.2055 20.0239H96.7627V14.1959H97.8061V18.055L100.888 14.1084H101.331V19.9321Z" fill="white"/>
<path fill-rule="evenodd" clip-rule="evenodd" d="M56.0338 28.0666C55.9195 28.0871 55.8035 28.0959 55.6874 28.0928C55.3872 28.114 55.0899 28.0218 54.8544 27.8347C54.6359 27.6012 54.499 27.3034 54.4642 26.9859C54.4149 26.544 54.2243 26.1298 53.9206 25.8045C53.6112 25.546 53.2141 25.416 52.8114 25.4413H52.7632V28.0447H51.7373V22.3085H52.7763V24.5794H52.8553C53.2426 24.602 53.6265 24.4959 53.9469 24.2775C54.2252 24.042 54.4051 23.7111 54.4511 23.3499C54.4908 23.0469 54.6137 22.7607 54.8062 22.5229C54.9138 22.4282 55.0398 22.3564 55.1762 22.312C55.3127 22.2676 55.4568 22.2515 55.5997 22.2648C55.7224 22.2568 55.8454 22.2568 55.968 22.2648V23.1705C55.9112 23.1642 55.8538 23.1642 55.797 23.1705C55.7505 23.1655 55.7034 23.1702 55.6588 23.1846C55.6143 23.1989 55.5732 23.2224 55.5384 23.2537C55.4639 23.3682 55.4174 23.4986 55.4024 23.6343C55.3322 23.969 55.1652 24.2759 54.9221 24.5169C54.679 24.758 54.3704 24.9227 54.0346 24.9907C54.389 25.0829 54.7088 25.276 54.9553 25.5464C55.2094 25.8613 55.3771 26.2367 55.4419 26.6358C55.461 26.7916 55.5149 26.9412 55.5997 27.0734C55.6816 27.1377 55.7855 27.1676 55.8891 27.1565C55.9416 27.1612 55.9944 27.1612 56.0469 27.1565L56.0338 28.0666Z" fill="white"/>
<path fill-rule="evenodd" clip-rule="evenodd" d="M58.0415 23.1916V25.0249C58.2227 25.0424 58.3688 25.0512 58.4799 25.0512C58.8423 25.0765 59.2045 24.9976 59.5233 24.8236C59.6369 24.7337 59.7264 24.6172 59.7838 24.4843C59.8412 24.3515 59.8647 24.2065 59.8521 24.0623C59.8521 23.4716 59.3611 23.1872 58.3791 23.1872C58.2726 23.1781 58.1655 23.1781 58.059 23.1872L58.0415 23.1916ZM58.0415 25.9306V28.0439H56.998V22.3078L58.2212 22.264C58.9231 22.2157 59.625 22.3594 60.2511 22.6797C60.4681 22.8197 60.6433 23.0155 60.7583 23.2465C60.8732 23.4775 60.9237 23.7351 60.9043 23.9923C60.9043 25.3049 60.1108 25.97 58.515 25.97C58.3568 25.9712 58.1988 25.9639 58.0415 25.9481V25.9306Z" fill="white"/>
<path fill-rule="evenodd" clip-rule="evenodd" d="M63.8552 23.9835L63.1362 26.1012H64.5523L63.8464 23.9835H63.8552ZM65.3064 28.0439L64.868 26.88H62.8469L62.4479 28.0439H61.2773L63.6316 22.2246H64.07L66.4375 28.0439H65.3064Z" fill="white"/>
<path fill-rule="evenodd" clip-rule="evenodd" d="M71.1283 22.6148L70.6899 23.4549C70.3756 23.1974 69.9726 23.0733 69.5676 23.1093C69.3273 23.1025 69.0891 23.1559 68.8747 23.2644C68.6603 23.3729 68.4765 23.5331 68.34 23.7306C68.0356 24.1722 67.8818 24.7 67.9016 25.2357C67.8844 25.7507 68.0385 26.2569 68.34 26.6752C68.4758 26.8576 68.6543 27.004 68.8599 27.1016C69.0655 27.1992 69.2919 27.2451 69.5193 27.2353C69.7687 27.2497 70.018 27.205 70.2466 27.1045C70.4753 27.0041 70.6768 26.851 70.8346 26.6577L71.33 27.4847C71.0778 27.7161 70.7809 27.8936 70.4574 28.0065C70.134 28.1193 69.7909 28.1651 69.4492 28.141C69.09 28.1624 68.7305 28.1023 68.3979 27.9651C68.0653 27.828 67.7682 27.6173 67.5289 27.349C67.0489 26.7372 66.8075 25.9723 66.8494 25.1963C66.8271 24.4194 67.0942 23.6617 67.5991 23.0699C67.8373 22.7868 68.1364 22.5611 68.4743 22.4096C68.8121 22.2581 69.1798 22.1847 69.55 22.1948C70.106 22.1771 70.655 22.3232 71.1283 22.6148Z" fill="white"/>
<path fill-rule="evenodd" clip-rule="evenodd" d="M75.5257 28.0447V25.4633H73.1845V28.0447H72.1367V22.3086H73.1845V24.5532H75.5257V22.3086H76.5559V28.0447H75.5257Z" fill="white"/>
<path fill-rule="evenodd" clip-rule="evenodd" d="M78.5729 25.1259C78.537 25.6741 78.6603 26.2209 78.928 26.701C79.0352 26.8706 79.1852 27.0092 79.3629 27.1029C79.5406 27.1965 79.7399 27.242 79.9407 27.2348C80.1685 27.2479 80.396 27.2063 80.6043 27.1134C80.8126 27.0205 80.9955 26.8791 81.1376 26.701C81.4449 26.2355 81.5897 25.6819 81.5497 25.1259C81.5497 23.7782 81.0411 23.1088 80.024 23.1088C79.8126 23.0988 79.6022 23.1435 79.4133 23.2385C79.2243 23.3336 79.0632 23.4758 78.9455 23.6514C78.6768 24.0948 78.547 24.6083 78.5729 25.1259ZM77.49 25.1259C77.468 24.3753 77.7117 23.641 78.1783 23.0519C78.3981 22.7763 78.6795 22.556 79 22.4085C79.3206 22.2611 79.6713 22.1908 80.024 22.2031C80.3832 22.1805 80.7429 22.237 81.0778 22.3685C81.4127 22.5001 81.7145 22.7035 81.9618 22.9644C82.4456 23.5775 82.686 24.347 82.637 25.1259C82.6764 25.9165 82.4255 26.6944 81.9311 27.3136C81.6804 27.5872 81.3715 27.8015 81.0272 27.9408C80.6828 28.0801 80.3116 28.1409 79.9407 28.1186C79.5939 28.1403 79.2469 28.0781 78.9293 27.9371C78.6118 27.7962 78.3331 27.5808 78.1169 27.3092C77.6706 26.6712 77.45 25.9029 77.49 25.1259Z" fill="white"/>
<path fill-rule="evenodd" clip-rule="evenodd" d="M87.1174 27.2047V23.1443H86.109C85.9776 23.9348 85.7721 24.7112 85.4953 25.4633C85.282 26.0869 84.9793 26.6765 84.5965 27.2134L87.1174 27.2047ZM88.779 29.6899H87.8583V28.0447H84.0047V29.6899H83.084V27.2047H83.4829C83.8759 26.68 84.2042 26.11 84.4606 25.507C84.8824 24.4769 85.1925 23.4046 85.3857 22.3086H88.1258V27.2047H88.7834L88.779 29.6899Z" fill="white"/>
<path fill-rule="evenodd" clip-rule="evenodd" d="M91.5715 23.9835L90.8657 26.1012H92.2818L91.5715 23.9835ZM93.0227 28.0439L92.5843 26.88H90.5676L90.1642 28.0439H89.0024L91.3611 22.2246H91.7995L94.1714 28.0439H93.0227Z" fill="white"/>
<path fill-rule="evenodd" clip-rule="evenodd" d="M95.8593 23.1924V25.0257C96.0391 25.0257 96.1794 25.0519 96.2758 25.0519C96.6397 25.0779 97.0035 24.9989 97.3236 24.8244C97.4372 24.7345 97.5267 24.6179 97.5841 24.4851C97.6415 24.3522 97.665 24.2072 97.6525 24.0631C97.6525 23.4724 97.1614 23.188 96.175 23.188C96.07 23.179 95.9644 23.179 95.8593 23.188V23.1924ZM95.8593 25.9314V28.0447H94.8115V22.3085L96.0391 22.2648C96.7409 22.2171 97.4426 22.3608 98.0689 22.6805C98.2853 22.8212 98.46 23.0171 98.5748 23.2479C98.6897 23.4787 98.7406 23.736 98.7222 23.9931C98.7222 25.3057 97.9287 25.9707 96.3328 25.9707C96.1747 25.9719 96.0167 25.9646 95.8593 25.9489V25.9314Z" fill="white"/>
<path fill-rule="evenodd" clip-rule="evenodd" d="M103.698 22.6149L103.26 23.455C102.945 23.1979 102.542 23.0738 102.137 23.1093C101.897 23.1018 101.658 23.1548 101.444 23.2633C101.229 23.3719 101.046 23.5326 100.91 23.7306C100.605 24.1723 100.452 24.7001 100.471 25.2358C100.452 25.751 100.606 26.2578 100.91 26.6753C101.045 26.8576 101.222 27.004 101.427 27.1016C101.632 27.1993 101.858 27.2452 102.085 27.2353C102.334 27.2498 102.583 27.205 102.812 27.1046C103.041 27.0042 103.242 26.851 103.4 26.6578L103.895 27.4847C103.643 27.7161 103.346 27.8937 103.023 28.0065C102.699 28.1194 102.356 28.1652 102.015 28.141C101.655 28.1625 101.296 28.1023 100.963 27.9652C100.631 27.828 100.334 27.6174 100.094 27.3491C99.6125 26.7382 99.3708 25.9726 99.4148 25.1964C99.3925 24.4194 99.6596 23.6618 100.164 23.0699C100.402 22.7866 100.702 22.5608 101.039 22.4092C101.377 22.2577 101.745 22.1844 102.115 22.1949C102.673 22.1768 103.223 22.3229 103.698 22.6149Z" fill="white"/>
<path fill-rule="evenodd" clip-rule="evenodd" d="M109.012 28.0666C108.898 28.0871 108.781 28.0959 108.665 28.0928C108.365 28.114 108.068 28.0218 107.832 27.8347C107.614 27.6012 107.477 27.3034 107.442 26.9859C107.392 26.5451 107.203 26.1316 106.903 25.8045C106.592 25.5465 106.193 25.4167 105.789 25.4413H105.741V28.0447H104.702V22.3085H105.741V24.5794H105.82C106.207 24.602 106.591 24.4959 106.912 24.2775C107.191 24.0431 107.372 23.7116 107.416 23.3499C107.456 23.0469 107.579 22.7607 107.771 22.5229C107.879 22.4286 108.005 22.3571 108.141 22.3127C108.278 22.2683 108.422 22.2521 108.565 22.2648C108.687 22.2568 108.81 22.2568 108.933 22.2648V23.1705C108.876 23.1642 108.819 23.1642 108.762 23.1705C108.716 23.1649 108.669 23.1695 108.625 23.1838C108.582 23.1982 108.541 23.2221 108.508 23.2537C108.432 23.3678 108.384 23.4982 108.367 23.6343C108.297 23.969 108.13 24.2759 107.887 24.5169C107.644 24.758 107.335 24.9227 106.999 24.9907C107.354 25.0818 107.674 25.275 107.92 25.5464C108.178 25.8592 108.346 26.2356 108.407 26.6358C108.428 26.7911 108.482 26.9403 108.565 27.0734C108.646 27.1377 108.75 27.1676 108.854 27.1565C108.906 27.1612 108.959 27.1612 109.012 27.1565V28.0666Z" fill="white"/>
<path fill-rule="evenodd" clip-rule="evenodd" d="M110.778 25.1259C110.743 25.6741 110.866 26.2209 111.134 26.701C111.241 26.8706 111.391 27.0092 111.568 27.1029C111.746 27.1965 111.945 27.242 112.146 27.2348C112.374 27.2479 112.602 27.2063 112.81 27.1134C113.018 27.0205 113.201 26.8791 113.343 26.701C113.65 26.2355 113.795 25.6819 113.755 25.1259C113.755 23.7782 113.247 23.1088 112.23 23.1088C112.018 23.0988 111.808 23.1435 111.619 23.2385C111.43 23.3336 111.269 23.4758 111.151 23.6514C110.882 24.0948 110.753 24.6083 110.778 25.1259ZM109.696 25.1259C109.674 24.3753 109.917 23.641 110.384 23.0519C110.604 22.7763 110.885 22.556 111.206 22.4085C111.526 22.2611 111.877 22.1908 112.23 22.2031C112.589 22.1805 112.948 22.237 113.283 22.3685C113.618 22.5001 113.92 22.7035 114.167 22.9644C114.651 23.5775 114.892 24.347 114.843 25.1259C114.882 25.9165 114.631 26.6944 114.137 27.3136C113.886 27.5872 113.577 27.8015 113.233 27.9408C112.888 28.0801 112.517 28.1409 112.146 28.1186C111.799 28.1403 111.452 28.0781 111.135 27.9371C110.817 27.7962 110.539 27.5808 110.322 27.3092C109.876 26.6712 109.656 25.9029 109.696 25.1259Z" fill="white"/>
<path fill-rule="evenodd" clip-rule="evenodd" d="M119.433 23.2056H116.824V28.0447H115.768V22.3086H119.433V23.2056Z" fill="white"/>
<path fill-rule="evenodd" clip-rule="evenodd" d="M121.099 25.1259C121.063 25.6741 121.186 26.2209 121.454 26.701C121.561 26.8706 121.711 27.0092 121.889 27.1029C122.067 27.1965 122.266 27.242 122.467 27.2348C122.694 27.2479 122.922 27.2063 123.13 27.1134C123.338 27.0205 123.521 26.8791 123.663 26.701C123.971 26.2355 124.116 25.6819 124.076 25.1259C124.076 23.7782 123.567 23.1088 122.55 23.1088C122.339 23.0988 122.128 23.1435 121.939 23.2385C121.75 23.3336 121.589 23.4758 121.471 23.6514C121.203 24.0948 121.073 24.6083 121.099 25.1259ZM120.016 25.1259C119.994 24.3753 120.238 23.641 120.704 23.0519C120.924 22.7763 121.205 22.556 121.526 22.4085C121.846 22.2611 122.197 22.1908 122.55 22.2031C122.909 22.1805 123.269 22.237 123.604 22.3685C123.939 22.5001 124.24 22.7035 124.488 22.9644C124.971 23.5775 125.212 24.347 125.163 25.1259C125.202 25.9165 124.951 26.6944 124.457 27.3136C124.206 27.5872 123.897 27.8015 123.553 27.9408C123.209 28.0801 122.837 28.1409 122.467 28.1186C122.12 28.1403 121.773 28.0781 121.455 27.9371C121.138 27.7962 120.859 27.5808 120.643 27.3092C120.196 26.6712 119.976 25.9029 120.016 25.1259Z" fill="white"/>
<path fill-rule="evenodd" clip-rule="evenodd" d="M132.875 28.0666C132.76 28.0873 132.644 28.0961 132.528 28.0928C132.229 28.1142 131.933 28.0219 131.7 27.8347C131.481 27.6006 131.343 27.3034 131.305 26.9858C131.259 26.544 131.069 26.1293 130.766 25.8045C130.455 25.5453 130.056 25.4153 129.652 25.4413H129.604V28.0447H128.569V22.3085H129.604V24.5794H129.687C130.073 24.6011 130.455 24.4949 130.775 24.2775C131.056 24.0436 131.237 23.7121 131.283 23.3499C131.321 23.0463 131.444 22.7596 131.638 22.5229C131.745 22.4285 131.87 22.3569 132.006 22.3125C132.142 22.2681 132.285 22.2519 132.427 22.2648C132.551 22.2568 132.676 22.2568 132.8 22.2648V23.1705C132.742 23.164 132.683 23.164 132.625 23.1705C132.579 23.1655 132.532 23.1704 132.489 23.1847C132.445 23.199 132.404 23.2225 132.37 23.2536C132.296 23.3682 132.249 23.4986 132.234 23.6343C132.166 23.9651 132.003 24.269 131.765 24.5094C131.521 24.7567 131.208 24.9258 130.867 24.995C131.221 25.0873 131.541 25.2804 131.787 25.5507C132.041 25.8656 132.209 26.2411 132.274 26.6402C132.291 26.7965 132.345 26.9466 132.432 27.0777C132.512 27.1418 132.614 27.1717 132.717 27.1609C132.769 27.1656 132.822 27.1656 132.875 27.1609V28.0666Z" fill="white"/>
<path fill-rule="evenodd" clip-rule="evenodd" d="M134.887 23.1924V25.0257C135.067 25.0257 135.207 25.0519 135.304 25.0519C135.668 25.0779 136.031 24.9989 136.351 24.8244C136.465 24.7345 136.555 24.6179 136.612 24.4851C136.669 24.3522 136.693 24.2072 136.68 24.0631C136.68 23.4724 136.189 23.188 135.203 23.188C135.098 23.179 134.992 23.179 134.887 23.188V23.1924ZM134.887 25.9314V28.0447H133.839V22.3085L135.067 22.2648C135.769 22.2171 136.47 22.3608 137.097 22.6805C137.313 22.8212 137.488 23.0171 137.603 23.2479C137.718 23.4787 137.768 23.736 137.75 23.9931C137.75 25.3086 136.954 25.9678 135.361 25.9707C135.203 25.9719 135.044 25.9646 134.887 25.9489V25.9314Z" fill="white"/>
<path fill-rule="evenodd" clip-rule="evenodd" d="M140.696 23.9835L139.99 26.1012H141.406L140.696 23.9835ZM142.152 28.0439L141.713 26.88H139.692L139.289 28.0439H138.105L140.464 22.2246H140.902L143.27 28.0439H142.152Z" fill="white"/>
<path fill-rule="evenodd" clip-rule="evenodd" d="M146.97 24.8417V23.0915C146.713 23.0631 146.456 23.0499 146.198 23.0521C145.909 23.039 145.623 23.1137 145.378 23.2665C145.275 23.3341 145.191 23.4273 145.135 23.537C145.079 23.6467 145.052 23.7691 145.058 23.8922C145.058 24.496 145.497 24.8067 146.373 24.8198L146.97 24.8417ZM147.996 28.0445H146.961V25.6642H146.715C146.334 25.6388 145.956 25.7541 145.654 25.988C145.371 26.2638 145.186 26.6251 145.128 27.0162C145.09 27.3246 144.957 27.6134 144.747 27.8432C144.539 28.0208 144.27 28.1103 143.997 28.0926C143.878 28.0966 143.759 28.0878 143.642 28.0663V27.165C143.695 27.1698 143.747 27.1698 143.8 27.165C143.853 27.1701 143.906 27.162 143.955 27.1414C144.004 27.1208 144.047 27.0883 144.081 27.0469C144.149 26.9295 144.195 26.8004 144.216 26.6662C144.274 26.3601 144.41 26.0742 144.613 25.837C144.815 25.5998 145.076 25.4196 145.369 25.3142C144.966 25.2551 144.594 25.0661 144.308 24.776C144.109 24.5288 144.006 24.218 144.019 23.901C144.017 23.6712 144.068 23.4439 144.166 23.2363C144.265 23.0287 144.41 22.8461 144.589 22.7021C145.081 22.3423 145.686 22.17 146.294 22.2164C146.794 22.2164 147.364 22.2427 147.996 22.2908V28.0445Z" fill="white"/>
<path fill-rule="evenodd" clip-rule="evenodd" d="M26.8138 8.88848C26.8138 9.52138 26.6492 10.1401 26.3409 10.6663C26.0326 11.1925 25.5943 11.6027 25.0816 11.8449C24.5688 12.0871 24.0046 12.1505 23.4603 12.027C22.916 11.9035 22.416 11.5988 22.0235 11.1512C21.6311 10.7037 21.3639 10.1335 21.2556 9.51278C21.1473 8.89204 21.2029 8.24862 21.4153 7.6639C21.6276 7.07918 21.9873 6.57942 22.4488 6.2278C22.9102 5.87618 23.4528 5.68848 24.0077 5.68848C24.3764 5.68792 24.7415 5.77032 25.0822 5.93093C25.4228 6.09155 25.7324 6.32723 25.993 6.62449C26.2537 6.92175 26.4604 7.27473 26.6012 7.66322C26.7421 8.05172 26.8143 8.4681 26.8138 8.88848Z" fill="white"/>
<path fill-rule="evenodd" clip-rule="evenodd" d="M13.0951 18.1336C13.0951 18.7665 12.9305 19.3852 12.6222 19.9114C12.3138 20.4377 11.8756 20.8478 11.3628 21.09C10.8501 21.3322 10.2859 21.3956 9.74155 21.2721C9.19723 21.1486 8.69723 20.8439 8.30479 20.3963C7.91235 19.9488 7.6451 19.3786 7.53683 18.7579C7.42856 18.1371 7.48412 17.4937 7.69651 16.909C7.9089 16.3243 8.26856 15.8245 8.73002 15.4729C9.19148 15.1213 9.734 14.9336 10.289 14.9336C10.6576 14.933 11.0227 15.0154 11.3634 15.176C11.7041 15.3366 12.0136 15.5723 12.2743 15.8696C12.535 16.1668 12.7416 16.5199 12.8825 16.9083C13.0233 17.2968 13.0956 17.7132 13.0951 18.1336Z" fill="white"/>
<path fill-rule="evenodd" clip-rule="evenodd" d="M46.1444 3.19144C46.1461 3.8247 45.9646 4.44422 45.623 4.97158C45.2814 5.49895 44.7951 5.91043 44.2255 6.15394C43.6559 6.39746 43.0288 6.46206 42.4234 6.33956C41.8181 6.21705 41.2617 5.91296 40.8249 5.46578C40.388 5.01859 40.0902 4.44842 39.9692 3.82745C39.8482 3.20648 39.9095 2.56262 40.1452 1.97739C40.381 1.39217 40.7806 0.891898 41.2935 0.539897C41.8064 0.187896 42.4095 5.14508e-06 43.0266 2.87535e-06C43.4354 -0.000560059 43.8405 0.0815405 44.2184 0.241621C44.5964 0.401701 44.94 0.636628 45.2295 0.93298C45.519 1.22933 45.7488 1.58131 45.9058 1.96882C46.0628 2.35632 46.1439 2.77177 46.1444 3.19144Z" fill="white"/>
<path fill-rule="evenodd" clip-rule="evenodd" d="M14.44 31.9993H17.7305C17.86 32.0036 17.9882 31.9688 18.1024 31.8983C18.2167 31.8279 18.3129 31.7243 18.3816 31.5978L26.7438 14.5037C26.9698 14.0625 26.6212 13.5109 26.0888 13.5109H22.8021C22.6727 13.508 22.5448 13.5428 22.4302 13.6123C22.3157 13.6817 22.2183 13.7835 22.1471 13.908L13.7888 30.9888C13.5628 31.4654 13.9114 31.9993 14.44 31.9993Z" fill="white"/>
<path fill-rule="evenodd" clip-rule="evenodd" d="M42.9372 7.82276H39.6836C39.5558 7.81777 39.4291 7.85051 39.3161 7.9177C39.2031 7.98488 39.1078 8.08418 39.0397 8.20567L30.7674 24.6873C30.7674 24.6873 30.7674 24.6873 30.7674 24.7171L29.3773 27.4868C29.1539 27.9122 29.4986 28.444 30.0212 28.444H33.2748C33.4026 28.449 33.5293 28.4163 33.6423 28.3491C33.7553 28.2819 33.8506 28.1826 33.9187 28.0611L42.191 11.5794C42.1905 11.5695 42.1905 11.5596 42.191 11.5496L43.5811 8.78001C43.8045 8.33329 43.4599 7.82276 42.9372 7.82276Z" fill="white"/>
<path fill-rule="evenodd" clip-rule="evenodd" d="M31.1157 21.7756L29.211 25.3323C29.1731 25.4075 29.1181 25.4713 29.051 25.5178C28.9839 25.5644 28.907 25.5921 28.8273 25.5985C28.7475 25.6049 28.6676 25.5897 28.5947 25.5544C28.5219 25.5191 28.4586 25.4647 28.4107 25.3964L25.0414 20.818C24.9842 20.7381 24.9504 20.642 24.944 20.5417C24.9376 20.4413 24.9589 20.3412 25.0053 20.2537L26.9581 16.6243C26.9956 16.5485 27.0506 16.4841 27.1179 16.4372C27.1852 16.3904 27.2626 16.3627 27.3427 16.3567C27.4228 16.3507 27.503 16.3666 27.5758 16.403C27.6485 16.4394 27.7114 16.495 27.7584 16.5645L31.0837 21.2156C31.1394 21.2955 31.172 21.391 31.1777 21.4905C31.1834 21.5899 31.1619 21.689 31.1157 21.7756Z" fill="white"/>
<path fill-rule="evenodd" clip-rule="evenodd" d="M14.9324 25.4159L13.3818 28.9446C13.3517 29.0085 13.3072 29.0618 13.2528 29.099C13.1985 29.1362 13.1364 29.1559 13.0731 29.1559C13.0098 29.1559 12.9477 29.1362 12.8933 29.099C12.839 29.0618 12.7944 29.0085 12.7644 28.9446L10.0035 23.3115C9.97792 23.2403 9.97069 23.1621 9.9827 23.0863C9.99471 23.0105 10.0255 22.9402 10.0713 22.8838C10.1171 22.8275 10.1761 22.7874 10.2412 22.7683C10.3063 22.7493 10.3748 22.7521 10.4385 22.7764L14.7394 24.8687C14.7846 24.8884 14.8257 24.9185 14.8602 24.9573C14.8948 24.9961 14.9219 25.0426 14.9401 25.094C14.9582 25.1454 14.9668 25.2005 14.9655 25.2559C14.9642 25.3113 14.9529 25.3658 14.9324 25.4159Z" fill="white"/>
</svg>
