<svg width="172" height="39" viewBox="0 0 172 39" fill="none" xmlns="http://www.w3.org/2000/svg">
<g clip-path="url(#clip0_279_16)">
<path fill-rule="evenodd" clip-rule="evenodd" d="M10.8796 10.2363H9.07994L8.00482 4.74697L5.89353 10.3684H5.2391L3.11223 4.74697L1.98257 10.2363H0.198486L2.30199 0.0429688H3.28362L5.55852 6.90847L7.7633 0.0429688H8.74494L10.8796 10.2363Z" fill="#3C4A6D"/>
<path fill-rule="evenodd" clip-rule="evenodd" d="M20.4233 10.2355H18.5613V3.37775L13.0922 10.391H12.3053V0.0421855H14.1595V6.89991L19.6364 -0.121094H20.4233V10.2355Z" fill="#3C4A6D"/>
<path fill-rule="evenodd" clip-rule="evenodd" d="M28.6036 10.2363V5.64889H24.4355V10.2363H22.5813V0.0429688H24.4355V4.03165H28.6036V0.0429688H30.4344V10.2363H28.6036Z" fill="#3C4A6D"/>
<path fill-rule="evenodd" clip-rule="evenodd" d="M40.7104 10.2355H38.8562V3.37775L33.3793 10.391H32.5924V0.0421855H34.4544V6.89991L39.9235 -0.121094H40.7104V10.2355Z" fill="#3C4A6D"/>
<path fill-rule="evenodd" clip-rule="evenodd" d="M50.0203 0.586531L49.2412 2.07936C48.6834 1.61972 47.9675 1.39643 47.2468 1.45735C46.8189 1.44554 46.395 1.54117 46.0139 1.73544C45.6327 1.92971 45.3066 2.21639 45.0654 2.5692C44.5234 3.35354 44.2501 4.29178 44.2863 5.24387C44.2521 6.1595 44.5264 7.06018 45.0654 7.80194C45.3059 8.12445 45.622 8.3831 45.986 8.55526C46.35 8.72742 46.7509 8.80781 47.1533 8.78936C47.5958 8.81601 48.0383 8.73763 48.4446 8.56057C48.8509 8.38352 49.2093 8.11285 49.4905 7.77081L50.3708 9.24033C49.9226 9.65156 49.395 9.96713 48.8203 10.1677C48.2456 10.3682 47.6359 10.4495 47.0286 10.4066C46.3902 10.4447 45.7515 10.3379 45.1605 10.0941C44.5694 9.85036 44.0415 9.47604 43.6163 8.9993C42.76 7.91366 42.3306 6.55331 42.4087 5.17392C42.3686 3.79081 42.8432 2.44189 43.7409 1.3874C44.1646 0.884854 44.6962 0.48403 45.2964 0.214808C45.8967 -0.0544142 46.55 -0.185109 47.2078 -0.167641C48.1992 -0.197419 49.1774 0.0648729 50.0203 0.586531Z" fill="#3C4A6D"/>
<path fill-rule="evenodd" clip-rule="evenodd" d="M56.3542 1.63689V10.2363H54.5V1.63689H51.1733V0.0429688H59.8444V1.63689H56.3542Z" fill="#3C4A6D"/>
<path fill-rule="evenodd" clip-rule="evenodd" d="M63.1944 1.63689V4.03165H66.6613V5.57114H63.1944V8.62679H67.9312V10.2363H61.3402V0.0429688H68.0169V1.63689H63.1944Z" fill="#3C4A6D"/>
<path fill-rule="evenodd" clip-rule="evenodd" d="M71.624 1.60549V4.87108C71.9408 4.90218 72.2005 4.91773 72.4031 4.91773C73.0483 4.96591 73.6934 4.82252 74.2572 4.50562C74.4579 4.34665 74.6163 4.14074 74.7182 3.90611C74.8201 3.67149 74.8625 3.4154 74.8415 3.16053C74.8415 2.1031 73.969 1.60549 72.2239 1.60549C72.0344 1.59429 71.8445 1.59429 71.6551 1.60549H71.624ZM71.624 6.48056V10.2359H69.7698V0.0426669L71.9512 -0.0350662C73.1995 -0.108353 74.4442 0.160521 75.5505 0.742454C75.9373 0.990062 76.2496 1.33779 76.4541 1.74857C76.6585 2.15935 76.7474 2.61778 76.7113 3.07501C76.7113 5.41276 75.2986 6.58164 72.4732 6.58164C72.255 6.56609 71.9746 6.51166 71.624 6.48056Z" fill="#3C4A6D"/>
<path fill-rule="evenodd" clip-rule="evenodd" d="M85.5538 0.586443L84.7748 2.07927C84.2174 1.61888 83.5012 1.3955 82.7803 1.45726C82.3528 1.44687 81.9293 1.54311 81.5484 1.73725C81.1675 1.9314 80.8412 2.21732 80.5989 2.56911C80.057 3.35345 79.7837 4.2917 79.8199 5.24378C79.7893 6.15894 80.0632 7.05849 80.5989 7.80185C80.8407 8.12498 81.1581 8.38396 81.5235 8.55612C81.8889 8.72828 82.291 8.80833 82.6946 8.78927C83.1372 8.81656 83.58 8.73844 83.9863 8.56134C84.3927 8.38424 84.7511 8.11325 85.0319 7.77072L85.9122 9.24024C85.464 9.65147 84.9364 9.96704 84.3617 10.1676C83.787 10.3681 83.1773 10.4494 82.57 10.4065C81.9316 10.4446 81.2929 10.3378 80.7019 10.094C80.1108 9.85027 79.5828 9.47595 79.1576 8.99922C78.3014 7.91358 77.872 6.55323 77.9501 5.17383C77.91 3.79072 78.3846 2.4418 79.2823 1.38731C79.7063 0.8852 80.2381 0.484709 80.8382 0.215526C81.4383 -0.0536567 82.0915 -0.184634 82.7492 -0.167729C83.738 -0.196894 84.7135 0.065409 85.5538 0.586443Z" fill="#3C4A6D"/>
<path fill-rule="evenodd" clip-rule="evenodd" d="M91.88 1.63689V10.2363H90.018V1.63689H86.6991V0.0429688H95.3624V1.63689H91.88Z" fill="#3C4A6D"/>
<path fill-rule="evenodd" clip-rule="evenodd" d="M98.7125 5.3455V8.71996C99.0864 8.71996 99.398 8.76661 99.6318 8.76661C100.244 8.80501 100.854 8.67025 101.392 8.37785C101.602 8.21529 101.766 8.00213 101.869 7.75859C101.973 7.51505 102.013 7.24915 101.985 6.98605C102.005 6.75122 101.969 6.51497 101.881 6.29623C101.793 6.07749 101.655 5.88235 101.478 5.72648C100.924 5.40732 100.285 5.26619 99.6474 5.3222C99.3098 5.3222 98.9981 5.3222 98.7125 5.3222V5.3455ZM98.7125 1.49676V3.93041C99.0864 3.93041 99.3903 3.93041 99.6162 3.93041C100.832 3.93041 101.439 3.48725 101.439 2.60088C101.439 1.82336 100.886 1.41903 99.7798 1.41903C99.4915 1.41903 99.1332 1.41903 98.7125 1.46568V1.49676ZM100.052 10.2361H96.8505V0.0428052C98.5021 -0.0271716 99.4838 -0.066059 99.8188 -0.066059C100.719 -0.114838 101.612 0.1249 102.366 0.618163C102.669 0.841257 102.912 1.13535 103.074 1.47436C103.235 1.81338 103.311 2.18689 103.293 2.56196C103.286 2.97554 103.156 3.37775 102.921 3.71804C102.685 4.05833 102.354 4.32155 101.969 4.47468C102.562 4.63372 103.082 4.9937 103.439 5.49299C103.795 5.99228 103.967 6.59982 103.924 7.21157C103.939 7.64005 103.848 8.06559 103.66 8.45069C103.471 8.83579 103.19 9.16858 102.842 9.4197C102.029 9.99364 101.047 10.2809 100.052 10.2361Z" fill="#3C4A6D"/>
<path fill-rule="evenodd" clip-rule="evenodd" d="M107.025 5.04932C106.962 6.02349 107.181 6.99534 107.656 7.84842C107.846 8.15007 108.113 8.39607 108.429 8.56135C108.745 8.72663 109.099 8.80522 109.456 8.78919C109.86 8.81346 110.264 8.7407 110.634 8.57701C111.004 8.41332 111.329 8.16349 111.583 7.84842C112.125 7.01956 112.382 6.03696 112.315 5.04932C112.315 2.65455 111.411 1.45718 109.604 1.45718C109.227 1.43868 108.852 1.51864 108.516 1.6891C108.18 1.85955 107.894 2.11461 107.687 2.42908C107.206 3.21556 106.975 4.12917 107.025 5.04932ZM105.093 5.04932C105.054 3.71428 105.49 2.40865 106.324 1.36388C106.713 0.872229 107.213 0.479292 107.783 0.217151C108.353 -0.0449908 108.977 -0.16891 109.604 -0.144512C110.241 -0.185126 110.879 -0.0849435 111.473 0.148909C112.067 0.382761 112.602 0.744513 113.04 1.20837C113.903 2.29607 114.33 3.66486 114.239 5.04932C114.321 6.46644 113.877 7.86391 112.993 8.97578C112.547 9.46165 111.998 9.84219 111.386 10.0897C110.774 10.3372 110.115 10.4454 109.456 10.4064C108.838 10.4401 108.221 10.3265 107.656 10.0751C107.091 9.82357 106.595 9.44144 106.207 8.96027C105.411 7.81642 105.019 6.4403 105.093 5.04932Z" fill="#3C4A6D"/>
<path fill-rule="evenodd" clip-rule="evenodd" d="M0.533451 15.119C1.53772 14.5615 2.67219 14.2798 3.82115 14.3026C4.44404 14.2697 5.0662 14.3793 5.64009 14.6233C6.21397 14.8672 6.72437 15.2389 7.13221 15.7099C7.96709 16.8111 8.38388 18.172 8.3086 19.5509C8.38608 20.9647 7.92085 22.3549 7.00756 23.4385C6.55412 23.9215 6.00082 24.3004 5.38602 24.5488C4.77123 24.7972 4.10965 24.9091 3.44718 24.8768C2.30416 24.9011 1.18028 24.5814 0.221802 23.9594L1.00088 22.4043C1.67228 22.9726 2.5202 23.2914 3.40044 23.3063C3.78845 23.3313 4.17739 23.2749 4.54233 23.141C4.90726 23.0071 5.24012 22.7986 5.51952 22.5288C6.07723 21.8779 6.38874 21.0525 6.39988 20.1962H2.49671V18.7033H6.39208C6.34173 17.9541 6.04297 17.2429 5.54289 16.6818C5.30751 16.4417 5.02445 16.2533 4.71185 16.1288C4.39924 16.0043 4.06399 15.9463 3.72764 15.9587C2.86668 15.9653 2.02873 16.2368 1.3281 16.7362L0.533451 15.119Z" fill="#3C4A6D"/>
<path fill-rule="evenodd" clip-rule="evenodd" d="M17.603 24.6904C17.3992 24.7195 17.1934 24.7325 16.9876 24.7292C16.454 24.7668 15.9257 24.6031 15.5073 24.2705C15.1224 23.8565 14.8795 23.3309 14.8139 22.7699C14.7333 21.9821 14.3968 21.2421 13.8557 20.6628C13.3019 20.2058 12.5938 19.9777 11.8768 20.0252H11.7911V24.6437H9.95251V14.4504H11.7911V18.4858H11.9391C12.6248 18.5243 13.3041 18.3357 13.8713 17.9493C14.3676 17.5345 14.6901 16.9492 14.775 16.3087C14.8371 15.7656 15.0564 15.2522 15.406 14.8314C15.5967 14.665 15.8195 14.5392 16.0606 14.4616C16.3017 14.3841 16.5562 14.3564 16.8084 14.3804C17.0289 14.3667 17.2501 14.3667 17.4706 14.3804V15.9899H17.159C17.0774 15.981 16.995 15.9896 16.917 16.0151C16.8391 16.0406 16.7675 16.0824 16.7071 16.1376C16.5757 16.3452 16.4907 16.5786 16.4578 16.8219C16.3422 17.4101 16.0548 17.9512 15.632 18.3769C15.1939 18.8176 14.6359 19.1204 14.0271 19.2477C14.6564 19.4083 15.225 19.7488 15.6631 20.2274C16.1194 20.7871 16.4179 21.4581 16.5279 22.1712C16.5614 22.4494 16.6601 22.7158 16.8162 22.9487C16.8858 23.0073 16.9665 23.0512 17.0535 23.0779C17.1405 23.1046 17.232 23.1136 17.3226 23.1042C17.4156 23.1166 17.51 23.1166 17.603 23.1042V24.6904Z" fill="#3C4A6D"/>
<path fill-rule="evenodd" clip-rule="evenodd" d="M20.7505 19.4569C20.6878 20.4326 20.9039 21.4059 21.3738 22.2638C21.5654 22.5655 21.8335 22.8114 22.1508 22.9766C22.4682 23.1418 22.8236 23.2204 23.1812 23.2046C23.5859 23.228 23.9903 23.154 24.3604 22.9889C24.7306 22.8238 25.0556 22.5725 25.3081 22.256C25.8504 21.4271 26.1075 20.4446 26.0404 19.4569C26.0404 17.0674 25.1367 15.8725 23.3292 15.8725C22.9526 15.854 22.5778 15.934 22.2416 16.1045C21.9055 16.2749 21.6198 16.53 21.4127 16.8444C20.9326 17.6285 20.7018 18.5394 20.7505 19.4569ZM18.8184 19.4569C18.7779 18.1253 19.2112 16.8224 20.0415 15.7792C20.428 15.2798 20.9273 14.8787 21.4986 14.6085C22.07 14.3382 22.6972 14.2065 23.3292 14.2242C23.9663 14.1847 24.6042 14.2854 25.1979 14.5191C25.7916 14.7529 26.3266 15.1141 26.765 15.5771C27.628 16.6648 28.0555 18.0336 27.9647 19.4181C28.0371 20.8221 27.5939 22.2044 26.7182 23.3057C26.2727 23.7925 25.7241 24.1742 25.1123 24.423C24.5005 24.6718 23.8408 24.7815 23.1812 24.7441C22.563 24.7823 21.9447 24.6708 21.379 24.4189C20.8133 24.1671 20.317 23.7825 19.9325 23.2979C19.1661 22.1678 18.7888 20.8197 18.8573 19.4569H18.8184Z" fill="#3C4A6D"/>
<path fill-rule="evenodd" clip-rule="evenodd" d="M35.6386 24.6435V20.0561H31.4705V24.6435H29.6163V14.4502H31.4705V18.4389H35.6386V14.4502H37.4694V24.6435H35.6386Z" fill="#3C4A6D"/>
<path fill-rule="evenodd" clip-rule="evenodd" d="M41.0531 19.4574C40.9884 20.4341 41.2075 21.4087 41.6841 22.2642C41.8745 22.5653 42.1412 22.8108 42.4572 22.976C42.7733 23.1412 43.1274 23.2203 43.4838 23.205C43.8885 23.2284 44.2929 23.1544 44.663 22.9893C45.0331 22.8243 45.3581 22.5729 45.6107 22.2564C46.153 21.4276 46.4101 20.445 46.343 19.4574C46.343 17.0678 45.4393 15.873 43.6318 15.873C43.2552 15.8545 42.8803 15.9344 42.5442 16.1049C42.2081 16.2753 41.9224 16.5304 41.7153 16.8449C41.2352 17.6289 41.0043 18.5398 41.0531 19.4574ZM39.121 19.4574C39.0833 18.1249 39.5194 16.822 40.3519 15.7797C40.7363 15.2799 41.2341 14.8784 41.8043 14.6081C42.3745 14.3377 43.0008 14.2063 43.6318 14.2246C44.269 14.184 44.9072 14.2842 45.5011 14.5181C46.095 14.7519 46.6298 15.1137 47.0675 15.5776C47.9306 16.6653 48.3581 18.034 48.2673 19.4185C48.3397 20.8226 47.8965 22.2048 47.0208 23.3061C46.576 23.7938 46.0275 24.1761 45.4155 24.425C44.8035 24.6739 44.1435 24.783 43.4838 24.7445C42.8661 24.7782 42.2493 24.6646 41.6844 24.4131C41.1194 24.1616 40.6226 23.7795 40.2351 23.2983C39.4522 22.174 39.0583 20.8254 39.1132 19.4574H39.121Z" fill="#3C4A6D"/>
<path fill-rule="evenodd" clip-rule="evenodd" d="M59.8834 24.6435H58.0759L57.0008 19.162L54.8895 24.7834H54.2351L52.1082 19.162L50.9863 24.6435H49.1945L51.3058 14.4502H52.2796L54.5545 21.3235L56.7671 14.4502H57.7409L59.8834 24.6435Z" fill="#3C4A6D"/>
<path fill-rule="evenodd" clip-rule="evenodd" d="M69.4192 24.6437H67.565V17.786L62.0881 24.807H61.3013V14.4504H63.1633V21.3082L68.6324 14.2949H69.4192V24.6437Z" fill="#3C4A6D"/>
<path fill-rule="evenodd" clip-rule="evenodd" d="M79.2278 24.6904C79.024 24.7198 78.8182 24.7328 78.6124 24.7292C78.0811 24.7671 77.5552 24.6033 77.1399 24.2705C76.7517 23.8587 76.5083 23.332 76.4465 22.7699C76.3599 21.9822 76.0211 21.2432 75.4805 20.6628C74.9299 20.2056 74.2241 19.9773 73.5094 20.0252H73.3926V24.6437H71.554V14.4504H73.3926V18.4858H73.5406C74.2263 18.5243 74.9055 18.3357 75.4727 17.9493C75.9721 17.537 76.2952 16.9504 76.3764 16.3087C76.442 15.7665 76.6609 15.2541 77.0075 14.8314C77.1982 14.665 77.4209 14.5392 77.662 14.4616C77.9032 14.3841 78.1576 14.3564 78.4098 14.3804C78.6303 14.3667 78.8515 14.3667 79.072 14.3804V15.9899C78.9683 15.9825 78.8641 15.9825 78.7604 15.9899C78.6789 15.981 78.5964 15.9896 78.5185 16.0151C78.4406 16.0406 78.369 16.0824 78.3085 16.1376C78.1774 16.3446 78.0948 16.5785 78.067 16.8219C77.9483 17.4107 77.6584 17.9516 77.2334 18.3769C76.8103 18.8127 76.2686 19.1154 75.6752 19.2477C76.303 19.412 76.8707 19.7519 77.3113 20.2274C77.7616 20.7907 78.0594 21.46 78.1761 22.1712C78.2042 22.4494 78.3005 22.7165 78.4565 22.9487C78.5278 23.0071 78.6099 23.0509 78.6981 23.0776C78.7864 23.1043 78.879 23.1133 78.9707 23.1042C79.0612 23.1161 79.1529 23.1161 79.2434 23.1042L79.2278 24.6904Z" fill="#3C4A6D"/>
<path fill-rule="evenodd" clip-rule="evenodd" d="M89.0675 24.6437H87.2133V17.786L81.7364 24.807H80.9496V14.4504H82.8038V21.3082L88.2807 14.2949H89.0675V24.6437Z" fill="#3C4A6D"/>
<path fill-rule="evenodd" clip-rule="evenodd" d="M8.57352 39.097C8.3705 39.1335 8.16428 39.1491 7.95807 39.1436C7.42449 39.1812 6.8962 39.0175 6.47781 38.6849C6.0895 38.27 5.84626 37.7408 5.78444 37.1765C5.69672 36.3913 5.35799 35.6552 4.8184 35.0772C4.26856 34.6179 3.56296 34.3869 2.84734 34.4319H2.76163V39.0581H0.938599V28.8648H2.785V32.9001H2.92523C3.61352 32.9404 4.29578 32.7517 4.86514 32.3636C5.35967 31.9452 5.6793 31.3572 5.76107 30.7153C5.83171 30.1768 6.0501 29.6682 6.39212 29.2458C6.58339 29.0774 6.80715 28.9498 7.04966 28.8709C7.29216 28.792 7.54828 28.7635 7.80224 28.7871C8.02015 28.7728 8.23876 28.7728 8.45666 28.7871V30.3965C8.3557 30.3852 8.2538 30.3852 8.15284 30.3965C8.07012 30.3875 7.98644 30.396 7.90724 30.4215C7.82804 30.4469 7.7551 30.4888 7.69319 30.5443C7.5609 30.7479 7.47817 30.9795 7.45165 31.2207C7.32678 31.8155 7.03003 32.3608 6.59804 32.7892C6.16605 33.2175 5.61776 33.5102 5.02094 33.631C5.65065 33.795 6.21906 34.138 6.657 34.6185C7.10855 35.1781 7.40657 35.8452 7.52179 36.5545C7.55562 36.8314 7.65147 37.0971 7.80224 37.332C7.94773 37.4464 8.13229 37.4994 8.31644 37.4797C8.40974 37.4881 8.50359 37.4881 8.59689 37.4797L8.57352 39.097Z" fill="#3C4A6D"/>
<path fill-rule="evenodd" clip-rule="evenodd" d="M12.1417 30.4361V33.6939C12.4637 33.725 12.7234 33.7405 12.9208 33.7405C13.5649 33.7857 14.2084 33.6453 14.775 33.3362C14.9768 33.1765 15.1358 32.9693 15.2378 32.7332C15.3398 32.4971 15.3815 32.2395 15.3593 31.9833C15.3593 30.9337 14.4867 30.4283 12.7416 30.4283C12.5523 30.4121 12.3621 30.4121 12.1728 30.4283L12.1417 30.4361ZM12.1417 35.3034V39.0588H10.2875V28.8655L12.4611 28.7877C13.7084 28.7019 14.9556 28.9573 16.0682 29.5264C16.4539 29.7752 16.7652 30.1231 16.9695 30.5336C17.1738 30.9441 17.2634 31.4019 17.229 31.859C17.229 34.1915 15.8189 35.3733 12.9831 35.3733C12.7021 35.3754 12.4212 35.3625 12.1417 35.3345V35.3034Z" fill="#3C4A6D"/>
<path fill-rule="evenodd" clip-rule="evenodd" d="M22.4722 31.8434L21.1945 35.6066H23.7109L22.4566 31.8434H22.4722ZM25.0509 39.0588L24.2719 36.9906H20.6803L19.9714 39.0588H17.8912L22.0749 28.7178H22.8539L27.0609 39.0588H25.0509Z" fill="#3C4A6D"/>
<path fill-rule="evenodd" clip-rule="evenodd" d="M35.3971 29.4092L34.618 30.902C34.0595 30.4444 33.3434 30.2238 32.6236 30.2878C32.1966 30.2758 31.7734 30.3706 31.3924 30.5634C31.0114 30.7562 30.6848 31.041 30.4422 31.3918C29.9012 32.1766 29.628 33.1145 29.6631 34.0665C29.6325 34.9817 29.9065 35.8811 30.4422 36.6245C30.6835 36.9486 31.0007 37.2087 31.366 37.3822C31.7314 37.5557 32.1337 37.6373 32.5379 37.6198C32.9811 37.6455 33.424 37.5659 33.8303 37.3875C34.2366 37.209 34.5947 36.9369 34.8751 36.5934L35.7555 38.063C35.3073 38.4742 34.7796 38.7897 34.2049 38.9902C33.6302 39.1908 33.0205 39.2721 32.4132 39.2292C31.7749 39.2673 31.1361 39.1605 30.5451 38.9167C29.9541 38.673 29.4261 38.2987 29.0009 37.8219C28.1479 36.7346 27.7188 35.3755 27.7933 33.9965C27.7537 32.6159 28.2284 31.2695 29.1255 30.2178C29.5488 29.7148 30.0804 29.3137 30.6807 29.0445C31.281 28.7752 31.9345 28.6447 32.5924 28.6627C33.5805 28.6312 34.556 28.8908 35.3971 29.4092Z" fill="#3C4A6D"/>
<path fill-rule="evenodd" clip-rule="evenodd" d="M43.2112 39.0585V34.4712H39.051V39.0585H37.189V28.8652H39.051V32.8539H43.2112V28.8652H45.042V39.0585H43.2112Z" fill="#3C4A6D"/>
<path fill-rule="evenodd" clip-rule="evenodd" d="M48.6258 33.8724C48.5621 34.8465 48.7812 35.8184 49.2568 36.6714C49.4474 36.9729 49.7139 37.2191 50.0297 37.3856C50.3455 37.552 50.6996 37.6329 51.0565 37.62C51.4612 37.6434 51.8656 37.5694 52.2357 37.4043C52.6058 37.2393 52.9308 36.9879 53.1834 36.6714C53.7294 35.8442 53.9868 34.8604 53.9157 33.8724C53.9157 31.4776 53.0119 30.288 51.2045 30.288C50.8289 30.2702 50.455 30.3496 50.1192 30.5186C49.7834 30.6875 49.4971 30.9402 49.288 31.2521C48.8104 32.0401 48.5798 32.9526 48.6258 33.8724ZM46.7014 33.8724C46.6624 32.5386 47.0955 31.2337 47.9246 30.1869C48.3151 29.6972 48.8153 29.3056 49.3849 29.0436C49.9545 28.7817 50.5777 28.6566 51.2045 28.6785C51.8427 28.6384 52.4821 28.7387 53.0771 28.9725C53.6722 29.2063 54.2085 29.5678 54.648 30.0314C55.5077 31.1209 55.9349 32.4884 55.8478 33.8724C55.9179 35.2774 55.4719 36.6598 54.5935 37.76C54.1479 38.2463 53.5991 38.6271 52.9871 38.8746C52.3752 39.1221 51.7156 39.2301 51.0565 39.1906C50.4401 39.2292 49.8235 39.1185 49.2593 38.8681C48.695 38.6176 48.1997 38.2348 47.8155 37.7522C47.0224 36.6185 46.6304 35.2533 46.7014 33.8724Z" fill="#3C4A6D"/>
<path fill-rule="evenodd" clip-rule="evenodd" d="M63.81 37.5657V30.3503H62.0181C61.7846 31.755 61.4194 33.1347 60.9274 34.4712C60.5484 35.5795 60.0105 36.6271 59.3303 37.5813L63.81 37.5657ZM66.7626 41.982H65.1266V39.0585H58.2785V41.982H56.6425V37.5657H57.3514C58.0498 36.6333 58.6331 35.6204 59.0888 34.5489C59.8384 32.7183 60.3894 30.8129 60.7326 28.8652H65.6018V37.5657H66.7704L66.7626 41.982Z" fill="#3C4A6D"/>
<path fill-rule="evenodd" clip-rule="evenodd" d="M71.7253 31.8434L70.471 35.6066H72.9874L71.7253 31.8434ZM74.304 39.0588L73.525 36.9906H69.9412L69.2245 39.0588H67.1599L71.3513 28.7178H72.1304L76.3452 39.0588H74.304Z" fill="#3C4A6D"/>
<path fill-rule="evenodd" clip-rule="evenodd" d="M79.3447 30.4357V33.6935C79.6641 33.6935 79.9134 33.7402 80.0848 33.7402C80.7314 33.7863 81.3778 33.646 81.9468 33.3358C82.1486 33.1761 82.3077 32.969 82.4096 32.7329C82.5116 32.4968 82.5533 32.2391 82.5311 31.983C82.5311 30.9333 81.6585 30.4279 79.9056 30.4279C79.7189 30.4119 79.5313 30.4119 79.3447 30.4279V30.4357ZM79.3447 35.303V39.0584H77.4827V28.8651L79.6641 28.7874C80.9113 28.7027 82.1581 28.958 83.2712 29.526C83.6557 29.776 83.9661 30.1242 84.1702 30.5344C84.3743 30.9445 84.4647 31.4018 84.432 31.8586C84.432 34.1911 83.0219 35.3729 80.1861 35.3729C79.9051 35.375 79.6242 35.3621 79.3447 35.3341V35.303Z" fill="#3C4A6D"/>
<path fill-rule="evenodd" clip-rule="evenodd" d="M93.2745 29.4092L92.4955 30.9021C91.9365 30.4452 91.2207 30.2248 90.501 30.2878C90.0738 30.2745 89.6501 30.3686 89.2689 30.5615C88.8877 30.7545 88.5612 31.04 88.3196 31.3919C87.7787 32.1767 87.5055 33.1146 87.5405 34.0666C87.5064 34.9822 87.7807 35.8828 88.3196 36.6246C88.5593 36.9486 88.875 37.2088 89.2391 37.3823C89.6032 37.5558 90.0044 37.6374 90.4075 37.6199C90.8507 37.6456 91.2937 37.566 91.7 37.3876C92.1063 37.2091 92.4644 36.937 92.7448 36.5935L93.6251 38.0631C93.1769 38.4743 92.6493 38.7898 92.0746 38.9903C91.4999 39.1909 90.8902 39.2722 90.2829 39.2293C89.6445 39.2674 89.0058 39.1606 88.4148 38.9168C87.8237 38.6731 87.2957 38.2988 86.8705 37.822C86.0143 36.7364 85.5849 35.376 85.663 33.9966C85.6234 32.6159 86.098 31.2696 86.9952 30.2179C87.4181 29.7144 87.9496 29.313 88.55 29.0437C89.1504 28.7744 89.8041 28.6442 90.4621 28.6628C91.4527 28.6307 92.4308 28.8903 93.2745 29.4092Z" fill="#3C4A6D"/>
<path fill-rule="evenodd" clip-rule="evenodd" d="M102.717 39.097C102.514 39.1335 102.308 39.1491 102.101 39.1436C101.568 39.1812 101.04 39.0175 100.621 38.6849C100.233 38.27 99.9896 37.7408 99.9278 37.1765C99.8385 36.3933 99.5031 35.6584 98.9695 35.0772C98.4161 34.6188 97.7085 34.388 96.9907 34.4319H96.905V39.0581H95.0586V28.8648H96.905V32.9001H97.0452C97.7335 32.9404 98.4158 32.7517 98.9851 32.3636C99.4821 31.9472 99.8023 31.3581 99.8811 30.7153C99.9517 30.1768 100.17 29.6682 100.512 29.2458C100.704 29.0781 100.928 28.951 101.17 28.8722C101.412 28.7933 101.668 28.7644 101.922 28.7871C102.14 28.7728 102.359 28.7728 102.577 28.7871V30.3965C102.476 30.3852 102.374 30.3852 102.273 30.3965C102.191 30.3866 102.109 30.3947 102.03 30.4202C101.952 30.4457 101.881 30.4881 101.821 30.5443C101.686 30.7471 101.601 30.9788 101.572 31.2207C101.447 31.8155 101.15 32.3608 100.718 32.7892C100.286 33.2175 99.7378 33.5102 99.1409 33.631C99.7715 33.7929 100.341 34.1363 100.777 34.6185C101.235 35.1744 101.533 35.8432 101.642 36.5545C101.679 36.8305 101.775 37.0955 101.922 37.332C102.068 37.4464 102.252 37.4994 102.436 37.4797C102.53 37.4881 102.624 37.4881 102.717 37.4797V39.097Z" fill="#3C4A6D"/>
<path fill-rule="evenodd" clip-rule="evenodd" d="M105.857 33.8724C105.793 34.8465 106.012 35.8184 106.488 36.6714C106.678 36.9729 106.945 37.2191 107.261 37.3856C107.576 37.552 107.93 37.6329 108.287 37.62C108.692 37.6434 109.096 37.5694 109.467 37.4043C109.837 37.2393 110.162 36.9879 110.414 36.6714C110.96 35.8442 111.218 34.8604 111.146 33.8724C111.146 31.4776 110.243 30.288 108.435 30.288C108.06 30.2702 107.686 30.3496 107.35 30.5186C107.014 30.6875 106.728 30.9402 106.519 31.2521C106.041 32.0401 105.811 32.9526 105.857 33.8724ZM103.932 33.8724C103.893 32.5386 104.326 31.2337 105.155 30.1869C105.546 29.6972 106.046 29.3056 106.616 29.0436C107.185 28.7817 107.809 28.6566 108.435 28.6785C109.074 28.6384 109.713 28.7387 110.308 28.9725C110.903 29.2063 111.439 29.5678 111.879 30.0314C112.739 31.1209 113.166 32.4884 113.079 33.8724C113.149 35.2774 112.703 36.6598 111.824 37.76C111.379 38.2463 110.83 38.6271 110.218 38.8746C109.606 39.1221 108.946 39.2301 108.287 39.1906C107.671 39.2292 107.054 39.1185 106.49 38.8681C105.926 38.6176 105.43 38.2348 105.046 37.7522C104.253 36.6185 103.861 35.2533 103.932 33.8724Z" fill="#3C4A6D"/>
<path fill-rule="evenodd" clip-rule="evenodd" d="M121.235 30.4592H116.6V39.0585H114.722V28.8652H121.235V30.4592Z" fill="#3C4A6D"/>
<path fill-rule="evenodd" clip-rule="evenodd" d="M124.196 33.8724C124.132 34.8465 124.351 35.8184 124.827 36.6714C125.018 36.9729 125.284 37.2191 125.6 37.3856C125.916 37.552 126.27 37.6329 126.627 37.62C127.031 37.6434 127.436 37.5694 127.806 37.4043C128.176 37.2393 128.501 36.9879 128.754 36.6714C129.3 35.8442 129.557 34.8604 129.486 33.8724C129.486 31.4776 128.582 30.288 126.775 30.288C126.399 30.2702 126.025 30.3496 125.689 30.5186C125.354 30.6875 125.067 30.9402 124.858 31.2521C124.381 32.0401 124.15 32.9526 124.196 33.8724ZM122.272 33.8724C122.233 32.5386 122.666 31.2337 123.495 30.1869C123.885 29.6972 124.385 29.3056 124.955 29.0436C125.525 28.7817 126.148 28.6566 126.775 28.6785C127.413 28.6384 128.052 28.7387 128.647 28.9725C129.242 29.2063 129.779 29.5678 130.218 30.0314C131.078 31.1209 131.505 32.4884 131.418 33.8724C131.488 35.2774 131.042 36.6598 130.164 37.76C129.718 38.2463 129.169 38.6271 128.557 38.8746C127.945 39.1221 127.286 39.2301 126.627 39.1906C126.01 39.2292 125.394 39.1185 124.829 38.8681C124.265 38.6176 123.77 38.2348 123.386 37.7522C122.593 36.6185 122.201 35.2533 122.272 33.8724Z" fill="#3C4A6D"/>
<path fill-rule="evenodd" clip-rule="evenodd" d="M145.122 39.097C144.919 39.1338 144.713 39.1495 144.506 39.1436C143.975 39.1815 143.449 39.0176 143.034 38.6849C142.646 38.2689 142.401 37.7407 142.333 37.1765C142.251 36.3914 141.914 35.6544 141.375 35.0772C140.822 34.6166 140.114 34.3856 139.396 34.4319H139.31V39.0581H137.471V28.8648H139.31V32.9001H139.458C140.144 32.9386 140.823 32.75 141.39 32.3636C141.889 31.948 142.212 31.359 142.294 30.7153C142.361 30.1758 142.58 29.6663 142.925 29.2458C143.115 29.078 143.337 28.9507 143.579 28.8719C143.82 28.793 144.075 28.7641 144.327 28.7871C144.548 28.7728 144.769 28.7728 144.99 28.7871V30.3965C144.886 30.385 144.781 30.385 144.678 30.3965C144.596 30.3877 144.514 30.3962 144.436 30.4217C144.358 30.4472 144.286 30.489 144.226 30.5443C144.094 30.7478 144.011 30.9795 143.984 31.2207C143.863 31.8085 143.573 32.3485 143.151 32.7757C142.716 33.2153 142.16 33.5157 141.554 33.6388C142.183 33.8027 142.752 34.1458 143.19 34.6262C143.641 35.1858 143.939 35.853 144.055 36.5623C144.085 36.8401 144.181 37.1067 144.335 37.3398C144.478 37.4537 144.66 37.5068 144.841 37.4875C144.935 37.4959 145.029 37.4959 145.122 37.4875V39.097Z" fill="#3C4A6D"/>
<path fill-rule="evenodd" clip-rule="evenodd" d="M148.698 30.4357V33.6935C149.017 33.6935 149.267 33.7402 149.438 33.7402C150.085 33.7863 150.731 33.646 151.3 33.3358C151.502 33.1761 151.661 32.969 151.763 32.7329C151.865 32.4968 151.907 32.2391 151.884 31.983C151.884 30.9333 151.012 30.4279 149.259 30.4279C149.072 30.4119 148.885 30.4119 148.698 30.4279V30.4357ZM148.698 35.303V39.0584H146.836V28.8651L149.017 28.7874C150.265 28.7027 151.511 28.958 152.624 29.526C153.009 29.776 153.319 30.1242 153.523 30.5344C153.728 30.9445 153.818 31.4018 153.785 31.8586C153.785 34.1963 152.37 35.3677 149.539 35.3729C149.258 35.375 148.978 35.3621 148.698 35.3341V35.303Z" fill="#3C4A6D"/>
<path fill-rule="evenodd" clip-rule="evenodd" d="M159.021 31.8434L157.766 35.6066H160.283L159.021 31.8434ZM161.607 39.0588L160.828 36.9906H157.237L156.52 39.0588H154.416L158.608 28.7178H159.387L163.594 39.0588H161.607Z" fill="#3C4A6D"/>
<path fill-rule="evenodd" clip-rule="evenodd" d="M170.169 33.3668V30.2567C169.714 30.2062 169.256 30.1829 168.798 30.1868C168.285 30.1634 167.777 30.2962 167.341 30.5678C167.158 30.6878 167.009 30.8535 166.909 31.0484C166.809 31.2434 166.762 31.4609 166.772 31.6796C166.772 32.7526 167.551 33.3046 169.11 33.3279L170.169 33.3668ZM171.992 39.0583H170.154V34.8285H169.717C169.039 34.7834 168.369 34.9882 167.832 35.404C167.328 35.8939 166.999 36.5361 166.897 37.2311C166.829 37.779 166.592 38.2924 166.219 38.7006C165.85 39.0162 165.372 39.1753 164.887 39.1438C164.676 39.151 164.464 39.1354 164.256 39.0972V37.4955C164.349 37.5039 164.443 37.5039 164.536 37.4955C164.63 37.5046 164.725 37.4901 164.812 37.4535C164.899 37.4168 164.976 37.3591 165.035 37.2855C165.157 37.0769 165.239 36.8475 165.277 36.6091C165.378 36.0651 165.621 35.5571 165.981 35.1356C166.34 34.7141 166.804 34.3938 167.326 34.2065C166.609 34.1015 165.947 33.7656 165.44 33.2502C165.086 32.8109 164.903 32.2585 164.926 31.6952C164.923 31.2868 165.012 30.883 165.188 30.5141C165.363 30.1451 165.62 29.8206 165.939 29.5648C166.813 28.9253 167.888 28.6192 168.969 28.7017C169.858 28.7017 170.87 28.7484 171.992 28.8339V39.0583Z" fill="#3C4A6D"/>
</g>
<defs>
<clipPath id="clip0_279_16">
<rect width="172" height="39" fill="white"/>
</clipPath>
</defs>
</svg>
