<svg width="77" height="99" viewBox="0 0 77 99" fill="none" xmlns="http://www.w3.org/2000/svg">
<path d="M76.2431 38.6285C76.2431 17.6428 59.3431 0.742798 38.3574 0.742798C17.3717 0.742798 0.47168 17.6428 0.47168 38.6285C0.47168 59.6142 38.3574 98.7999 38.3574 98.7999C38.3574 98.7999 76.2431 59.6142 76.2431 38.6285ZM20.7145 37.8857C20.7145 28.2285 28.7002 20.2428 38.3574 20.2428C48.0145 20.2428 56.0002 28.0428 56.0002 37.8857C56.0002 47.5428 48.2002 55.5285 38.3574 55.5285C28.7002 55.5285 20.7145 47.5428 20.7145 37.8857Z" fill="url(#paint0_linear_257_4)"/>
<circle cx="37.5" cy="38.5" r="23.5" fill="white"/>
<path d="M28.058 44V35.04L29.038 36.02H26.098V34.2H30.326V44H28.058ZM35.4724 34.032C36.3778 34.032 37.1571 34.2187 37.8104 34.592C38.4638 34.9653 38.9678 35.5113 39.3224 36.23C39.6771 36.9393 39.8544 37.826 39.8544 38.89C39.8544 40.0193 39.6398 40.976 39.2104 41.76C38.7904 42.544 38.2071 43.1413 37.4604 43.552C36.7138 43.9627 35.8458 44.168 34.8564 44.168C34.3431 44.168 33.8484 44.112 33.3724 44C32.8964 43.888 32.4858 43.72 32.1404 43.496L32.9804 41.83C33.2511 42.0167 33.5404 42.1473 33.8484 42.222C34.1564 42.2873 34.4784 42.32 34.8144 42.32C35.6544 42.32 36.3218 42.0633 36.8164 41.55C37.3204 41.0367 37.5724 40.276 37.5724 39.268C37.5724 39.1 37.5678 38.9133 37.5584 38.708C37.5491 38.5027 37.5258 38.2973 37.4884 38.092L38.1044 38.68C37.9458 39.044 37.7218 39.352 37.4324 39.604C37.1431 39.8467 36.8071 40.0333 36.4244 40.164C36.0418 40.2853 35.6124 40.346 35.1364 40.346C34.5111 40.346 33.9418 40.22 33.4284 39.968C32.9244 39.716 32.5184 39.3613 32.2104 38.904C31.9118 38.4467 31.7624 37.91 31.7624 37.294C31.7624 36.622 31.9258 36.0433 32.2524 35.558C32.5884 35.0727 33.0364 34.6993 33.5964 34.438C34.1658 34.1673 34.7911 34.032 35.4724 34.032ZM35.6124 35.726C35.2858 35.726 35.0011 35.7867 34.7584 35.908C34.5158 36.02 34.3244 36.188 34.1844 36.412C34.0444 36.6267 33.9744 36.8833 33.9744 37.182C33.9744 37.63 34.1238 37.9893 34.4224 38.26C34.7304 38.5213 35.1364 38.652 35.6404 38.652C35.9671 38.652 36.2564 38.5913 36.5084 38.47C36.7698 38.3393 36.9704 38.162 37.1104 37.938C37.2504 37.714 37.3204 37.462 37.3204 37.182C37.3204 36.902 37.2504 36.6547 37.1104 36.44C36.9798 36.216 36.7884 36.0433 36.5364 35.922C36.2844 35.7913 35.9764 35.726 35.6124 35.726ZM45.0025 44.168C44.1812 44.168 43.4625 44.0467 42.8465 43.804C42.2305 43.552 41.7498 43.202 41.4045 42.754C41.0592 42.2967 40.8865 41.7647 40.8865 41.158C40.8865 40.5513 41.0545 40.038 41.3905 39.618C41.7358 39.1887 42.2165 38.8667 42.8325 38.652C43.4485 38.428 44.1718 38.316 45.0025 38.316C45.8425 38.316 46.5705 38.428 47.1865 38.652C47.8118 38.8667 48.2925 39.1887 48.6285 39.618C48.9738 40.038 49.1465 40.5513 49.1465 41.158C49.1465 41.7647 48.9738 42.2967 48.6285 42.754C48.2832 43.202 47.7978 43.552 47.1725 43.804C46.5565 44.0467 45.8332 44.168 45.0025 44.168ZM45.0025 42.502C45.5718 42.502 46.0198 42.376 46.3465 42.124C46.6825 41.872 46.8505 41.5267 46.8505 41.088C46.8505 40.6493 46.6825 40.3087 46.3465 40.066C46.0198 39.814 45.5718 39.688 45.0025 39.688C44.4425 39.688 43.9992 39.814 43.6725 40.066C43.3458 40.3087 43.1825 40.6493 43.1825 41.088C43.1825 41.5267 43.3458 41.872 43.6725 42.124C43.9992 42.376 44.4425 42.502 45.0025 42.502ZM45.0025 39.464C44.2465 39.464 43.5838 39.3613 43.0145 39.156C42.4545 38.9507 42.0158 38.652 41.6985 38.26C41.3905 37.8587 41.2365 37.3827 41.2365 36.832C41.2365 36.2533 41.3952 35.7587 41.7125 35.348C42.0298 34.928 42.4732 34.606 43.0425 34.382C43.6118 34.1487 44.2652 34.032 45.0025 34.032C45.7585 34.032 46.4165 34.1487 46.9765 34.382C47.5458 34.606 47.9892 34.928 48.3065 35.348C48.6332 35.7587 48.7965 36.2533 48.7965 36.832C48.7965 37.3827 48.6378 37.8587 48.3205 38.26C48.0125 38.652 47.5738 38.9507 47.0045 39.156C46.4352 39.3613 45.7678 39.464 45.0025 39.464ZM45.0025 38.134C45.4785 38.134 45.8518 38.0267 46.1225 37.812C46.4025 37.5973 46.5425 37.3033 46.5425 36.93C46.5425 36.538 46.3978 36.2347 46.1085 36.02C45.8285 35.8053 45.4598 35.698 45.0025 35.698C44.5545 35.698 44.1905 35.8053 43.9105 36.02C43.6305 36.2347 43.4905 36.538 43.4905 36.93C43.4905 37.3033 43.6258 37.5973 43.8965 37.812C44.1672 38.0267 44.5358 38.134 45.0025 38.134Z" fill="black"/>
<defs>
<linearGradient id="paint0_linear_257_4" x1="38.3574" y1="0.742798" x2="38.3574" y2="98.7999" gradientUnits="userSpaceOnUse">
<stop stop-color="#5E93FE"/>
<stop offset="1" stop-color="#8E6CFD"/>
</linearGradient>
</defs>
</svg>
