<svg width="50" height="50" viewBox="0 0 50 50" fill="none" xmlns="http://www.w3.org/2000/svg">
<circle cx="25" cy="25" r="23.5" stroke="url(#paint0_linear_262_8)" stroke-width="3"/>
<path d="M18.16 36V13.6H27.376C30.32 13.6 32.6347 14.24 34.32 15.52C36.0267 16.7787 36.88 18.6453 36.88 21.12C36.88 23.5733 36.0267 25.44 34.32 26.72C32.6347 27.9787 30.32 28.608 27.376 28.608H20.464L22.32 26.688V36H18.16ZM22.32 27.136L20.464 25.248H27.344C29.0507 25.248 30.3627 24.896 31.28 24.192C32.2187 23.4667 32.688 22.4533 32.688 21.152C32.688 19.8507 32.2187 18.8587 31.28 18.176C30.3627 17.472 29.0507 17.12 27.344 17.12H20.464L22.32 15.072V27.136ZM14.96 32.672V30.432H29.36V32.672H14.96Z" fill="#25C0A4"/>
<defs>
<linearGradient id="paint0_linear_262_8" x1="25" y1="0" x2="25" y2="50" gradientUnits="userSpaceOnUse">
<stop stop-color="#41D79F"/>
<stop offset="1" stop-color="#29C4A5"/>
</linearGradient>
</defs>
</svg>
