<svg width="19" height="13" viewBox="0 0 19 13" fill="none" xmlns="http://www.w3.org/2000/svg">
<path fill-rule="evenodd" clip-rule="evenodd" d="M8.63636 6.5C8.15964 6.5 7.77273 6.136 7.77273 5.6875C7.77273 5.239 8.15964 4.875 8.63636 4.875C9.11309 4.875 9.5 5.239 9.5 5.6875C9.5 6.136 9.11309 6.5 8.63636 6.5ZM9.5 3.25C7.59223 3.25 6.04545 4.70519 6.04545 6.5C6.04545 8.29481 7.59223 9.75 9.5 9.75C11.4078 9.75 12.9545 8.29481 12.9545 6.5C12.9545 4.70519 11.4078 3.25 9.5 3.25ZM9.5 11.375C6.16895 11.375 3.16436 9.438 1.84818 6.5C3.16436 3.562 6.16895 1.625 9.5 1.625C12.831 1.625 15.8356 3.562 17.1518 6.5C15.8356 9.438 12.831 11.375 9.5 11.375ZM9.5 0C5.11445 0 1.38182 2.71131 0 6.5C1.38182 10.2887 5.11445 13 9.5 13C13.8855 13 17.6182 10.2887 19 6.5C17.6182 2.71131 13.8855 0 9.5 0Z" fill="black"/>
</svg>
