<svg width="46" height="48" viewBox="0 0 46 48" fill="none" xmlns="http://www.w3.org/2000/svg">
<path d="M34.6248 0.196411C35.488 0.196411 36.1974 0.855037 36.2779 1.69719L36.2855 1.85713L36.287 3.03845C38.443 3.18885 39.5239 3.56563 40.6115 4.14728C42.0549 4.91922 43.1877 6.05199 43.9596 7.49538C44.7316 8.93877 45.1426 10.3705 45.1426 14.3186V35.8956C45.1426 39.8438 44.7316 41.2755 43.9596 42.7189C43.1877 44.1623 42.0549 45.295 40.6115 46.067C39.1681 46.8389 37.7365 47.25 33.7883 47.25H12.2113C8.26313 47.25 6.83143 46.8389 5.38805 46.067C3.94466 45.295 2.81188 44.1623 2.03995 42.7189C1.26802 41.2755 0.856934 39.8438 0.856934 35.8956V14.3186C0.856934 10.3705 1.26802 8.93877 2.03995 7.49538C2.81188 6.05199 3.94466 4.91922 5.38805 4.14728C6.47584 3.56553 7.55699 3.18872 9.71366 3.03837L9.71408 1.85713C9.71408 0.939938 10.4576 0.196411 11.3748 0.196411C12.238 0.196411 12.9474 0.855037 13.0279 1.69719L13.0355 1.85713V2.96427H32.9641V1.85713C32.9641 0.939938 33.7076 0.196411 34.6248 0.196411ZM41.8212 17.3571H4.17836L4.17928 36.2442C4.19475 39.0758 4.40656 40.1011 4.96883 41.1525C5.4312 42.0171 6.08986 42.6757 6.95443 43.1381C8.04783 43.7228 9.11308 43.9286 12.2113 43.9286H33.7883C36.8865 43.9286 37.9518 43.7228 39.0452 43.1381C39.9097 42.6757 40.5684 42.0171 41.0308 41.1525C41.6155 40.0591 41.8212 38.9938 41.8212 35.8956V17.3571ZM12.7234 33.9643C13.2169 33.9643 13.3958 34.0157 13.5763 34.1121C13.7567 34.2086 13.8983 34.3502 13.9948 34.5307C14.0913 34.7111 14.1426 34.89 14.1426 35.3836V36.9735C14.1426 37.4671 14.0913 37.646 13.9948 37.8264C13.8983 38.0069 13.7567 38.1485 13.5763 38.245C13.3958 38.3415 13.2169 38.3928 12.7234 38.3928H11.1334C10.6399 38.3928 10.4609 38.3415 10.2805 38.245C10.1 38.1485 9.95844 38.0069 9.86195 37.8264C9.76546 37.646 9.71408 37.4671 9.71408 36.9735V35.3836C9.71408 34.89 9.76546 34.7111 9.86195 34.5307C9.95844 34.3502 10.1 34.2086 10.2805 34.1121C10.4609 34.0157 10.6399 33.9643 11.1334 33.9643H12.7234ZM23.7948 33.9643C24.2883 33.9643 24.4673 34.0157 24.6477 34.1121C24.8281 34.2086 24.9697 34.3502 25.0662 34.5307C25.1627 34.7111 25.2141 34.89 25.2141 35.3836V36.9735C25.2141 37.4671 25.1627 37.646 25.0662 37.8264C24.9697 38.0069 24.8281 38.1485 24.6477 38.245C24.4673 38.3415 24.2883 38.3928 23.7948 38.3928H22.2048C21.7113 38.3928 21.5323 38.3415 21.3519 38.245C21.1715 38.1485 21.0299 38.0069 20.9334 37.8264C20.8369 37.646 20.7855 37.4671 20.7855 36.9735V35.3836C20.7855 34.89 20.8369 34.7111 20.9334 34.5307C21.0299 34.3502 21.1715 34.2086 21.3519 34.1121C21.5323 34.0157 21.7113 33.9643 22.2048 33.9643H23.7948ZM34.8662 33.9643C35.3597 33.9643 35.5387 34.0157 35.7191 34.1121C35.8995 34.2086 36.0411 34.3502 36.1376 34.5307C36.2341 34.7111 36.2855 34.89 36.2855 35.3836V36.9735C36.2855 37.4671 36.2341 37.646 36.1376 37.8264C36.0411 38.0069 35.8995 38.1485 35.7191 38.245C35.5387 38.3415 35.3597 38.3928 34.8662 38.3928H33.2762C32.7827 38.3928 32.6037 38.3415 32.4233 38.245C32.2429 38.1485 32.1013 38.0069 32.0048 37.8264C31.9083 37.646 31.8569 37.4671 31.8569 36.9735V35.3836C31.8569 34.89 31.9083 34.7111 32.0048 34.5307C32.1013 34.3502 32.2429 34.2086 32.4233 34.1121C32.6037 34.0157 32.7827 33.9643 33.2762 33.9643H34.8662ZM12.7234 22.8928C13.2169 22.8928 13.3958 22.9442 13.5763 23.0407C13.7567 23.1372 13.8983 23.2788 13.9948 23.4592C14.0913 23.6397 14.1426 23.8186 14.1426 24.3121V25.9021C14.1426 26.3956 14.0913 26.5746 13.9948 26.755C13.8983 26.9354 13.7567 27.077 13.5763 27.1735C13.3958 27.27 13.2169 27.3214 12.7234 27.3214H11.1334C10.6399 27.3214 10.4609 27.27 10.2805 27.1735C10.1 27.077 9.95844 26.9354 9.86195 26.755C9.76546 26.5746 9.71408 26.3956 9.71408 25.9021V24.3121C9.71408 23.8186 9.76546 23.6397 9.86195 23.4592C9.95844 23.2788 10.1 23.1372 10.2805 23.0407C10.4609 22.9442 10.6399 22.8928 11.1334 22.8928H12.7234ZM23.7948 22.8928C24.2883 22.8928 24.4673 22.9442 24.6477 23.0407C24.8281 23.1372 24.9697 23.2788 25.0662 23.4592C25.1627 23.6397 25.2141 23.8186 25.2141 24.3121V25.9021C25.2141 26.3956 25.1627 26.5746 25.0662 26.755C24.9697 26.9354 24.8281 27.077 24.6477 27.1735C24.4673 27.27 24.2883 27.3214 23.7948 27.3214H22.2048C21.7113 27.3214 21.5323 27.27 21.3519 27.1735C21.1715 27.077 21.0299 26.9354 20.9334 26.755C20.8369 26.5746 20.7855 26.3956 20.7855 25.9021V24.3121C20.7855 23.8186 20.8369 23.6397 20.9334 23.4592C21.0299 23.2788 21.1715 23.1372 21.3519 23.0407C21.5323 22.9442 21.7113 22.8928 22.2048 22.8928H23.7948ZM34.8662 22.8928C35.3597 22.8928 35.5387 22.9442 35.7191 23.0407C35.8995 23.1372 36.0411 23.2788 36.1376 23.4592C36.2341 23.6397 36.2855 23.8186 36.2855 24.3121V25.9021C36.2855 26.3956 36.2341 26.5746 36.1376 26.755C36.0411 26.9354 35.8995 27.077 35.7191 27.1735C35.5387 27.27 35.3597 27.3214 34.8662 27.3214H33.2762C32.7827 27.3214 32.6037 27.27 32.4233 27.1735C32.2429 27.077 32.1013 26.9354 32.0048 26.755C31.9083 26.5746 31.8569 26.3956 31.8569 25.9021V24.3121C31.8569 23.8186 31.9083 23.6397 32.0048 23.4592C32.1013 23.2788 32.2429 23.1372 32.4233 23.0407C32.6037 22.9442 32.7827 22.8928 33.2762 22.8928H34.8662ZM32.9641 6.2857H13.0355V6.83927C13.0355 7.75646 12.292 8.49998 11.3748 8.49998C10.5116 8.49998 9.80215 7.84136 9.72168 6.99921L9.71408 6.83927L9.7133 6.36077C8.39939 6.46508 7.68316 6.68643 6.95443 7.07616C6.08986 7.53854 5.4312 8.1972 4.96883 9.06176C4.40656 10.1131 4.19475 11.1384 4.17928 13.97L4.17836 14.0357H41.8201L41.8203 13.97C41.8048 11.1384 41.593 10.1131 41.0308 9.06176C40.5684 8.1972 39.9097 7.53854 39.0452 7.07616C38.3166 6.68654 37.6006 6.4652 36.2874 6.36086L36.2855 6.83927C36.2855 7.75646 35.542 8.49998 34.6248 8.49998C33.7616 8.49998 33.0521 7.84136 32.9717 6.99921L32.9641 6.83927V6.2857Z" fill="white"/>
</svg>
