<svg width="25" height="25" viewBox="0 0 25 25" fill="none" xmlns="http://www.w3.org/2000/svg">
<g clip-path="url(#clip0_108_2654)">
<path d="M16.3461 3.62241C16.1922 3.46889 15.9918 3.39194 15.7907 3.39194C15.5895 3.39194 15.3887 3.46889 15.2352 3.62241C14.9286 3.92905 14.9286 4.42632 15.2352 4.73296L22.1903 11.6884L0.791455 11.6884C0.357471 11.6884 0.00590813 12.04 0.00590817 12.4736C0.00590821 12.9072 0.35708 13.2591 0.791455 13.2591L22.1903 13.2591L15.2352 20.215C14.9286 20.5216 14.9286 21.0189 15.2352 21.3255C15.5418 21.6322 16.0391 21.6326 16.3461 21.3255L24.6418 13.0291C24.9485 12.722 24.9485 12.2251 24.6418 11.9185L16.3461 3.62241Z" fill="white" stroke="white"/>
</g>
<defs>
<clipPath id="clip0_108_2654">
<rect width="25" height="25" fill="white" transform="translate(25 25) rotate(180)"/>
</clipPath>
</defs>
</svg>
