<svg width="32" height="36" viewBox="0 0 32 36" fill="none" xmlns="http://www.w3.org/2000/svg">
<path d="M7.25 18H10.75V21.5H7.25V18Z" fill="#6987DF"/>
<path d="M7.25 25H10.75V28.5H7.25V25Z" fill="#6987DF"/>
<path d="M17.75 18H14.25V21.5H17.75V18Z" fill="#6987DF"/>
<path d="M14.25 25H17.75V28.5H14.25V25Z" fill="#6987DF"/>
<path d="M24.75 18H21.25V21.5H24.75V18Z" fill="#6987DF"/>
<path d="M21.25 25H24.75V28.5H21.25V25Z" fill="#6987DF"/>
<path fill-rule="evenodd" clip-rule="evenodd" d="M28.25 35.5H3.75C1.81975 35.5 0.25 33.9302 0.25 32V7.5C0.25 5.56975 1.81975 4 3.75 4H7.25V0.5H10.75V4H21.25V0.5H24.75V4H28.25C30.1803 4 31.75 5.56975 31.75 7.5V32C31.75 33.9302 30.1803 35.5 28.25 35.5ZM28.2502 11L28.25 7.5H3.75V11H28.2502ZM28.2505 14.5L28.2517 32H3.75V14.5H28.2505Z" fill="#6987DF"/>
</svg>
