<svg width="28" height="38" viewBox="0 0 28 38" fill="none" xmlns="http://www.w3.org/2000/svg">
<path fill-rule="evenodd" clip-rule="evenodd" d="M24.292 37.2084H3.70866C1.95987 37.2084 0.541992 35.7905 0.541992 34.0417V3.95841C0.541992 2.20962 1.95987 0.791748 3.70866 0.791748H18.7289C18.7305 0.791748 18.7329 0.791748 18.7345 0.791748H18.7503C19.0037 0.791748 19.2198 0.919206 19.3647 1.10446L27.1459 8.88575C27.332 9.03062 27.4587 9.24675 27.4587 9.50008V9.51671C27.4587 9.51829 27.4587 9.51908 27.4587 9.52067V34.0417C27.4587 35.7905 26.0408 37.2084 24.292 37.2084ZM19.542 3.46837V8.70842H24.782L19.542 3.46837ZM25.8753 10.2917H18.7503C18.3125 10.2917 17.9587 9.93708 17.9587 9.50008V2.37508H3.70866C2.83466 2.37508 2.12533 3.08441 2.12533 3.95841V34.0417C2.12533 34.9157 2.83466 35.6251 3.70866 35.6251H24.292C25.166 35.6251 25.8753 34.9157 25.8753 34.0417V10.2917ZM21.1253 30.8751H6.87533C6.43753 30.8751 6.08366 30.5212 6.08366 30.0834C6.08366 29.6464 6.43753 29.2917 6.87533 29.2917H21.1253C21.5631 29.2917 21.917 29.6464 21.917 30.0834C21.917 30.5212 21.5631 30.8751 21.1253 30.8751ZM21.1253 24.5417H6.87533C6.43753 24.5417 6.08366 24.1879 6.08366 23.7501C6.08366 23.3131 6.43753 22.9584 6.87533 22.9584H21.1253C21.5631 22.9584 21.917 23.3131 21.917 23.7501C21.917 24.1879 21.5631 24.5417 21.1253 24.5417ZM21.1253 18.2084H6.87533C6.43753 18.2084 6.08366 17.8545 6.08366 17.4167C6.08366 16.9797 6.43753 16.6251 6.87533 16.6251H21.1253C21.5631 16.6251 21.917 16.9797 21.917 17.4167C21.917 17.8545 21.5631 18.2084 21.1253 18.2084Z" fill="#25C0A4"/>
</svg>
