<svg width="28" height="38" viewBox="0 0 28 38" fill="none" xmlns="http://www.w3.org/2000/svg">
<path fill-rule="evenodd" clip-rule="evenodd" d="M24.2915 37.2084H3.70817C1.95938 37.2084 0.541504 35.7905 0.541504 34.0417V3.95841C0.541504 2.20962 1.95938 0.791748 3.70817 0.791748H18.7285C18.73 0.791748 18.7324 0.791748 18.734 0.791748H18.7498C19.0032 0.791748 19.2193 0.919206 19.3642 1.10446L27.1455 8.88575C27.3315 9.03062 27.4582 9.24675 27.4582 9.50008V9.51671C27.4582 9.51829 27.4582 9.51908 27.4582 9.52066V34.0417C27.4582 35.7905 26.0403 37.2084 24.2915 37.2084ZM19.5415 3.46837V8.70841H24.7815L19.5415 3.46837ZM25.8748 10.2917H18.7498C18.312 10.2917 17.9582 9.93708 17.9582 9.50008V2.37508H3.70817C2.83417 2.37508 2.12484 3.08441 2.12484 3.95841V34.0417C2.12484 34.9157 2.83417 35.6251 3.70817 35.6251H24.2915C25.1655 35.6251 25.8748 34.9157 25.8748 34.0417V10.2917ZM21.1248 30.8751H6.87484C6.43705 30.8751 6.08317 30.5212 6.08317 30.0834C6.08317 29.6464 6.43705 29.2917 6.87484 29.2917H21.1248C21.5626 29.2917 21.9165 29.6464 21.9165 30.0834C21.9165 30.5212 21.5626 30.8751 21.1248 30.8751ZM21.1248 24.5417H6.87484C6.43705 24.5417 6.08317 24.1879 6.08317 23.7501C6.08317 23.3131 6.43705 22.9584 6.87484 22.9584H21.1248C21.5626 22.9584 21.9165 23.3131 21.9165 23.7501C21.9165 24.1879 21.5626 24.5417 21.1248 24.5417ZM21.1248 18.2084H6.87484C6.43705 18.2084 6.08317 17.8545 6.08317 17.4167C6.08317 16.9797 6.43705 16.6251 6.87484 16.6251H21.1248C21.5626 16.6251 21.9165 16.9797 21.9165 17.4167C21.9165 17.8545 21.5626 18.2084 21.1248 18.2084Z" fill="#25C0A4"/>
</svg>
