<svg width="25" height="28" viewBox="0 0 25 28" fill="none" xmlns="http://www.w3.org/2000/svg">
<path d="M5.95801 14H8.54917V16.6667H5.95801V14Z" fill="#6987DF"/>
<path d="M5.95801 19.3333H8.54917V21.9999H5.95801V19.3333Z" fill="#6987DF"/>
<path d="M13.7308 14H11.1396V16.6667H13.7308V14Z" fill="#6987DF"/>
<path d="M11.1396 19.3333H13.7308V21.9999H11.1396V19.3333Z" fill="#6987DF"/>
<path d="M18.9134 14H16.3223V16.6667H18.9134V14Z" fill="#6987DF"/>
<path d="M16.3223 19.3333H18.9134V21.9999H16.3223V19.3333Z" fill="#6987DF"/>
<path fill-rule="evenodd" clip-rule="evenodd" d="M21.5047 27.3334H3.36656C1.93753 27.3334 0.775391 26.1374 0.775391 24.6667V6.00008C0.775391 4.52941 1.93753 3.33341 3.36656 3.33341H5.95772V0.666748H8.54888V3.33341H16.3224V0.666748H18.9135V3.33341H21.5047C22.9337 3.33341 24.0959 4.52941 24.0959 6.00008V24.6667C24.0959 26.1374 22.9337 27.3334 21.5047 27.3334ZM21.5048 8.66675L21.5047 6.00008H3.36656V8.66675H21.5048ZM21.5051 11.3334L21.506 24.6667H3.36656V11.3334H21.5051Z" fill="#6987DF"/>
</svg>
