<svg width="9" height="13" viewBox="0 0 9 13" fill="none" xmlns="http://www.w3.org/2000/svg">
<path fill-rule="evenodd" clip-rule="evenodd" d="M8.18573 5.35822e-05H6.59774C6.53539 -0.00230638 6.47355 0.0131729 6.41841 0.0449387C6.36326 0.0767044 6.31674 0.123651 6.28348 0.181092L0.712246 10.9265C0.712246 10.9265 0.712246 10.9265 0.712246 10.9405L0.0337944 12.25C-0.0752756 12.4512 0.0929504 12.7026 0.348063 12.7026H1.93605C1.9984 12.705 2.06024 12.6895 2.11539 12.6577C2.17053 12.626 2.21705 12.579 2.25032 12.5216L7.82155 1.77619C7.82131 1.7715 7.82131 1.7668 7.82155 1.76211L8.5 0.452637C8.60907 0.241431 8.44084 5.35822e-05 8.18573 5.35822e-05Z" fill="#25C0A4"/>
</svg>
