<svg width="22" height="16" viewBox="0 0 22 16" fill="none" xmlns="http://www.w3.org/2000/svg">
<path d="M7.76948 15.6156C7.90067 15.7465 8.07149 15.8121 8.24297 15.8121C8.41445 15.8121 8.5856 15.7465 8.71646 15.6156C8.97785 15.3543 8.97785 14.9304 8.71646 14.669L2.78782 8.74001L21.0286 8.74001C21.3985 8.74001 21.6982 8.44033 21.6982 8.07073C21.6982 7.70112 21.3989 7.40111 21.0286 7.40111L2.78782 7.40111L8.71646 1.4718C8.97785 1.21041 8.97785 0.786531 8.71646 0.525144C8.45508 0.263758 8.0312 0.263425 7.76948 0.525144L0.698054 7.59723C0.436667 7.85895 0.436667 8.2825 0.698054 8.54389L7.76948 15.6156Z" fill="white"/>
</svg>
