<svg width="77" height="99" viewBox="0 0 77 99" fill="none" xmlns="http://www.w3.org/2000/svg">
<path d="M76.2431 38.6285C76.2431 17.6428 59.3431 0.742798 38.3574 0.742798C17.3717 0.742798 0.47168 17.6428 0.47168 38.6285C0.47168 59.6142 38.3574 98.7999 38.3574 98.7999C38.3574 98.7999 76.2431 59.6142 76.2431 38.6285ZM20.7145 37.8857C20.7145 28.2285 28.7003 20.2428 38.3574 20.2428C48.0145 20.2428 56.0002 28.0428 56.0002 37.8857C56.0002 47.5428 48.2002 55.5285 38.3574 55.5285C28.7003 55.5285 20.7145 47.5428 20.7145 37.8857Z" fill="url(#paint0_linear_257_3)"/>
<circle cx="37.5" cy="38.5" r="23.5" fill="white"/>
<path d="M26.462 44V42.53L30.242 38.96C30.5407 38.6893 30.76 38.4467 30.9 38.232C31.04 38.0173 31.1333 37.8213 31.18 37.644C31.236 37.4667 31.264 37.3033 31.264 37.154C31.264 36.762 31.1287 36.4633 30.858 36.258C30.5967 36.0433 30.2093 35.936 29.696 35.936C29.2853 35.936 28.9027 36.0153 28.548 36.174C28.2027 36.3327 27.9087 36.58 27.666 36.916L26.014 35.852C26.3873 35.292 26.91 34.8487 27.582 34.522C28.254 34.1953 29.0287 34.032 29.906 34.032C30.634 34.032 31.2687 34.1533 31.81 34.396C32.3607 34.6293 32.7853 34.9607 33.084 35.39C33.392 35.8193 33.546 36.3327 33.546 36.93C33.546 37.2473 33.504 37.5647 33.42 37.882C33.3453 38.19 33.1867 38.5167 32.944 38.862C32.7107 39.2073 32.3653 39.5947 31.908 40.024L28.772 42.978L28.338 42.152H33.868V44H26.462ZM36.3158 44V35.04L37.2958 36.02H34.3558V34.2H38.5838V44H36.3158ZM40.2022 44V42.53L43.9822 38.96C44.2809 38.6893 44.5002 38.4467 44.6402 38.232C44.7802 38.0173 44.8736 37.8213 44.9202 37.644C44.9762 37.4667 45.0042 37.3033 45.0042 37.154C45.0042 36.762 44.8689 36.4633 44.5982 36.258C44.3369 36.0433 43.9496 35.936 43.4362 35.936C43.0256 35.936 42.6429 36.0153 42.2882 36.174C41.9429 36.3327 41.6489 36.58 41.4062 36.916L39.7542 35.852C40.1276 35.292 40.6502 34.8487 41.3222 34.522C41.9942 34.1953 42.7689 34.032 43.6462 34.032C44.3742 34.032 45.0089 34.1533 45.5502 34.396C46.1009 34.6293 46.5256 34.9607 46.8242 35.39C47.1322 35.8193 47.2862 36.3327 47.2862 36.93C47.2862 37.2473 47.2442 37.5647 47.1602 37.882C47.0856 38.19 46.9269 38.5167 46.6842 38.862C46.4509 39.2073 46.1056 39.5947 45.6482 40.024L42.5122 42.978L42.0782 42.152H47.6082V44H40.2022Z" fill="black"/>
<defs>
<linearGradient id="paint0_linear_257_3" x1="38.3574" y1="0.742798" x2="38.3574" y2="98.7999" gradientUnits="userSpaceOnUse">
<stop stop-color="#5E93FE"/>
<stop offset="1" stop-color="#8E6CFD"/>
</linearGradient>
</defs>
</svg>
