<svg width="77" height="99" viewBox="0 0 77 99" fill="none" xmlns="http://www.w3.org/2000/svg">
<path d="M76.2441 38.6284C76.2441 17.6427 59.3441 0.742676 38.3584 0.742676C17.3727 0.742676 0.472656 17.6427 0.472656 38.6284C0.472656 59.6141 38.3584 98.7998 38.3584 98.7998C38.3584 98.7998 76.2441 59.6141 76.2441 38.6284ZM20.7155 37.8855C20.7155 28.2284 28.7012 20.2427 38.3584 20.2427C48.0155 20.2427 56.0012 28.0427 56.0012 37.8855C56.0012 47.5427 48.2012 55.5284 38.3584 55.5284C28.7012 55.5284 20.7155 47.5427 20.7155 37.8855Z" fill="url(#paint0_linear_257_3)"/>
<circle cx="37.5" cy="38.5" r="23.5" fill="white"/>
<defs>
<linearGradient id="paint0_linear_257_3" x1="38.3584" y1="0.742676" x2="38.3584" y2="98.7998" gradientUnits="userSpaceOnUse">
<stop stop-color="#5E93FE"/>
<stop offset="1" stop-color="#8E6CFD"/>
</linearGradient>
</defs>
</svg>
