<svg width="15" height="15" viewBox="0 0 15 15" fill="none" xmlns="http://www.w3.org/2000/svg">
<path d="M10.8418 1.86009C9.64227 0.660583 8.04744 0 6.35101 0C4.65457 0 3.05971 0.660583 1.86018 1.86009C0.660615 3.05956 0 4.65434 0 6.35067C0 8.04702 0.660615 9.64181 1.86018 10.8413C3.05971 12.0408 4.6546 12.7014 6.35101 12.7014C8.04741 12.7014 9.64227 12.0408 10.8418 10.8413C12.0414 9.64181 12.702 8.04702 12.702 6.35067C12.702 4.65434 12.0414 3.05956 10.8418 1.86009ZM6.35098 11.4896C3.51724 11.4896 1.21184 9.18427 1.21184 6.35067C1.21184 3.51707 3.51727 1.21178 6.35101 1.21178C9.18475 1.21178 11.4901 3.51707 11.4901 6.35067C11.4901 9.18427 9.18472 11.4896 6.35098 11.4896Z" fill="#25C0A4"/>
<path d="M14.8225 13.9649L10.8393 9.98191C10.6027 9.74529 10.219 9.74529 9.98238 9.98191C9.74578 10.2185 9.74578 10.6022 9.98238 10.8388L13.9656 14.8218C14.0839 14.9401 14.239 14.9993 14.3941 14.9993C14.5491 14.9993 14.7042 14.9401 14.8225 14.8218C15.0591 14.5852 15.0591 14.2016 14.8225 13.9649Z" fill="#25C0A4"/>
</svg>
