<svg width="17" height="17" viewBox="0 0 17 17" fill="none" xmlns="http://www.w3.org/2000/svg">
<path d="M12.1268 2.86018C10.937 1.66062 9.35514 1 7.67248 1C5.98982 1 4.40791 1.66062 3.21812 2.86018C2.0283 4.05971 1.37305 5.65458 1.37305 7.35099C1.37305 9.04743 2.0283 10.6423 3.21812 11.8418C4.40791 13.0414 5.98985 13.702 7.67248 13.702C9.35511 13.702 10.937 13.0414 12.1268 11.8418C13.3166 10.6423 13.9719 9.04743 13.9719 7.35099C13.9719 5.65458 13.3166 4.05971 12.1268 2.86018ZM7.67245 12.4901C4.86172 12.4901 2.57504 10.1847 2.57504 7.35099C2.57504 4.51724 4.86175 2.21184 7.67248 2.21184C10.4832 2.21184 12.7699 4.51724 12.7699 7.35099C12.7699 10.1847 10.4832 12.4901 7.67245 12.4901Z" fill="white" stroke="white"/>
<path d="M16.0755 14.9656L12.1246 10.9824C11.8899 10.7458 11.5094 10.7458 11.2746 10.9824C11.04 11.219 11.04 11.6027 11.2746 11.8393L15.2255 15.8226C15.3429 15.9409 15.4967 16 15.6505 16C15.8043 16 15.9582 15.9409 16.0755 15.8226C16.3102 15.5859 16.3102 15.2023 16.0755 14.9656Z" fill="white" stroke="white"/>
</svg>
