<svg width="26" height="26" viewBox="0 0 26 26" fill="none" xmlns="http://www.w3.org/2000/svg">
<path d="M24.4181 6.95467C24.2895 6.44054 24.0274 5.96946 23.6583 5.58903C23.2893 5.2086 22.8265 4.93229 22.3165 4.78801C20.4531 4.33301 12.9998 4.33301 12.9998 4.33301C12.9998 4.33301 5.54647 4.33301 3.68314 4.83134C3.17316 4.97562 2.71028 5.25194 2.34126 5.63236C1.97225 6.01279 1.71016 6.48387 1.58147 6.99801C1.24045 8.88903 1.07364 10.8073 1.08314 12.7288C1.07098 14.6648 1.2378 16.5978 1.58147 18.503C1.72334 19.0012 1.9913 19.4543 2.35946 19.8187C2.72762 20.1831 3.18353 20.4463 3.68314 20.583C5.54647 21.0813 12.9998 21.0813 12.9998 21.0813C12.9998 21.0813 20.4531 21.0813 22.3165 20.583C22.8265 20.4387 23.2893 20.1624 23.6583 19.782C24.0274 19.4016 24.2895 18.9305 24.4181 18.4163C24.7565 16.5396 24.9233 14.6359 24.9165 12.7288C24.9286 10.7929 24.7618 8.85993 24.4181 6.95467V6.95467Z" stroke="white" stroke-width="2" stroke-linecap="round" stroke-linejoin="round"/>
<path d="M10.5625 16.2715L16.7917 12.729L10.5625 9.18652V16.2715Z" stroke="white" stroke-width="2" stroke-linecap="round" stroke-linejoin="round"/>
</svg>
