<svg width="21" height="16" viewBox="0 0 21 16" fill="none" xmlns="http://www.w3.org/2000/svg">
<g clip-path="url(#clip0_16_858)">
<path d="M19.7225 3.6175C19.6186 3.20223 19.4069 2.82175 19.1088 2.51448C18.8108 2.20721 18.4369 1.98404 18.025 1.8675C16.52 1.5 10.5 1.5 10.5 1.5C10.5 1.5 4.48001 1.5 2.97501 1.9025C2.5631 2.01904 2.18924 2.24221 1.89119 2.54948C1.59314 2.85675 1.38145 3.23723 1.27751 3.6525C1.00207 5.17986 0.867343 6.72927 0.875012 8.28125C0.865194 9.84491 0.999934 11.4061 1.27751 12.945C1.3921 13.3474 1.60853 13.7134 1.90589 14.0077C2.20325 14.302 2.57148 14.5146 2.97501 14.625C4.48001 15.0275 10.5 15.0275 10.5 15.0275C10.5 15.0275 16.52 15.0275 18.025 14.625C18.4369 14.5085 18.8108 14.2853 19.1088 13.978C19.4069 13.6707 19.6186 13.2903 19.7225 12.875C19.9958 11.3591 20.1305 9.82154 20.125 8.28125C20.1348 6.71759 20.0001 5.15636 19.7225 3.6175V3.6175Z" stroke="#25C0A4" stroke-width="2" stroke-linecap="round" stroke-linejoin="round"/>
<path d="M8.53125 11.1424L13.5625 8.28117L8.53125 5.41992V11.1424Z" stroke="#25C0A4" stroke-width="2" stroke-linecap="round" stroke-linejoin="round"/>
</g>
<defs>
<clipPath id="clip0_16_858">
<rect width="21" height="16" fill="white"/>
</clipPath>
</defs>
</svg>
