<svg width="26" height="20" viewBox="0 0 26 20" fill="none" xmlns="http://www.w3.org/2000/svg">
<path d="M9.00001 19.2329C9.16007 19.3925 9.36848 19.4725 9.5777 19.4725C9.78692 19.4725 9.99573 19.3925 10.1554 19.2329C10.4743 18.914 10.4743 18.3968 10.1554 18.0779L2.92211 10.8442L25.1769 10.8442C25.6282 10.8442 25.9939 10.4786 25.9939 10.0276C25.9939 9.5767 25.6286 9.21067 25.1769 9.21067L2.92211 9.21067L10.1554 1.97658C10.4743 1.65767 10.4743 1.14051 10.1554 0.821607C9.83648 0.502701 9.31932 0.502295 9.00001 0.821607L0.37248 9.44995C0.0535742 9.76926 0.0535742 10.286 0.37248 10.6049L9.00001 19.2329Z" fill="white"/>
</svg>
