<svg width="26" height="20" viewBox="0 0 26 20" fill="none" xmlns="http://www.w3.org/2000/svg">
<path d="M17 0.767141C16.8399 0.607484 16.6315 0.527452 16.4223 0.527452C16.2131 0.527452 16.0043 0.607484 15.8446 0.76714C15.5257 1.08605 15.5257 1.6032 15.8446 1.92211L23.0779 9.1558L0.823113 9.1558C0.37177 9.1558 0.00614444 9.52142 0.0061444 9.97236C0.00614436 10.4233 0.371363 10.7893 0.823113 10.7893L23.0779 10.7893L15.8446 18.0234C15.5257 18.3423 15.5257 18.8595 15.8446 19.1784C16.1635 19.4973 16.6807 19.4977 17 19.1784L25.6275 10.55C25.9464 10.2307 25.9464 9.71399 25.6275 9.39508L17 0.767141Z" fill="white"/>
</svg>
