<svg width="93" height="119" viewBox="0 0 93 119" fill="none" xmlns="http://www.w3.org/2000/svg">
<g filter="url(#filter0_d_207_3)">
<path d="M84.2431 38.6285C84.2431 17.6428 67.3431 0.742798 46.3574 0.742798C25.3717 0.742798 8.47168 17.6428 8.47168 38.6285C8.47168 59.6142 46.3574 98.7999 46.3574 98.7999C46.3574 98.7999 84.2431 59.6142 84.2431 38.6285ZM28.7145 37.8857C28.7145 28.2285 36.7003 20.2428 46.3574 20.2428C56.0145 20.2428 64.0002 28.0428 64.0002 37.8857C64.0002 47.5428 56.2002 55.5285 46.3574 55.5285C36.7003 55.5285 28.7145 47.5428 28.7145 37.8857Z" fill="url(#paint0_linear_207_3)"/>
</g>
<circle cx="45.5" cy="38.5" r="23.5" fill="white"/>
<path d="M42.868 42.152V44H35.462V42.53L39.242 38.96C39.6433 38.5773 39.914 38.2507 40.054 37.98C40.194 37.7 40.264 37.4247 40.264 37.154C40.264 36.762 40.1287 36.4633 39.858 36.258C39.5967 36.0433 39.2093 35.936 38.696 35.936C38.2667 35.936 37.8793 36.02 37.534 36.188C37.1887 36.3467 36.8993 36.5893 36.666 36.916L35.014 35.852C35.3967 35.2827 35.924 34.8393 36.596 34.522C37.268 34.1953 38.038 34.032 38.906 34.032C39.634 34.032 40.2687 34.1533 40.81 34.396C41.3607 34.6293 41.7853 34.9653 42.084 35.404C42.392 35.8333 42.546 36.342 42.546 36.93C42.546 37.462 42.434 37.9613 42.21 38.428C41.986 38.8947 41.552 39.4267 40.908 40.024L38.654 42.152H42.868ZM47.5838 34.2V44H45.3158V36.02H43.3558V34.2H47.5838ZM56.6082 42.152V44H49.2022V42.53L52.9822 38.96C53.3836 38.5773 53.6542 38.2507 53.7942 37.98C53.9342 37.7 54.0042 37.4247 54.0042 37.154C54.0042 36.762 53.8689 36.4633 53.5982 36.258C53.3369 36.0433 52.9496 35.936 52.4362 35.936C52.0069 35.936 51.6196 36.02 51.2742 36.188C50.9289 36.3467 50.6396 36.5893 50.4062 36.916L48.7542 35.852C49.1369 35.2827 49.6642 34.8393 50.3362 34.522C51.0082 34.1953 51.7782 34.032 52.6462 34.032C53.3742 34.032 54.0089 34.1533 54.5502 34.396C55.1009 34.6293 55.5256 34.9653 55.8242 35.404C56.1322 35.8333 56.2862 36.342 56.2862 36.93C56.2862 37.462 56.1742 37.9613 55.9502 38.428C55.7262 38.8947 55.2922 39.4267 54.6482 40.024L52.3942 42.152H56.6082Z" fill="black"/>
<defs>
<filter id="filter0_d_207_3" x="0.47168" y="0.742798" width="91.7715" height="118.057" filterUnits="userSpaceOnUse" color-interpolation-filters="sRGB">
<feFlood flood-opacity="0" result="BackgroundImageFix"/>
<feColorMatrix in="SourceAlpha" type="matrix" values="0 0 0 0 0 0 0 0 0 0 0 0 0 0 0 0 0 0 127 0" result="hardAlpha"/>
<feOffset dy="12"/>
<feGaussianBlur stdDeviation="4"/>
<feComposite in2="hardAlpha" operator="out"/>
<feColorMatrix type="matrix" values="0 0 0 0 0.158333 0 0 0 0 0.158333 0 0 0 0 0.158333 0 0 0 0.25 0"/>
<feBlend mode="normal" in2="BackgroundImageFix" result="effect1_dropShadow_207_3"/>
<feBlend mode="normal" in="SourceGraphic" in2="effect1_dropShadow_207_3" result="shape"/>
</filter>
<linearGradient id="paint0_linear_207_3" x1="46.3574" y1="0.742798" x2="46.3574" y2="98.7999" gradientUnits="userSpaceOnUse">
<stop stop-color="#5E93FE"/>
<stop offset="1" stop-color="#8E6CFD"/>
</linearGradient>
</defs>
</svg>
