<svg width="251" height="50" viewBox="0 0 251 50" fill="none" xmlns="http://www.w3.org/2000/svg">
<path fill-rule="evenodd" clip-rule="evenodd" d="M89.8796 13.2358H88.0799L87.0048 7.74648L84.8935 13.3679H84.2391L82.1122 7.74648L80.9826 13.2358H79.1985L81.302 3.04248H82.2836L84.5585 9.90798L86.7633 3.04248H87.7449L89.8796 13.2358Z" fill="#3C4A6D"/>
<path fill-rule="evenodd" clip-rule="evenodd" d="M99.4233 13.236H97.5613V6.37824L92.0922 13.3915H91.3053V3.04267H93.1595V9.9004L98.6364 2.87939H99.4233V13.236Z" fill="#3C4A6D"/>
<path fill-rule="evenodd" clip-rule="evenodd" d="M107.604 13.2358V8.6484H103.436V13.2358H101.581V3.04248H103.436V7.03116H107.604V3.04248H109.434V13.2358H107.604Z" fill="#3C4A6D"/>
<path fill-rule="evenodd" clip-rule="evenodd" d="M119.71 13.236H117.856V6.37824L112.379 13.3915H111.592V3.04267H113.454V9.9004L118.924 2.87939H119.71V13.236Z" fill="#3C4A6D"/>
<path fill-rule="evenodd" clip-rule="evenodd" d="M129.02 3.58678L128.241 5.0796C127.683 4.61996 126.967 4.39668 126.247 4.45759C125.819 4.44579 125.395 4.54142 125.014 4.73569C124.633 4.92995 124.307 5.21663 124.065 5.56944C123.523 6.35379 123.25 7.29203 123.286 8.24411C123.252 9.15974 123.526 10.0604 124.065 10.8022C124.306 11.1247 124.622 11.3833 124.986 11.5555C125.35 11.7277 125.751 11.8081 126.153 11.7896C126.596 11.8163 127.038 11.7379 127.445 11.5608C127.851 11.3838 128.209 11.1131 128.49 10.7711L129.371 12.2406C128.923 12.6518 128.395 12.9674 127.82 13.1679C127.246 13.3685 126.636 13.4498 126.029 13.4069C125.39 13.445 124.752 13.3381 124.16 13.0944C123.569 12.8506 123.041 12.4763 122.616 11.9995C121.76 10.9139 121.331 9.55356 121.409 8.17416C121.369 6.79105 121.843 5.44213 122.741 4.38764C123.165 3.8851 123.696 3.48427 124.296 3.21505C124.897 2.94583 125.55 2.81513 126.208 2.8326C127.199 2.80283 128.177 3.06512 129.02 3.58678Z" fill="#3C4A6D"/>
<path fill-rule="evenodd" clip-rule="evenodd" d="M135.354 4.6364V13.2358H133.5V4.6364H130.173V3.04248H138.844V4.6364H135.354Z" fill="#3C4A6D"/>
<path fill-rule="evenodd" clip-rule="evenodd" d="M142.194 4.6364V7.03116H145.661V8.57065H142.194V11.6263H146.931V13.2358H140.34V3.04248H147.017V4.6364H142.194Z" fill="#3C4A6D"/>
<path fill-rule="evenodd" clip-rule="evenodd" d="M150.624 4.60525V7.87084C150.941 7.90194 151.201 7.91749 151.403 7.91749C152.048 7.96567 152.693 7.82227 153.257 7.50538C153.458 7.34641 153.616 7.14049 153.718 6.90587C153.82 6.67124 153.863 6.41516 153.842 6.16029C153.842 5.10286 152.969 4.60525 151.224 4.60525C151.035 4.59404 150.845 4.59404 150.655 4.60525H150.624ZM150.624 9.48031V13.2357H148.77V3.04242L150.951 2.96469C152.2 2.8914 153.444 3.16028 154.551 3.74221C154.937 3.98982 155.25 4.33755 155.454 4.74833C155.659 5.1591 155.747 5.61753 155.711 6.07477C155.711 8.41251 154.299 9.58139 151.473 9.58139C151.255 9.56584 150.975 9.51141 150.624 9.48031Z" fill="#3C4A6D"/>
<path fill-rule="evenodd" clip-rule="evenodd" d="M164.554 3.58693L163.775 5.07976C163.217 4.61937 162.501 4.39599 161.78 4.45775C161.353 4.44736 160.929 4.54359 160.548 4.73774C160.168 4.93189 159.841 5.21781 159.599 5.5696C159.057 6.35394 158.784 7.29218 158.82 8.24427C158.789 9.15943 159.063 10.059 159.599 10.8023C159.841 11.1255 160.158 11.3844 160.524 11.5566C160.889 11.7288 161.291 11.8088 161.695 11.7898C162.137 11.817 162.58 11.7389 162.986 11.5618C163.393 11.3847 163.751 11.1137 164.032 10.7712L164.912 12.2407C164.464 12.652 163.936 12.9675 163.362 13.1681C162.787 13.3686 162.177 13.4499 161.57 13.407C160.932 13.4451 160.293 13.3383 159.702 13.0945C159.111 12.8508 158.583 12.4764 158.158 11.9997C157.301 10.9141 156.872 9.55371 156.95 8.17432C156.91 6.79121 157.385 5.44229 158.282 4.3878C158.706 3.88569 159.238 3.4852 159.838 3.21601C160.438 2.94683 161.091 2.81585 161.749 2.83276C162.738 2.80359 163.714 3.0659 164.554 3.58693V3.58693Z" fill="#3C4A6D"/>
<path fill-rule="evenodd" clip-rule="evenodd" d="M170.88 4.6364V13.2358H169.018V4.6364H165.699V3.04248H174.362V4.6364H170.88Z" fill="#3C4A6D"/>
<path fill-rule="evenodd" clip-rule="evenodd" d="M177.712 8.34525V11.7197C178.086 11.7197 178.398 11.7664 178.632 11.7664C179.244 11.8048 179.854 11.67 180.392 11.3776C180.602 11.215 180.766 11.0019 180.869 10.7583C180.973 10.5148 181.013 10.2489 180.985 9.98581C181.005 9.75097 180.969 9.51473 180.881 9.29599C180.793 9.07725 180.655 8.8821 180.478 8.72623C179.924 8.40707 179.285 8.26594 178.647 8.32195C178.31 8.32195 177.998 8.32195 177.712 8.32195V8.34525ZM177.712 4.49652V6.93016C178.086 6.93016 178.39 6.93016 178.616 6.93016C179.832 6.93016 180.439 6.48701 180.439 5.60063C180.439 4.82311 179.886 4.41879 178.78 4.41879C178.492 4.41879 178.133 4.41879 177.712 4.46544V4.49652ZM179.052 13.2358H175.85V3.04256C177.502 2.97258 178.484 2.9337 178.819 2.9337C179.719 2.88492 180.612 3.12466 181.366 3.61792C181.669 3.84101 181.912 4.1351 182.074 4.47412C182.235 4.81314 182.311 5.18665 182.293 5.56172C182.286 5.97529 182.156 6.37751 181.921 6.7178C181.685 7.05809 181.354 7.3213 180.969 7.47444C181.562 7.63347 182.082 7.99346 182.439 8.49275C182.795 8.99204 182.967 9.59958 182.924 10.2113C182.939 10.6398 182.848 11.0654 182.66 11.4504C182.471 11.8355 182.19 12.1683 181.842 12.4195C181.029 12.9934 180.047 13.2806 179.052 13.2358V13.2358Z" fill="#3C4A6D"/>
<path fill-rule="evenodd" clip-rule="evenodd" d="M186.025 8.0498C185.962 9.02397 186.181 9.99583 186.656 10.8489C186.846 11.1506 187.113 11.3966 187.429 11.5618C187.745 11.7271 188.099 11.8057 188.456 11.7897C188.86 11.8139 189.264 11.7412 189.634 11.5775C190.004 11.4138 190.329 11.164 190.583 10.8489C191.125 10.0201 191.382 9.03745 191.315 8.0498C191.315 5.65504 190.411 4.45767 188.604 4.45767C188.227 4.43916 187.852 4.51912 187.516 4.68958C187.18 4.86004 186.894 5.11509 186.687 5.42957C186.206 6.21605 185.975 7.12965 186.025 8.0498V8.0498ZM184.093 8.0498C184.054 6.71477 184.49 5.40914 185.324 4.36437C185.713 3.87272 186.213 3.47978 186.783 3.21764C187.353 2.9555 187.977 2.83158 188.604 2.85598C189.241 2.81536 189.879 2.91554 190.473 3.1494C191.067 3.38325 191.602 3.745 192.04 4.20885C192.903 5.29656 193.33 6.66535 193.239 8.0498C193.321 9.46693 192.877 10.8644 191.993 11.9763C191.547 12.4621 190.998 12.8427 190.386 13.0902C189.774 13.3376 189.115 13.4459 188.456 13.4069C187.838 13.4406 187.221 13.327 186.656 13.0755C186.091 12.8241 185.595 12.4419 185.207 11.9608C184.411 10.8169 184.019 9.44079 184.093 8.0498Z" fill="#3C4A6D"/>
<path fill-rule="evenodd" clip-rule="evenodd" d="M79.5335 18.1187C80.5378 17.5612 81.6723 17.2795 82.8212 17.3023C83.4441 17.2694 84.0663 17.3791 84.6401 17.623C85.214 17.8669 85.7244 18.2386 86.1323 18.7097C86.9672 19.8109 87.3839 21.1717 87.3087 22.5506C87.3861 23.9644 86.9209 25.3546 86.0076 26.4382C85.5542 26.9213 85.0009 27.3002 84.3861 27.5485C83.7713 27.7969 83.1097 27.9089 82.4472 27.8766C81.3042 27.9008 80.1803 27.5811 79.2219 26.9591L80.0009 25.4041C80.6723 25.9724 81.5203 26.2911 82.4005 26.306C82.7885 26.331 83.1775 26.2747 83.5424 26.1408C83.9073 26.0069 84.2402 25.7984 84.5196 25.5285C85.0773 24.8777 85.3888 24.0523 85.3999 23.196H81.4968V21.7031H85.3921C85.3418 20.9538 85.043 20.2426 84.543 19.6816C84.3076 19.4414 84.0245 19.2531 83.7119 19.1285C83.3993 19.004 83.0641 18.9461 82.7277 18.9585C81.8667 18.965 81.0288 19.2366 80.3282 19.736L79.5335 18.1187Z" fill="#3C4A6D"/>
<path fill-rule="evenodd" clip-rule="evenodd" d="M96.603 27.6899C96.3992 27.719 96.1934 27.732 95.9876 27.7287C95.454 27.7663 94.9257 27.6026 94.5073 27.27C94.1224 26.856 93.8795 26.3304 93.8139 25.7694C93.7333 24.9816 93.3968 24.2416 92.8557 23.6623C92.3019 23.2053 91.5938 22.9772 90.8768 23.0248H90.7911V27.6432H88.9525V17.4499H90.7911V21.4853H90.9391C91.6248 21.5238 92.3041 21.3352 92.8713 20.9488C93.3676 20.5341 93.6901 19.9487 93.775 19.3082C93.8371 18.7651 94.0564 18.2517 94.406 17.8309C94.5967 17.6645 94.8195 17.5387 95.0606 17.4611C95.3017 17.3836 95.5562 17.356 95.8084 17.38C96.0289 17.3662 96.2501 17.3662 96.4706 17.38V18.9894H96.159C96.0774 18.9806 95.995 18.9891 95.917 19.0146C95.8391 19.0401 95.7675 19.0819 95.7071 19.1372C95.5757 19.3447 95.4907 19.5781 95.4578 19.8214C95.3422 20.4096 95.0548 20.9507 94.632 21.3764C94.1939 21.8172 93.6359 22.1199 93.0271 22.2472C93.6564 22.4078 94.225 22.7483 94.6631 23.2269C95.1194 23.7866 95.4179 24.4576 95.5279 25.1707C95.5614 25.4489 95.6601 25.7153 95.8162 25.9482C95.8858 26.0068 95.9665 26.0507 96.0535 26.0774C96.1405 26.1041 96.232 26.1131 96.3226 26.1038C96.4156 26.1161 96.51 26.1161 96.603 26.1038V27.6899Z" fill="#3C4A6D"/>
<path fill-rule="evenodd" clip-rule="evenodd" d="M99.7504 22.4572C99.6877 23.4328 99.9039 24.4062 100.374 25.264C100.565 25.5657 100.833 25.8116 101.151 25.9768C101.468 26.142 101.824 26.2207 102.181 26.2048C102.586 26.2282 102.99 26.1542 103.36 25.9892C103.73 25.8241 104.055 25.5727 104.308 25.2562C104.85 24.4274 105.107 23.4448 105.04 22.4572C105.04 20.0676 104.137 18.8728 102.329 18.8728C101.953 18.8543 101.578 18.9342 101.242 19.1047C100.905 19.2752 100.62 19.5302 100.413 19.8447C99.9326 20.6288 99.7017 21.5396 99.7504 22.4572V22.4572ZM97.8183 22.4572C97.7778 21.1256 98.2111 19.8226 99.0415 18.7795C99.4279 18.2801 99.9272 17.8789 100.499 17.6087C101.07 17.3385 101.697 17.2068 102.329 17.2244C102.966 17.1849 103.604 17.2856 104.198 17.5194C104.792 17.7532 105.327 18.1144 105.765 18.5774C106.628 19.6651 107.055 21.0339 106.965 22.4183C107.037 23.8224 106.594 25.2046 105.718 26.3059C105.273 26.7928 104.724 27.1744 104.112 27.4232C103.5 27.672 102.841 27.7817 102.181 27.7443C101.563 27.7826 100.945 27.671 100.379 27.4192C99.8132 27.1674 99.3169 26.7828 98.9324 26.2981C98.1661 25.1681 97.7887 23.82 97.8573 22.4572H97.8183Z" fill="#3C4A6D"/>
<path fill-rule="evenodd" clip-rule="evenodd" d="M114.639 27.6432V23.0559H110.471V27.6432H108.616V17.45H110.471V21.4386H114.639V17.45H116.469V27.6432H114.639Z" fill="#3C4A6D"/>
<path fill-rule="evenodd" clip-rule="evenodd" d="M120.053 22.4571C119.988 23.4339 120.208 24.4085 120.684 25.264C120.875 25.565 121.141 25.8106 121.457 25.9758C121.773 26.141 122.127 26.22 122.484 26.2048C122.889 26.2281 123.293 26.1542 123.663 25.9891C124.033 25.824 124.358 25.5727 124.611 25.2562C125.153 24.4273 125.41 23.4448 125.343 22.4571C125.343 20.0675 124.439 18.8727 122.632 18.8727C122.255 18.8542 121.88 18.9342 121.544 19.1046C121.208 19.2751 120.922 19.5301 120.715 19.8446C120.235 20.6287 120.004 21.5395 120.053 22.4571V22.4571ZM118.121 22.4571C118.083 21.1246 118.519 19.8218 119.352 18.7794C119.736 18.2797 120.234 17.8782 120.804 17.6078C121.375 17.3375 122.001 17.2061 122.632 17.2244C123.269 17.1838 123.907 17.284 124.501 17.5179C125.095 17.7517 125.63 18.1135 126.068 18.5773C126.931 19.665 127.358 21.0338 127.267 22.4183C127.34 23.8223 126.897 25.2045 126.021 26.3059C125.576 26.7936 125.028 27.1759 124.416 27.4247C123.804 27.6736 123.144 27.7828 122.484 27.7443C121.866 27.778 121.249 27.6644 120.684 27.4129C120.119 27.1614 119.623 26.7793 119.235 26.2981C118.452 25.1737 118.058 23.8252 118.113 22.4571H118.121Z" fill="#3C4A6D"/>
<path fill-rule="evenodd" clip-rule="evenodd" d="M138.883 27.6432H137.076L136.001 22.1617L133.889 27.7832H133.235L131.108 22.1617L129.986 27.6432H128.194L130.306 17.45H131.28L133.554 24.3232L135.767 17.45H136.741L138.883 27.6432Z" fill="#3C4A6D"/>
<path fill-rule="evenodd" clip-rule="evenodd" d="M148.419 27.6432H146.565V20.7855L141.088 27.8065H140.301V17.4499H142.163V24.3077L147.632 17.2944H148.419V27.6432Z" fill="#3C4A6D"/>
<path fill-rule="evenodd" clip-rule="evenodd" d="M158.228 27.6899C158.024 27.7193 157.818 27.7323 157.612 27.7287C157.081 27.7666 156.555 27.6028 156.14 27.27C155.752 26.8582 155.508 26.3315 155.447 25.7694C155.36 24.9817 155.021 24.2428 154.48 23.6623C153.93 23.2051 153.224 22.9768 152.509 23.0248H152.393V27.6432H150.554V17.4499H152.393V21.4853H152.541C153.226 21.5238 153.905 21.3352 154.473 20.9488C154.972 20.5366 155.295 19.9499 155.376 19.3082C155.442 18.766 155.661 18.2536 156.007 17.8309C156.198 17.6645 156.421 17.5387 156.662 17.4611C156.903 17.3836 157.158 17.356 157.41 17.38C157.63 17.3662 157.851 17.3662 158.072 17.38V18.9894C157.968 18.9821 157.864 18.9821 157.76 18.9894C157.679 18.9806 157.596 18.9891 157.518 19.0146C157.441 19.0401 157.369 19.0819 157.309 19.1372C157.177 19.3441 157.095 19.5781 157.067 19.8214C156.948 20.4102 156.658 20.9511 156.233 21.3764C155.81 21.8122 155.269 22.1149 154.675 22.2472C155.303 22.4115 155.871 22.7514 156.311 23.2269C156.762 23.7902 157.059 24.4596 157.176 25.1707C157.204 25.4489 157.301 25.716 157.457 25.9482C157.528 26.0066 157.61 26.0504 157.698 26.0771C157.786 26.1038 157.879 26.1128 157.971 26.1038C158.061 26.1156 158.153 26.1156 158.243 26.1038L158.228 27.6899Z" fill="#3C4A6D"/>
<path fill-rule="evenodd" clip-rule="evenodd" d="M168.068 27.6432H166.213V20.7855L160.736 27.8065H159.95V17.4499H161.804V24.3077L167.281 17.2944H168.068V27.6432Z" fill="#3C4A6D"/>
<path fill-rule="evenodd" clip-rule="evenodd" d="M87.5735 42.0975C87.3705 42.1339 87.1643 42.1496 86.9581 42.1441C86.4245 42.1817 85.8962 42.018 85.4778 41.6854C85.0895 41.2705 84.8463 40.7413 84.7844 40.177C84.6967 39.3918 84.358 38.6557 83.8184 38.0777C83.2686 37.6183 82.563 37.3874 81.8473 37.4324H81.7616V42.0586H79.9386V31.8653H81.785V35.9006H81.9252C82.6135 35.9409 83.2958 35.7522 83.8651 35.3641C84.3597 34.9457 84.6793 34.3577 84.7611 33.7158C84.8317 33.1773 85.0501 32.6687 85.3921 32.2463C85.5834 32.0778 85.8072 31.9503 86.0497 31.8714C86.2922 31.7925 86.5483 31.764 86.8022 31.7875C87.0202 31.7733 87.2388 31.7733 87.4567 31.7875V33.397C87.3557 33.3857 87.2538 33.3857 87.1528 33.397C87.0701 33.388 86.9864 33.3965 86.9072 33.422C86.828 33.4474 86.7551 33.4893 86.6932 33.5448C86.5609 33.7483 86.4782 33.98 86.4517 34.2212C86.3268 34.816 86.03 35.3613 85.598 35.7897C85.1661 36.218 84.6178 36.5107 84.0209 36.6315C84.6507 36.7955 85.2191 37.1385 85.657 37.6189C86.1086 38.1786 86.4066 38.8457 86.5218 39.555C86.5556 39.8319 86.6515 40.0976 86.8022 40.3325C86.9477 40.4469 87.1323 40.4999 87.3164 40.4802C87.4097 40.4886 87.5036 40.4886 87.5969 40.4802L87.5735 42.0975Z" fill="#3C4A6D"/>
<path fill-rule="evenodd" clip-rule="evenodd" d="M91.1417 33.4358V36.6937C91.4637 36.7248 91.7234 36.7403 91.9208 36.7403C92.5649 36.7854 93.2084 36.6451 93.775 36.336C93.9768 36.1763 94.1358 35.9691 94.2378 35.733C94.3398 35.4969 94.3815 35.2392 94.3593 34.9831C94.3593 33.9334 93.4867 33.4281 91.7416 33.4281C91.5523 33.4118 91.3621 33.4118 91.1728 33.4281L91.1417 33.4358ZM91.1417 38.3031V42.0585H89.2875V31.8652L91.4611 31.7875C92.7084 31.7016 93.9556 31.957 95.0682 32.5262C95.4539 32.775 95.7652 33.1229 95.9695 33.5334C96.1738 33.9438 96.2634 34.4017 96.229 34.8587C96.229 37.1913 94.8189 38.3731 91.9831 38.3731C91.7021 38.3752 91.4212 38.3622 91.1417 38.3342V38.3031Z" fill="#3C4A6D"/>
<path fill-rule="evenodd" clip-rule="evenodd" d="M101.472 34.8432L100.195 38.6063H102.711L101.457 34.8432H101.472ZM104.051 42.0585L103.272 39.9904H99.6803L98.9714 42.0585H96.8912L101.075 31.7175H101.854L106.061 42.0585H104.051Z" fill="#3C4A6D"/>
<path fill-rule="evenodd" clip-rule="evenodd" d="M114.397 32.4094L113.618 33.9022C113.059 33.4446 112.343 33.2241 111.624 33.288C111.197 33.276 110.773 33.3708 110.392 33.5636C110.011 33.7564 109.685 34.0412 109.442 34.3921C108.901 35.1769 108.628 36.1148 108.663 37.0667C108.632 37.9819 108.906 38.8814 109.442 39.6248C109.683 39.9488 110.001 40.209 110.366 40.3824C110.731 40.5559 111.134 40.6375 111.538 40.62C111.981 40.6457 112.424 40.5661 112.83 40.3877C113.237 40.2093 113.595 39.9371 113.875 39.5937L114.755 41.0632C114.307 41.4744 113.78 41.7899 113.205 41.9905C112.63 42.191 112.02 42.2724 111.413 42.2295C110.775 42.2676 110.136 42.1607 109.545 41.917C108.954 41.6732 108.426 41.2989 108.001 40.8222C107.148 39.7348 106.719 38.3757 106.793 36.9968C106.754 35.6161 107.228 34.2697 108.125 33.218C108.549 32.715 109.08 32.314 109.681 32.0447C110.281 31.7754 110.934 31.6449 111.592 31.663C112.58 31.6315 113.556 31.8911 114.397 32.4094V32.4094Z" fill="#3C4A6D"/>
<path fill-rule="evenodd" clip-rule="evenodd" d="M122.211 42.0585V37.4712H118.051V42.0585H116.189V31.8652H118.051V35.8539H122.211V31.8652H124.042V42.0585H122.211Z" fill="#3C4A6D"/>
<path fill-rule="evenodd" clip-rule="evenodd" d="M127.626 36.8724C127.562 37.8465 127.781 38.8184 128.257 39.6714C128.447 39.9729 128.714 40.2191 129.03 40.3856C129.346 40.552 129.7 40.6329 130.056 40.62C130.461 40.6434 130.866 40.5694 131.236 40.4043C131.606 40.2393 131.931 39.9879 132.183 39.6714C132.729 38.8442 132.987 37.8604 132.916 36.8724C132.916 34.4776 132.012 33.288 130.204 33.288C129.829 33.2702 129.455 33.3496 129.119 33.5186C128.783 33.6875 128.497 33.9402 128.288 34.2521C127.81 35.0401 127.58 35.9526 127.626 36.8724V36.8724ZM125.701 36.8724C125.662 35.5386 126.095 34.2337 126.925 33.1869C127.315 32.6972 127.815 32.3056 128.385 32.0436C128.954 31.7817 129.578 31.6566 130.204 31.6785C130.843 31.6384 131.482 31.7387 132.077 31.9725C132.672 32.2063 133.208 32.5678 133.648 33.0314C134.508 34.1209 134.935 35.4884 134.848 36.8724C134.918 38.2774 134.472 39.6598 133.593 40.76C133.148 41.2463 132.599 41.6271 131.987 41.8746C131.375 42.1221 130.716 42.2301 130.056 42.1906C129.44 42.2292 128.824 42.1185 128.259 41.8681C127.695 41.6176 127.2 41.2348 126.816 40.7522C126.022 39.6185 125.63 38.2533 125.701 36.8724Z" fill="#3C4A6D"/>
<path fill-rule="evenodd" clip-rule="evenodd" d="M142.81 40.5657V33.3503H141.018C140.785 34.755 140.419 36.1347 139.927 37.4712C139.548 38.5795 139.01 39.6271 138.33 40.5813L142.81 40.5657ZM145.763 44.982H144.127V42.0585H137.279V44.982H135.642V40.5657H136.351C137.05 39.6333 137.633 38.6204 138.089 37.5489C138.838 35.7183 139.389 33.8129 139.733 31.8652H144.602V40.5657H145.77L145.763 44.982Z" fill="#3C4A6D"/>
<path fill-rule="evenodd" clip-rule="evenodd" d="M150.725 34.8432L149.471 38.6063H151.987L150.725 34.8432ZM153.304 42.0585L152.525 39.9904H148.941L148.224 42.0585H146.16L150.351 31.7175H151.13L155.345 42.0585H153.304Z" fill="#3C4A6D"/>
<path fill-rule="evenodd" clip-rule="evenodd" d="M158.345 33.4357V36.6935C158.664 36.6935 158.913 36.7402 159.085 36.7402C159.731 36.7863 160.378 36.646 160.947 36.3358C161.149 36.1761 161.308 35.969 161.41 35.7329C161.512 35.4968 161.553 35.2391 161.531 34.983C161.531 33.9333 160.658 33.4279 158.906 33.4279C158.719 33.4119 158.531 33.4119 158.345 33.4279V33.4357ZM158.345 38.303V42.0584H156.483V31.8651L158.664 31.7874C159.911 31.7027 161.158 31.958 162.271 32.526C162.656 32.776 162.966 33.1242 163.17 33.5344C163.374 33.9445 163.465 34.4018 163.432 34.8586C163.432 37.1911 162.022 38.3729 159.186 38.3729C158.905 38.375 158.624 38.3621 158.345 38.3341V38.303Z" fill="#3C4A6D"/>
<path fill-rule="evenodd" clip-rule="evenodd" d="M172.275 32.4095L171.495 33.9023C170.937 33.4455 170.221 33.225 169.501 33.2881C169.074 33.2747 168.65 33.3688 168.269 33.5618C167.888 33.7547 167.561 34.0403 167.32 34.3922C166.779 35.177 166.505 36.1149 166.541 37.0668C166.506 37.9825 166.781 38.8831 167.32 39.6249C167.559 39.9488 167.875 40.209 168.239 40.3825C168.603 40.5561 169.004 40.6377 169.408 40.6201C169.851 40.6458 170.294 40.5662 170.7 40.3878C171.106 40.2094 171.464 39.9372 171.745 39.5938L172.625 41.0633C172.177 41.4745 171.649 41.79 171.075 41.9906C170.5 42.1911 169.89 42.2725 169.283 42.2296C168.645 42.2677 168.006 42.1608 167.415 41.9171C166.824 41.6733 166.296 41.299 165.871 40.8223C165.014 39.7366 164.585 38.3763 164.663 36.9969C164.623 35.6162 165.098 34.2698 165.995 33.2181C166.418 32.7147 166.95 32.3133 167.55 32.044C168.15 31.7747 168.804 31.6445 169.462 31.6631C170.453 31.6309 171.431 31.8906 172.275 32.4095V32.4095Z" fill="#3C4A6D"/>
<path fill-rule="evenodd" clip-rule="evenodd" d="M181.717 42.0975C181.514 42.1339 181.308 42.1496 181.101 42.1441C180.568 42.1817 180.04 42.018 179.621 41.6854C179.233 41.2705 178.99 40.7413 178.928 40.177C178.839 39.3938 178.503 38.6589 177.97 38.0777C177.416 37.6193 176.709 37.3885 175.991 37.4324H175.905V42.0586H174.059V31.8653H175.905V35.9006H176.045C176.734 35.9409 177.416 35.7522 177.985 35.3641C178.482 34.9477 178.802 34.3586 178.881 33.7158C178.952 33.1773 179.17 32.6687 179.512 32.2463C179.704 32.0786 179.928 31.9515 180.17 31.8727C180.412 31.7938 180.668 31.7649 180.922 31.7875C181.14 31.7733 181.359 31.7733 181.577 31.7875V33.397C181.476 33.3857 181.374 33.3857 181.273 33.397C181.191 33.3871 181.109 33.3952 181.03 33.4207C180.952 33.4462 180.881 33.4886 180.821 33.5448C180.686 33.7476 180.601 33.9793 180.572 34.2212C180.447 34.816 180.15 35.3613 179.718 35.7897C179.286 36.218 178.738 36.5107 178.141 36.6315C178.772 36.7933 179.341 37.1368 179.777 37.6189C180.235 38.1748 180.533 38.8437 180.642 39.555C180.679 39.831 180.775 40.096 180.922 40.3325C181.068 40.4469 181.252 40.4999 181.436 40.4802C181.53 40.4886 181.624 40.4886 181.717 40.4802V42.0975Z" fill="#3C4A6D"/>
<path fill-rule="evenodd" clip-rule="evenodd" d="M184.857 36.8724C184.793 37.8465 185.012 38.8184 185.488 39.6714C185.678 39.9729 185.945 40.2191 186.261 40.3856C186.576 40.552 186.93 40.6329 187.287 40.62C187.692 40.6434 188.096 40.5694 188.467 40.4043C188.837 40.2393 189.162 39.9879 189.414 39.6714C189.96 38.8442 190.218 37.8604 190.146 36.8724C190.146 34.4776 189.243 33.288 187.435 33.288C187.06 33.2702 186.686 33.3496 186.35 33.5186C186.014 33.6875 185.728 33.9402 185.519 34.2521C185.041 35.0401 184.811 35.9526 184.857 36.8724V36.8724ZM182.932 36.8724C182.893 35.5386 183.326 34.2337 184.155 33.1869C184.546 32.6972 185.046 32.3056 185.616 32.0436C186.185 31.7817 186.809 31.6566 187.435 31.6785C188.074 31.6384 188.713 31.7387 189.308 31.9725C189.903 32.2063 190.439 32.5678 190.879 33.0314C191.739 34.1209 192.166 35.4884 192.079 36.8724C192.149 38.2774 191.703 39.6598 190.824 40.76C190.379 41.2463 189.83 41.6271 189.218 41.8746C188.606 42.1221 187.946 42.2301 187.287 42.1906C186.671 42.2292 186.054 42.1185 185.49 41.8681C184.926 41.6176 184.43 41.2348 184.046 40.7522C183.253 39.6185 182.861 38.2533 182.932 36.8724V36.8724Z" fill="#3C4A6D"/>
<path fill-rule="evenodd" clip-rule="evenodd" d="M200.235 33.4592H195.6V42.0585H193.722V31.8652H200.235V33.4592Z" fill="#3C4A6D"/>
<path fill-rule="evenodd" clip-rule="evenodd" d="M203.196 36.8724C203.132 37.8465 203.351 38.8184 203.827 39.6714C204.018 39.9729 204.284 40.2191 204.6 40.3856C204.916 40.552 205.27 40.6329 205.627 40.62C206.031 40.6434 206.436 40.5694 206.806 40.4043C207.176 40.2393 207.501 39.9879 207.754 39.6714C208.3 38.8442 208.557 37.8604 208.486 36.8724C208.486 34.4776 207.582 33.288 205.775 33.288C205.399 33.2702 205.025 33.3496 204.689 33.5186C204.354 33.6875 204.067 33.9402 203.858 34.2521C203.381 35.0401 203.15 35.9526 203.196 36.8724V36.8724ZM201.272 36.8724C201.233 35.5386 201.666 34.2337 202.495 33.1869C202.885 32.6972 203.386 32.3056 203.955 32.0436C204.525 31.7817 205.148 31.6566 205.775 31.6785C206.413 31.6384 207.052 31.7387 207.647 31.9725C208.242 32.2063 208.779 32.5678 209.218 33.0314C210.078 34.1209 210.505 35.4884 210.418 36.8724C210.488 38.2774 210.042 39.6598 209.164 40.76C208.718 41.2463 208.169 41.6271 207.557 41.8746C206.945 42.1221 206.286 42.2301 205.627 42.1906C205.01 42.2292 204.394 42.1185 203.83 41.8681C203.265 41.6176 202.77 41.2348 202.386 40.7522C201.593 39.6185 201.201 38.2533 201.272 36.8724Z" fill="#3C4A6D"/>
<path fill-rule="evenodd" clip-rule="evenodd" d="M224.122 42.0975C223.919 42.1343 223.713 42.1499 223.506 42.1441C222.975 42.182 222.449 42.0181 222.034 41.6854C221.646 41.2694 221.401 40.7412 221.333 40.177C221.251 39.3918 220.914 38.6549 220.375 38.0776C219.822 37.6171 219.114 37.3861 218.396 37.4323H218.31V42.0585H216.471V31.8653H218.31V35.9006H218.458C219.144 35.9391 219.823 35.7505 220.39 35.3641C220.889 34.9485 221.212 34.3595 221.294 33.7158C221.361 33.1763 221.58 32.6667 221.925 32.2462C222.115 32.0784 222.337 31.9512 222.579 31.8723C222.82 31.7935 223.075 31.7646 223.327 31.7875C223.548 31.7733 223.769 31.7733 223.99 31.7875V33.397C223.886 33.3855 223.781 33.3855 223.678 33.397C223.596 33.3881 223.514 33.3967 223.436 33.4222C223.358 33.4477 223.286 33.4895 223.226 33.5447C223.094 33.7483 223.011 33.98 222.984 34.2212C222.863 34.8089 222.573 35.349 222.151 35.7762C221.716 36.2158 221.16 36.5162 220.554 36.6393C221.183 36.8032 221.752 37.1463 222.19 37.6267C222.641 38.1863 222.939 38.8535 223.055 39.5627C223.085 39.8405 223.181 40.1072 223.335 40.3403C223.478 40.4542 223.66 40.5073 223.841 40.488C223.935 40.4964 224.029 40.4964 224.122 40.488V42.0975Z" fill="#3C4A6D"/>
<path fill-rule="evenodd" clip-rule="evenodd" d="M227.698 33.4357V36.6935C228.017 36.6935 228.267 36.7402 228.438 36.7402C229.085 36.7863 229.731 36.646 230.3 36.3358C230.502 36.1761 230.661 35.969 230.763 35.7329C230.865 35.4968 230.907 35.2391 230.884 34.983C230.884 33.9333 230.012 33.4279 228.259 33.4279C228.072 33.4119 227.885 33.4119 227.698 33.4279V33.4357ZM227.698 38.303V42.0584H225.836V31.8651L228.017 31.7874C229.265 31.7027 230.511 31.958 231.624 32.526C232.009 32.776 232.319 33.1242 232.523 33.5344C232.728 33.9445 232.818 34.4018 232.785 34.8586C232.785 37.1963 231.37 38.3677 228.539 38.3729C228.258 38.375 227.977 38.3621 227.698 38.3341V38.303Z" fill="#3C4A6D"/>
<path fill-rule="evenodd" clip-rule="evenodd" d="M238.021 34.8432L236.766 38.6063H239.283L238.021 34.8432ZM240.607 42.0585L239.828 39.9904H236.237L235.52 42.0585H233.416L237.608 31.7175H238.387L242.594 42.0585H240.607Z" fill="#3C4A6D"/>
<path fill-rule="evenodd" clip-rule="evenodd" d="M249.169 36.367V33.257C248.714 33.2065 248.256 33.1831 247.798 33.187C247.285 33.1636 246.777 33.2965 246.341 33.568C246.158 33.688 246.009 33.8537 245.909 34.0487C245.809 34.2437 245.762 34.4612 245.772 34.6798C245.772 35.7528 246.552 36.3049 248.11 36.3282L249.169 36.367ZM250.992 42.0585H249.154V37.8288H248.717C248.04 37.7837 247.369 37.9884 246.832 38.4042C246.328 38.8942 245.999 39.5363 245.897 40.2313C245.829 40.7793 245.592 41.2926 245.219 41.7009C244.85 42.0165 244.372 42.1755 243.887 42.1441C243.676 42.1512 243.464 42.1356 243.256 42.0974V40.4957C243.349 40.5041 243.443 40.5041 243.536 40.4957C243.631 40.5048 243.725 40.4904 243.812 40.4537C243.899 40.4171 243.976 40.3594 244.035 40.2858C244.157 40.0772 244.239 39.8478 244.277 39.6093C244.378 39.0653 244.621 38.5573 244.981 38.1358C245.34 37.7144 245.804 37.3941 246.326 37.2068C245.609 37.1017 244.947 36.7659 244.44 36.2505C244.086 35.8112 243.903 35.2587 243.926 34.6954C243.923 34.287 244.012 33.8833 244.188 33.5143C244.363 33.1454 244.62 32.8208 244.939 32.565C245.813 31.9256 246.888 31.6194 247.969 31.7019C248.858 31.7019 249.87 31.7486 250.992 31.8341V42.0585Z" fill="#3C4A6D"/>
<path fill-rule="evenodd" clip-rule="evenodd" d="M31 13.8758C31 14.84 30.7361 15.7825 30.2416 16.5842C29.7471 17.3859 29.0443 18.0108 28.2221 18.3797C27.3998 18.7487 26.495 18.8453 25.6221 18.6572C24.7492 18.4691 23.9474 18.0048 23.318 17.323C22.6887 16.6412 22.2601 15.7726 22.0865 14.8269C21.9128 13.8812 22.0019 12.901 22.3425 12.0102C22.6831 11.1194 23.2599 10.358 23.9999 9.82236C24.7399 9.28669 25.61 9.00074 26.5 9.00074C27.0912 8.99988 27.6767 9.12541 28.223 9.3701C28.7693 9.61479 29.2657 9.97384 29.6837 10.4267C30.1018 10.8796 30.4332 11.4173 30.6591 12.0092C30.8849 12.601 31.0008 13.2354 31 13.8758V13.8758Z" fill="#D0045D"/>
<path fill-rule="evenodd" clip-rule="evenodd" d="M9 27.9593C9 28.9235 8.73607 29.866 8.24161 30.6677C7.74714 31.4694 7.04434 32.0943 6.22207 32.4632C5.3998 32.8322 4.49501 32.9288 3.62209 32.7407C2.74918 32.5526 1.94735 32.0883 1.31802 31.4065C0.688682 30.7247 0.260103 29.856 0.0864692 28.9104C-0.0871642 27.9647 0.00194684 26.9845 0.342541 26.0937C0.683135 25.2029 1.25992 24.4415 1.99994 23.9058C2.73996 23.3701 3.60998 23.0842 4.5 23.0842C5.09117 23.0834 5.67669 23.2089 6.22301 23.4536C6.76933 23.6983 7.26572 24.0573 7.68374 24.5102C8.10176 24.963 8.43321 25.5008 8.65907 26.0927C8.88494 26.6845 9.00079 27.3188 9 27.9593V27.9593Z" fill="#1B3F93"/>
<path fill-rule="evenodd" clip-rule="evenodd" d="M62 5.19601C62.0026 6.16075 61.7116 7.10456 61.1639 7.90797C60.6161 8.71139 59.8361 9.33826 58.9227 9.70925C58.0093 10.0802 57.0035 10.1786 56.0328 9.99202C55.062 9.80539 54.1698 9.34212 53.4692 8.66085C52.7686 7.97958 52.2911 7.11096 52.0971 6.16494C51.903 5.21891 52.0013 4.23802 52.3793 3.34645C52.7574 2.45489 53.3982 1.69275 54.2207 1.15649C55.0433 0.620236 56.0105 0.333992 57 0.333989C57.6557 0.333131 58.3052 0.458208 58.9114 0.702083C59.5175 0.945957 60.0685 1.30386 60.5327 1.75534C60.997 2.20682 61.3656 2.74304 61.6173 3.33339C61.8691 3.92374 61.9991 4.55666 62 5.19601Z" fill="#009442"/>
<path fill-rule="evenodd" clip-rule="evenodd" d="M11.1566 49.084H16.4334C16.6411 49.0905 16.8467 49.0375 17.0299 48.9301C17.2131 48.8228 17.3675 48.665 17.4777 48.4723L30.8878 22.4302C31.2502 21.758 30.6912 20.9177 29.8373 20.9177H24.5667C24.3591 20.9133 24.1539 20.9664 23.9702 21.0722C23.7865 21.178 23.6303 21.333 23.5162 21.5227L10.1123 47.5446C9.74986 48.2706 10.3089 49.084 11.1566 49.084Z" fill="#D0045D"/>
<path fill-rule="evenodd" clip-rule="evenodd" d="M56.8564 12.2515H51.6387C51.4338 12.2439 51.2306 12.2938 51.0494 12.3961C50.8683 12.4985 50.7154 12.6497 50.6061 12.8348L37.3402 37.9439C37.3402 37.9439 37.3402 37.9439 37.3402 37.9893L35.111 42.2087C34.7527 42.8569 35.3054 43.667 36.1436 43.667H41.3613C41.5662 43.6746 41.7694 43.6248 41.9506 43.5224C42.1317 43.4201 42.2846 43.2688 42.3939 43.0837L55.6598 17.9746C55.659 17.9595 55.659 17.9443 55.6598 17.9292L57.889 13.7098C58.2473 13.0293 57.6946 12.2515 56.8564 12.2515Z" fill="#009442"/>
<path fill-rule="evenodd" clip-rule="evenodd" d="M37.8991 33.5083L34.8446 38.9267C34.7838 39.0413 34.6956 39.1386 34.588 39.2094C34.4805 39.2803 34.3571 39.3226 34.2292 39.3323C34.1014 39.342 33.9731 39.319 33.8564 39.2651C33.7396 39.2113 33.6381 39.1285 33.5612 39.0244L28.1579 32.0494C28.0664 31.9277 28.0121 31.7813 28.0018 31.6284C27.9915 31.4756 28.0257 31.3231 28.1002 31.1898L31.2317 25.6606C31.2919 25.545 31.3801 25.4469 31.488 25.3756C31.5959 25.3042 31.72 25.262 31.8485 25.2529C31.977 25.2437 32.1056 25.268 32.2223 25.3234C32.3389 25.3788 32.4397 25.4635 32.5152 25.5695L37.8478 32.6551C37.9371 32.7769 37.9895 32.9224 37.9986 33.0739C38.0077 33.2254 37.9731 33.3764 37.8991 33.5083V33.5083Z" fill="#D0045D"/>
<path fill-rule="evenodd" clip-rule="evenodd" d="M11.9466 39.0534L9.46004 44.4293C9.41184 44.5266 9.34037 44.6079 9.25321 44.6645C9.16606 44.7212 9.06646 44.7511 8.96497 44.7511C8.86348 44.7511 8.76389 44.7212 8.67673 44.6645C8.58958 44.6079 8.51811 44.5266 8.4699 44.4293L4.04245 35.8475C4.00139 35.739 3.9898 35.6199 4.00906 35.5044C4.02832 35.3889 4.07762 35.2818 4.1511 35.1959C4.22457 35.1101 4.31913 35.049 4.42353 35.02C4.52794 34.991 4.6378 34.9953 4.74004 35.0323L11.6372 38.2198C11.7096 38.2497 11.7756 38.2957 11.831 38.3548C11.8863 38.4138 11.9299 38.4847 11.959 38.563C11.988 38.6413 12.0019 38.7252 11.9998 38.8096C11.9977 38.894 11.9796 38.977 11.9466 39.0534V39.0534Z" fill="#1B3F93"/>
</svg>
